<?xml version="1.0" standalone="no"?>
<!DOCTYPE svg PUBLIC "-//W3C//DTD SVG 1.1//EN" "http://www.w3.org/Graphics/SVG/1.1/DTD/svg11.dtd" >
<svg xmlns="http://www.w3.org/2000/svg" xmlns:xlink="http://www.w3.org/1999/xlink" version="1.1">
<metadata>
Created by FontForge 20170731 at Wed Jun 30 23:08:52 2021
 By Aleksey,,,
Copyright (c) 2021 by The Designers Foundry. All rights reserved.
</metadata>
<defs>
<font id="Zosia-Display" horiz-adv-x="1200" >
  <font-face 
    font-family="Zosia Display"
    font-weight="700"
    font-stretch="normal"
    units-per-em="2048"
    panose-1="0 0 8 0 0 0 0 0 0 0"
    ascent="1638"
    descent="-410"
    x-height="999"
    cap-height="1454"
    bbox="-1423 -526 2929 1960"
    underline-thickness="108"
    underline-position="-292"
    unicode-range="U+000D-2E18"
  />
<missing-glyph horiz-adv-x="913" 
 />
    <glyph glyph-name=".notdef" horiz-adv-x="913" 
 />
    <glyph glyph-name=".null" horiz-adv-x="0" 
 />
    <glyph glyph-name="nonmarkingreturn" horiz-adv-x="682" 
 />
    <glyph glyph-name="CR" unicode="&#xd;" horiz-adv-x="0" 
 />
    <glyph glyph-name="space" unicode=" " horiz-adv-x="526" 
 />
    <glyph glyph-name="exclam" unicode="!" horiz-adv-x="569" 
d="M389 477h-201l-47 1030h293zM287 -18q-71 0 -120.5 48t-49.5 117q0 68 50 116t120 48q68 0 117 -48.5t49 -115.5q0 -69 -49 -117t-117 -48z" />
    <glyph glyph-name="quotedbl" unicode="&#x22;" horiz-adv-x="841" 
d="M270 922h-209l64 532h276zM655 922h-209l64 532h276z" />
    <glyph glyph-name="numbersign" unicode="#" horiz-adv-x="1312" 
d="M408 -90h-185l60 385h-215v199h245l45 284h-241v199h272l57 366h181l-58 -366h283l57 366h181l-56 -366h226l-3 -199h-253l-43 -284h245l-2 -199h-274l-62 -385h-180l60 385h-281zM541 778l-45 -284h282l43 284h-280z" />
    <glyph glyph-name="dollar" unicode="$" horiz-adv-x="1165" 
d="M1090 399q0 -168 -107 -275.5t-291 -129.5v-240h-198v244q-234 37 -410 207l168 203q82 -79 177.5 -118.5t184.5 -39.5q77 0 124.5 34.5t47.5 92.5q0 65 -51 102.5t-182 77.5q-67 21 -112.5 37.5t-101 42t-91.5 54.5t-68 68.5t-47.5 91t-15.5 114.5q0 160 100.5 268
t278.5 129v250h196v-258q99 -19 197 -63t170 -103l-162 -201q-158 115 -313 115q-79 0 -122.5 -30.5t-43.5 -86.5q0 -55 50.5 -89.5t166.5 -70.5q53 -17 88.5 -28.5t79 -28.5t72.5 -32t62 -35.5t54 -41.5t41.5 -48.5t32 -58.5t18.5 -70t7 -83z" />
    <glyph glyph-name="percent" unicode="%" horiz-adv-x="2084" 
d="M1468 1399l-645 -1448l-202 88l645 1448zM492 655q-174 0 -294 114.5t-120 295.5q0 171 115.5 288t298.5 117q173 0 293 -113t120 -292q0 -172 -116 -291t-297 -119zM492 846q90 0 145 62.5t55 154.5q0 94 -57 153.5t-143 59.5q-88 0 -143.5 -61.5t-55.5 -151.5
q0 -95 58 -156t141 -61zM1593 -18q-174 0 -293.5 114.5t-119.5 294.5q0 172 115 290t298 118q174 0 294 -113.5t120 -294.5q0 -171 -116 -290t-298 -119zM1595 174q89 0 145 62t56 153q0 94 -58 153.5t-143 59.5q-89 0 -144.5 -61t-55.5 -152q0 -94 57.5 -154.5t142.5 -60.5
z" />
    <glyph glyph-name="ampersand" unicode="&#x26;" horiz-adv-x="1359" 
d="M559 -18q-133 0 -241.5 55.5t-172 158t-63.5 232.5q0 141 71 247.5t189 178.5v4l-154 199q19 182 145 299t308 117q314 0 465 -299l-223 -84q-36 68 -85 108.5t-130 40.5q-86 0 -134.5 -46.5t-60.5 -109.5l467 -598h6q47 106 47 213l252 4q0 -251 -127 -440v-6l199 -256
h-305l-78 100h-6q-142 -118 -369 -118zM588 229q110 0 196 60v4l-292 373q-68 -37 -104 -96t-36 -126q0 -96 66 -155.5t170 -59.5z" />
    <glyph glyph-name="quotesingle" unicode="'" horiz-adv-x="456" 
d="M270 922h-209l64 532h276z" />
    <glyph glyph-name="parenleft" unicode="(" horiz-adv-x="630" 
d="M549 -233l-199 -89q-248 389 -248 926q0 266 65 505.5t187 422.5l197 -90q-99 -180 -152 -395.5t-53 -442.5q0 -447 203 -837z" />
    <glyph glyph-name="parenright" unicode=")" horiz-adv-x="630" 
d="M281 -322l-199 89q203 390 203 837q0 227 -53 442.5t-152 395.5l196 90q122 -183 187 -422.5t65 -505.5q0 -538 -247 -926z" />
    <glyph glyph-name="asterisk" unicode="*" horiz-adv-x="819" 
d="M492 784h-164l10 209l-176 -110l-82 141l184 94l-186 99l84 141l176 -113l-10 209h164l-13 -209l178 111l82 -139l-184 -97l184 -96l-82 -141l-172 110z" />
    <glyph glyph-name="plus" unicode="+" horiz-adv-x="1179" 
d="M707 84h-236v367h-369v233h369v369h236v-369h368v-233h-368v-367z" />
    <glyph glyph-name="comma" unicode="," horiz-adv-x="493" 
d="M242 -272h-195l64 534h276z" />
    <glyph glyph-name="hyphen" unicode="-" horiz-adv-x="813" 
d="M717 506h-621v252h621v-252z" />
    <glyph glyph-name="period" unicode="." horiz-adv-x="550" 
d="M276 -18q-71 0 -120.5 48t-49.5 117q0 68 50 116t120 48q68 0 117 -48.5t49 -115.5q0 -69 -49 -117t-117 -48z" />
    <glyph glyph-name="slash" unicode="/" horiz-adv-x="890" 
d="M918 1520l-781 -1749l-200 92l782 1749z" />
    <glyph glyph-name="zero" unicode="0" horiz-adv-x="1286" 
d="M643 -18q-248 0 -398.5 192t-150.5 528q0 325 148 523t401 198q249 0 399 -191.5t150 -529.5q0 -326 -147.5 -523t-401.5 -197zM643 242q124 0 194 119t70 341q0 217 -69.5 340t-194.5 123q-123 0 -193.5 -120.5t-70.5 -342.5q0 -213 70.5 -336.5t193.5 -123.5z" />
    <glyph glyph-name="one" unicode="1" horiz-adv-x="835" 
d="M674 0h-281v1073l-235 -178l-131 207l424 305h223v-1407z" />
    <glyph glyph-name="two" unicode="2" horiz-adv-x="1083" 
d="M993 0h-915l-4 182l436 465q96 100 142 173.5t46 152.5q0 82 -52.5 136t-133.5 54q-157 0 -246 -149l-198 141q67 122 182 194t282 72q120 0 221 -48.5t164.5 -144.5t63.5 -222q0 -125 -50.5 -231t-182.5 -243l-263 -274l2 -6h506v-252z" />
    <glyph glyph-name="three" unicode="3" horiz-adv-x="1110" 
d="M545 -18q-182 0 -316.5 86.5t-187.5 224.5l240 100q62 -160 243 -160q89 0 149 51.5t60 135.5q0 81 -60.5 135.5t-172.5 54.5h-99v226h123q89 0 135 46.5t46 118.5q0 74 -53.5 122t-131.5 48q-138 0 -205 -118l-223 121q51 112 166.5 180.5t267.5 68.5q195 0 324 -101
t129 -275q0 -101 -47.5 -183t-134.5 -133v-6q104 -47 163.5 -134.5t59.5 -207.5q0 -180 -134 -290.5t-341 -110.5z" />
    <glyph glyph-name="four" unicode="4" horiz-adv-x="1171" 
d="M920 0h-275v231h-594v177l645 999h224v-938h188v-238h-188v-231zM664 956l-310 -499h310v499z" />
    <glyph glyph-name="five" unicode="5" horiz-adv-x="1130" 
d="M602 907q186 0 312 -123.5t126 -328.5q0 -209 -139.5 -341t-361.5 -132q-147 0 -273.5 57t-214.5 166l201 160q43 -59 110.5 -94t149.5 -35q111 0 178.5 63t67.5 160q0 103 -73.5 162t-166.5 59q-121 0 -213 -72l-149 54l43 745h770v-254h-525l-16 -274q98 28 174 28z
" />
    <glyph glyph-name="six" unicode="6" horiz-adv-x="1191" 
d="M674 901q121 0 217.5 -51.5t155.5 -156t59 -244.5q0 -205 -144.5 -336t-363.5 -131q-220 0 -363 158t-143 413q0 223 93.5 413.5t263 317.5t387.5 168l82 -225q-195 -56 -319.5 -148.5t-184.5 -236.5l4 -4q117 63 256 63zM610 233q99 0 161.5 64.5t62.5 157.5t-63.5 153
t-168.5 60q-71 0 -135 -35t-109 -92v-17q0 -129 73 -210t179 -81z" />
    <glyph glyph-name="seven" unicode="7" horiz-adv-x="993" 
d="M41 1155v252h877v-182l-490 -1256l-278 51l460 1135h-569z" />
    <glyph glyph-name="eight" unicode="8" horiz-adv-x="1167" 
d="M584 -16q-145 0 -260.5 50t-181.5 142t-66 211q0 136 68 233.5t175 139.5v4q-71 33 -121.5 113.5t-50.5 179.5q0 173 122.5 269.5t314.5 96.5q193 0 315.5 -98t122.5 -268q0 -99 -51.5 -181t-120.5 -112v-4q108 -40 176 -137t68 -236q0 -183 -145.5 -293t-364.5 -110z
M584 872q78 0 129 44.5t51 113.5t-51.5 115.5t-128.5 46.5q-78 0 -128 -47t-50 -115q0 -69 50 -113.5t128 -44.5zM584 221q98 0 162.5 60.5t64.5 142.5q0 91 -63.5 149t-163.5 58q-101 0 -164.5 -58t-63.5 -149q0 -85 66.5 -144t161.5 -59z" />
    <glyph glyph-name="nine" unicode="9" horiz-adv-x="1185" 
d="M584 1423q222 0 365 -157t143 -408q0 -228 -95.5 -421t-265.5 -319.5t-389 -168.5l-84 225q196 54 323.5 148.5t188.5 242.5l-2 2q-115 -65 -260 -65q-182 0 -306 122.5t-124 331.5q0 205 145 336t361 131zM352 950q0 -95 62.5 -154t167.5 -59q69 0 133.5 35t109.5 90v21
q0 129 -66.5 208.5t-170.5 79.5q-105 0 -170.5 -64t-65.5 -157z" />
    <glyph glyph-name="colon" unicode=":" horiz-adv-x="552" 
d="M272 686q-71 0 -120.5 48.5t-49.5 117.5q0 68 50 116t120 48q68 0 117 -48.5t49 -115.5q0 -69 -49 -117.5t-117 -48.5zM272 -18q-71 0 -120.5 48t-49.5 117q0 68 50 116t120 48q68 0 117 -48.5t49 -115.5q0 -69 -49 -117t-117 -48z" />
    <glyph glyph-name="semicolon" unicode=";" horiz-adv-x="512" 
d="M268 686q-71 0 -120.5 48.5t-49.5 117.5q0 68 50 116t120 48q68 0 117 -48.5t49 -115.5q0 -69 -49 -117.5t-117 -48.5zM260 -272h-194l63 534h277z" />
    <glyph glyph-name="less" unicode="&#x3c;" horiz-adv-x="1181" 
d="M1065 307v-254l-950 408v194l950 418v-260l-604 -252z" />
    <glyph glyph-name="equal" unicode="=" horiz-adv-x="1202" 
d="M127 920h973v-234h-973v234zM127 449h973v-234h-973v234z" />
    <glyph glyph-name="greater" unicode="&#x3e;" horiz-adv-x="1181" 
d="M1075 461l-950 -408v254l604 254l-604 252v260l950 -418v-194z" />
    <glyph glyph-name="question" unicode="?" horiz-adv-x="952" 
d="M518 473h-237v102q-1 43 11.5 82t38 75.5t48 62t59.5 62.5l17 17q42 47 64 74t43.5 73t21.5 89q0 75 -44.5 117.5t-117.5 42.5q-58 0 -113 -30t-92 -81l-194 178q71 87 182 138t237 51q87 0 164.5 -25.5t138.5 -73.5t96.5 -126t35.5 -175q0 -108 -49 -190.5t-134 -163.5
q-13 -12 -47 -43.5t-48 -45.5t-34.5 -37.5t-29 -43.5t-9.5 -41zM406 -18q-71 0 -120.5 48t-49.5 117q0 68 50 116t120 48q68 0 116.5 -48.5t48.5 -115.5q0 -69 -48.5 -117t-116.5 -48z" />
    <glyph glyph-name="at" unicode="@" horiz-adv-x="1832" 
d="M860 -303q-166 0 -308.5 55.5t-245.5 156t-161.5 249t-58.5 327.5q0 116 28.5 231.5t97 231.5t168.5 204.5t256.5 144t348.5 55.5q174 0 318.5 -57.5t241.5 -158.5t150.5 -239t53.5 -297q0 -62 -11.5 -126.5t-43.5 -136.5t-81 -127t-132 -91.5t-189 -36.5q-118 0 -180 59
q-37 40 -53 95h-6q-43 -63 -112.5 -98.5t-143.5 -35.5q-152 0 -245 107.5t-93 282.5q0 54 12 115t42 127t72.5 118t110.5 85.5t150 33.5q153 0 233 -131l4 2l15 112h264l-55 -522q-4 -40 -4 -53q0 -52 17 -73t54 -21q53 0 95 55t61.5 125t19.5 133q0 157 -70 287t-200.5 207
t-296.5 77q-139 0 -256 -40t-197 -107t-136.5 -156t-82.5 -185.5t-26 -197.5q0 -120 39 -228t111 -190.5t183.5 -131t245.5 -48.5q127 0 217.5 24.5t184.5 80.5l84 -140q-187 -153 -490 -153zM877 336q84 0 141 67t57 160q0 77 -42.5 126.5t-106.5 49.5q-85 0 -144 -65.5
t-59 -159.5q0 -80 44 -129t110 -49z" />
    <glyph glyph-name="A" unicode="A" horiz-adv-x="1423" 
d="M334 0h-301l538 1454h279l541 -1454h-301l-101 291h-557zM709 1106l-195 -569h393l-194 569h-4z" />
    <glyph glyph-name="B" unicode="B" horiz-adv-x="1314" 
d="M754 0h-596v1454h524q232 0 354.5 -90.5t122.5 -263.5q0 -107 -53.5 -195t-165.5 -131v-4q140 -34 216.5 -129.5t76.5 -239.5q0 -181 -122 -291t-357 -110zM442 1200v-340h217q98 0 153.5 42t55.5 128q0 170 -221 170h-205zM442 627v-373h271q105 0 163 46.5t58 137.5
q0 88 -64 138.5t-186 50.5h-242z" />
    <glyph glyph-name="C" unicode="C" horiz-adv-x="1478" 
d="M840 -14q-154 0 -287.5 48.5t-235.5 139.5t-160.5 232.5t-58.5 316.5q0 157 50 293t142 238t233 160.5t313 58.5q162 0 313.5 -71t265.5 -210l-213 -178q-150 184 -366 184q-190 0 -313.5 -130t-123.5 -345q0 -203 123.5 -334t317.5 -131q110 0 203.5 49t162.5 135
l211 -182q-100 -125 -247 -199.5t-330 -74.5z" />
    <glyph glyph-name="D" unicode="D" horiz-adv-x="1490" 
d="M645 0h-487v1454h481q170 0 312 -53.5t239.5 -149.5t151 -231t53.5 -295t-52 -294t-147.5 -229.5t-237 -148.5t-313.5 -53zM442 1198v-942h185q209 0 338 133t129 336q0 205 -127 339t-324 134h-201z" />
    <glyph glyph-name="E" unicode="E" horiz-adv-x="1224" 
d="M1130 0h-972v1454h929v-256h-645v-350h516v-252h-516v-340h688v-256z" />
    <glyph glyph-name="F" unicode="F" 
d="M442 0h-284v1454h964v-256h-680v-389h568v-258h-568v-551z" />
    <glyph glyph-name="G" unicode="G" horiz-adv-x="1536" 
d="M840 -14q-158 0 -293.5 50.5t-235 143.5t-156.5 233.5t-57 311.5q0 159 50.5 296.5t143 237.5t230.5 157t305 57q161 0 315 -63.5t263 -184.5l-203 -176q-151 151 -375 151q-185 0 -306.5 -129t-121.5 -346q0 -134 53 -242t154 -171.5t234 -63.5q170 0 293 76v221h-326
v248h606v-627q-97 -91 -247 -135.5t-326 -44.5z" />
    <glyph glyph-name="H" unicode="H" horiz-adv-x="1488" 
d="M449 0h-291v1454h291v-629h593v629h289v-1454h-289v569h-593v-569z" />
    <glyph glyph-name="I" unicode="I" horiz-adv-x="624" 
d="M166 0v1454h293v-1454h-293z" />
    <glyph glyph-name="J" unicode="J" horiz-adv-x="1034" 
d="M446 -14q-117 0 -223 48t-176 138l166 205q41 -51 99 -86t118 -35q174 0 174 248v950h289v-948q0 -253 -106 -386.5t-341 -133.5z" />
    <glyph glyph-name="K" unicode="K" horiz-adv-x="1357" 
d="M446 0h-288v1454h288v-637h5l497 637h367l-537 -641l555 -813h-356l-389 584l-142 -168v-416z" />
    <glyph glyph-name="L" unicode="L" horiz-adv-x="1155" 
d="M1094 0h-936v1454h293v-1198h643v-256z" />
    <glyph glyph-name="M" unicode="M" horiz-adv-x="1789" 
d="M444 0h-286v1454h288l447 -827h4l446 827h289v-1454h-286v899h-5l-354 -625h-186l-352 627h-5v-901z" />
    <glyph glyph-name="N" unicode="N" horiz-adv-x="1540" 
d="M444 0h-286v1454h282l654 -981h4v981h284v-1454h-288l-645 961h-5v-961z" />
    <glyph glyph-name="O" unicode="O" horiz-adv-x="1677" 
d="M840 -18q-217 0 -386.5 96t-262.5 265.5t-93 383.5t93 384t262.5 266t386.5 96q158 0 295 -54.5t234.5 -151.5t153.5 -236.5t56 -303.5q0 -217 -95.5 -387.5t-264 -264t-379.5 -93.5zM840 252q188 0 313 135t125 340t-125 340t-313 135q-128 0 -230 -63.5t-157.5 -172
t-55.5 -239.5t55.5 -239.5t157.5 -172t230 -63.5z" />
    <glyph glyph-name="P" unicode="P" horiz-adv-x="1273" 
d="M442 0h-284v1454h538q129 0 227 -36t158.5 -101.5t90.5 -152t30 -193.5q0 -233 -143.5 -353t-390.5 -120h-226v-498zM442 1198v-446h195q131 0 198.5 60t67.5 163t-65 163t-187 60h-209z" />
    <glyph glyph-name="Q" unicode="Q" horiz-adv-x="1710" 
d="M1456 295l164 -145l-154 -195l-180 164q-188 -137 -446 -137q-217 0 -386.5 96t-262.5 265.5t-93 383.5t93 384t262.5 266t386.5 96q158 0 295 -54.5t234.5 -151.5t153.5 -236.5t56 -303.5q0 -244 -123 -432zM397 727q0 -208 126.5 -342.5t316.5 -134.5q132 0 241 72
l-137 124l139 168l142 -127q53 109 53 240q0 202 -122.5 338.5t-315.5 136.5q-190 0 -316.5 -135t-126.5 -340z" />
    <glyph glyph-name="R" unicode="R" horiz-adv-x="1341" 
d="M442 0h-284v1454h551q252 0 378.5 -131.5t126.5 -351.5q0 -167 -76.5 -278.5t-226.5 -160.5l365 -532h-342l-326 498h-166v-498zM442 1198v-446h209q129 0 198 60.5t69 162.5q0 103 -66 163t-188 60h-222z" />
    <glyph glyph-name="S" unicode="S" horiz-adv-x="1191" 
d="M596 -18q-144 0 -280.5 58t-249.5 173l174 213q79 -89 175.5 -135.5t186.5 -46.5q101 0 154 41.5t53 111.5q0 75 -54.5 116.5t-197.5 90.5q-54 18 -94.5 34.5t-88.5 40.5t-83 48.5t-69.5 59t-56 73.5t-35 89t-13.5 108q0 174 135.5 294t331.5 122q266 0 491 -185
l-168 -217q-177 143 -317 143q-77 0 -126 -38.5t-50 -106.5q0 -63 52 -100t193 -92q182 -71 241 -103q137 -73 183 -181q29 -70 29 -161q0 -92 -31 -169t-82.5 -128t-119 -86t-139 -51t-144.5 -16z" />
    <glyph glyph-name="T" unicode="T" horiz-adv-x="1202" 
d="M743 0h-290v1198h-398v256h1092v-256h-404v-1198z" />
    <glyph glyph-name="U" unicode="U" horiz-adv-x="1456" 
d="M727 -18q-267 0 -427.5 163.5t-160.5 456.5v852h289v-833q0 -162 79 -265.5t220 -103.5q134 0 218.5 99.5t84.5 269.5v833h289v-852q0 -286 -157 -453t-435 -167z" />
    <glyph glyph-name="V" unicode="V" horiz-adv-x="1413" 
d="M838 0h-254l-541 1454h307l361 -1055h4l360 1055h301z" />
    <glyph glyph-name="W" unicode="W" horiz-adv-x="2111" 
d="M768 0h-258l-459 1454h299l291 -987h4l260 987h303l256 -985h6l293 985h297l-458 -1454h-259l-282 1036h-4z" />
    <glyph glyph-name="X" unicode="X" horiz-adv-x="1433" 
d="M383 0h-332l473 729l-461 725h336l318 -504h4l319 504h328l-461 -723l475 -731h-338l-327 508h-6z" />
    <glyph glyph-name="Y" unicode="Y" horiz-adv-x="1288" 
d="M788 0h-290v639l-482 815h330l297 -528h4l291 528h334l-484 -815v-639z" />
    <glyph glyph-name="Z" unicode="Z" horiz-adv-x="1271" 
d="M1165 0h-1063v225l668 967l-2 6h-647v256h1032v-219l-684 -973l4 -6h692v-256z" />
    <glyph glyph-name="bracketleft" unicode="[" horiz-adv-x="700" 
d="M608 -303h-487v1804h487v-198h-258v-1403h258v-203z" />
    <glyph glyph-name="backslash" unicode="\" horiz-adv-x="901" 
d="M961 -137l-201 -92l-780 1749l198 92z" />
    <glyph glyph-name="bracketright" unicode="]" horiz-adv-x="700" 
d="M580 1501v-1804h-488v203h258v1403h-258v198h488z" />
    <glyph glyph-name="asciicircum" unicode="^" horiz-adv-x="950" 
d="M311 1024h-211l279 430h190l281 -430h-219l-158 262z" />
    <glyph glyph-name="underscore" unicode="_" horiz-adv-x="1085" 
d="M1094 -236h-1102v181h1102v-181z" />
    <glyph glyph-name="grave" unicode="`" horiz-adv-x="1019" 
d="M217 1386l287 -2l221 -297h-254z" />
    <glyph glyph-name="a" unicode="a" horiz-adv-x="1249" 
d="M555 -18q-208 0 -342.5 143t-134.5 373q0 226 134.5 372t336.5 146q185 0 295 -131l4 2v112h268v-999h-256v119l-4 2q-108 -139 -301 -139zM606 223q106 0 180 76.5t74 196.5q0 121 -73 200.5t-181 79.5q-111 0 -183.5 -76.5t-72.5 -203.5q0 -120 71 -196.5t185 -76.5z
" />
    <glyph glyph-name="b" unicode="b" horiz-adv-x="1257" 
d="M698 -18q-197 0 -307 141l-4 -2v-121h-254v1507h273v-620h2q108 129 299 129q204 0 338.5 -146t134.5 -372q0 -230 -135.5 -373t-346.5 -143zM651 223q113 0 184.5 76.5t71.5 196.5q0 126 -74 203t-184 77q-115 0 -187.5 -79t-72.5 -201q0 -121 75 -197t187 -76z" />
    <glyph glyph-name="c" unicode="c" horiz-adv-x="1081" 
d="M606 -18q-238 0 -383 142.5t-145 373.5t146 374.5t378 143.5q128 0 239.5 -45.5t184.5 -134.5l-176 -166q-85 106 -229 106q-121 0 -196 -76.5t-75 -199.5q0 -124 75.5 -200.5t195.5 -76.5q147 0 235 109l174 -168q-148 -182 -424 -182z" />
    <glyph glyph-name="d" unicode="d" horiz-adv-x="1257" 
d="M557 -18q-209 0 -344 143t-135 373q0 226 135 372t338 146q193 0 297 -131h4v622h272v-1507h-256v123h-2q-110 -141 -309 -141zM606 223q112 0 187 76t75 197q0 122 -73.5 201t-188.5 79q-110 0 -183 -77t-73 -203q0 -120 71.5 -196.5t184.5 -76.5z" />
    <glyph glyph-name="e" unicode="e" horiz-adv-x="1142" 
d="M1065 524q0 -74 -6 -110h-703q23 -93 93 -145t172 -52q154 0 245 113l174 -158q-146 -190 -438 -190q-232 0 -378 143.5t-146 376.5q0 228 142 371t366 143q210 0 344.5 -140.5t134.5 -351.5zM584 788q-188 0 -228 -180h447q-38 180 -219 180z" />
    <glyph glyph-name="f" unicode="f" horiz-adv-x="835" 
d="M471 0h-268v750h-162v249h162v248l268 260h324v-260h-324v-248h324v-249h-324v-750z" />
    <glyph glyph-name="g" unicode="g" horiz-adv-x="1247" 
d="M1114 -147l-266 -256h-612v249h612v287h-4q-109 -115 -289 -115q-207 0 -342 137.5t-135 354.5q0 220 131.5 363t331.5 143q179 0 301 -119h4v102h268v-1146zM604 260q110 0 181 73t71 187q0 113 -71.5 183.5t-180.5 70.5q-113 0 -183.5 -71t-70.5 -185q0 -116 72 -187
t182 -71z" />
    <glyph glyph-name="h" unicode="h" horiz-adv-x="1214" 
d="M406 739v-739h-273v1507h273v-508h417l269 -260v-739h-273v739h-413z" />
    <glyph glyph-name="i" unicode="i" horiz-adv-x="538" 
d="M270 1137q-73 0 -121.5 48t-48.5 118q0 68 48.5 115.5t121.5 47.5q72 0 121 -47.5t49 -115.5q0 -69 -49 -117.5t-121 -48.5zM406 0h-273v999h273v-999z" />
    <glyph glyph-name="j" unicode="j" horiz-adv-x="524" 
d="M291 1137q-73 0 -121.5 48t-48.5 118q0 68 48.5 115.5t121.5 47.5q72 0 121 -47.5t49 -115.5q0 -69 -49 -117.5t-121 -48.5zM426 999v-1142l-272 -260h-199v260h199v1142h272z" />
    <glyph glyph-name="k" unicode="k" horiz-adv-x="1124" 
d="M406 0h-273v1507h273v-925h4l356 417h315l-350 -399l373 -600h-301l-262 420l-135 -148v-272z" />
    <glyph glyph-name="l" unicode="l" horiz-adv-x="538" 
d="M406 0h-273v1507h273v-1507z" />
    <glyph glyph-name="m" unicode="m" horiz-adv-x="1826" 
d="M406 0h-273v999h1299l272 -256v-743h-272v743h-379v-743h-273v743h-374v-743z" />
    <glyph glyph-name="n" unicode="n" horiz-adv-x="1208" 
d="M395 0h-272v739l272 260h418l272 -260v-739h-272v739h-418v-739z" />
    <glyph glyph-name="o" unicode="o" horiz-adv-x="1218" 
d="M610 -18q-237 0 -384.5 146t-147.5 372t147.5 371t384.5 145q234 0 382.5 -143.5t148.5 -372.5q0 -228 -148.5 -373t-382.5 -145zM610 223q109 0 183.5 78t74.5 199q0 122 -73.5 199t-184.5 77q-116 0 -188 -78t-72 -198q0 -118 73 -197.5t187 -79.5z" />
    <glyph glyph-name="p" unicode="p" horiz-adv-x="1257" 
d="M406 -403h-273v1402h268v-112h5q111 129 301 129q204 0 338.5 -146t134.5 -372q0 -230 -135.5 -373t-346.5 -143q-185 0 -288 131l-4 -2v-514zM651 223q113 0 184.5 76.5t71.5 196.5q0 126 -74 203t-184 77q-115 0 -187.5 -79t-72.5 -201q0 -121 75 -197t187 -76z" />
    <glyph glyph-name="q" unicode="q" horiz-adv-x="1257" 
d="M1124 -403h-272v516h-2q-103 -131 -295 -131q-208 0 -342.5 143t-134.5 373q0 226 134.5 372t336.5 146q192 0 305 -131h2v114h268v-1402zM606 223q111 0 185.5 76t74.5 197q0 122 -72.5 201t-187.5 79q-110 0 -183 -77t-73 -203q0 -120 71 -196.5t185 -76.5z" />
    <glyph glyph-name="r" unicode="r" horiz-adv-x="782" 
d="M406 0h-273v999h598v-260h-325v-739z" />
    <glyph glyph-name="s" unicode="s" horiz-adv-x="919" 
d="M459 -18q-236 0 -406 147l129 186q123 -114 279 -114q57 0 89 22.5t32 59.5q0 30 -38 51.5t-143 56.5q-70 23 -119.5 48t-96 63t-70 92.5t-23.5 124.5q0 133 102.5 215t260.5 82q201 0 364 -125l-131 -199q-110 107 -239 107q-36 0 -65.5 -19t-29.5 -55q0 -29 35 -53.5
t113 -53.5q164 -61 220 -95q97 -59 117 -157q7 -33 7 -73q0 -139 -99 -225t-288 -86z" />
    <glyph glyph-name="t" unicode="t" horiz-adv-x="866" 
d="M795 260v-260h-324l-268 260v490h-162v249h162v355h268v-355h324v-249h-324v-490h324z" />
    <glyph glyph-name="u" unicode="u" horiz-adv-x="1167" 
d="M1055 999v-739l-273 -260h-397l-272 260v739h272v-739h397v739h273z" />
    <glyph glyph-name="v" unicode="v" horiz-adv-x="1077" 
d="M664 0h-250l-394 999h289l230 -669h2l229 669h287z" />
    <glyph glyph-name="w" unicode="w" horiz-adv-x="1742" 
d="M1610 999v-999h-1225l-272 256v743h272v-743h340v743h272v-743h340v743h273z" />
    <glyph glyph-name="x" unicode="x" horiz-adv-x="1077" 
d="M334 0h-293l336 528l-334 471h307l185 -286h4l186 286h305l-334 -475l340 -524h-295l-202 317h-4z" />
    <glyph glyph-name="y" unicode="y" horiz-adv-x="1187" 
d="M1055 -154l-262 -249h-586v249h581v179h-403l-272 254v720h272v-725h397v725h273v-1153z" />
    <glyph glyph-name="z" unicode="z" horiz-adv-x="993" 
d="M911 0h-823v221l451 537v6h-457v235h799v-221l-451 -538v-4h481v-236z" />
    <glyph glyph-name="braceleft" unicode="{" horiz-adv-x="729" 
d="M649 -301h-149q-102 0 -171 72t-69 188v379q0 27 -1 41.5t-5.5 36t-15.5 33t-29.5 24t-49 18t-71.5 5.5v200q49 2 83 13t51 24.5t26 37.5t10.5 40.5t1.5 44.5v385q0 110 66 185t174 75h149v-178h-45q-33 0 -58 -13t-37.5 -34.5t-18 -42t-5.5 -41.5v-375q0 -91 -26 -142.5
t-84 -74.5v-4q44 -17 64.5 -35.5t33 -62.5t12.5 -123v-355q0 -73 25 -108t94 -35h45v-178z" />
    <glyph glyph-name="bar" unicode="|" horiz-adv-x="645" 
d="M434 -236h-223v1745h223v-1745z" />
    <glyph glyph-name="braceright" unicode="}" horiz-adv-x="729" 
d="M229 -301h-149v178h45q69 0 94 35t25 108v355q0 79 12.5 123t33 62.5t64.5 35.5v4q-58 23 -84 74.5t-26 142.5v375q0 21 -5.5 41.5t-18 42t-37.5 34.5t-58 13h-45v178h149q108 0 174 -75t66 -185v-385q0 -28 1.5 -44.5t10.5 -40.5t26 -37.5t51 -24.5t83 -13v-200
q-41 0 -71.5 -5.5t-49 -18t-29.5 -24t-15.5 -33t-5.5 -36t-1 -41.5v-379q0 -116 -69 -188t-171 -72z" />
    <glyph glyph-name="asciitilde" unicode="~" horiz-adv-x="1161" 
d="M774 401q-41 0 -84 9.5t-65 18t-64 26.5q-76 39 -135 39q-84 0 -139 -95l-185 76q39 117 113.5 188.5t175.5 71.5q45 0 88.5 -9t65.5 -17.5t57 -24.5q73 -39 133 -39q85 0 139 92l183 -61q-37 -122 -112 -198.5t-171 -76.5z" />
    <glyph glyph-name="uni00A0" unicode="&#xa0;" horiz-adv-x="526" 
 />
    <glyph glyph-name="exclamdown" unicode="&#xa1;" horiz-adv-x="569" 
d="M287 1018q68 0 117 -48.5t49 -117.5q0 -67 -49 -115.5t-117 -48.5q-70 0 -120 48t-50 116q0 69 49.5 117.5t120.5 48.5zM141 -508l47 1030h201l45 -1030h-293z" />
    <glyph glyph-name="cent" unicode="&#xa2;" horiz-adv-x="1107" 
d="M858 436l184 -164q-58 -66 -145 -112t-197 -60v-198h-186v196q-194 26 -314 165.5t-120 344.5q0 204 119 342.5t315 167.5v195h186v-193q101 -14 189.5 -61t148.5 -123l-180 -156q-93 107 -235 107q-121 0 -197 -76.5t-76 -198.5t76 -200t197 -78q76 0 137 29t98 73z" />
    <glyph glyph-name="sterling" unicode="&#xa3;" horiz-adv-x="1155" 
d="M1102 0h-1016v256h137v375h-114v194h114v105q0 130 34.5 227t95 153.5t135 83.5t163.5 27q120 0 228.5 -52t181.5 -146l-143 -187q-47 59 -108 92t-120 33q-39 0 -69.5 -11t-57 -37.5t-41 -78t-14.5 -125.5v-84h315v-194h-311v-375h590v-256z" />
    <glyph glyph-name="currency" unicode="&#xa4;" horiz-adv-x="1042" 
d="M895 795q0 -111 -57 -199l161 -164l-118 -121l-164 164q-90 -55 -199 -55q-106 0 -196 55l-164 -162l-121 121l164 164q-56 86 -56 197q0 106 56 194l-164 166l121 121l164 -164q88 57 196 57q111 0 199 -57l164 166l120 -123l-163 -164q57 -88 57 -196zM518 606
q78 1 134.5 57.5t58.5 133.5q-2 78 -58.5 134t-134.5 56q-77 -2 -132.5 -57t-55.5 -131q0 -78 55.5 -134.5t132.5 -58.5z" />
    <glyph glyph-name="yen" unicode="&#xa5;" horiz-adv-x="1210" 
d="M868 1407h336l-362 -657h207v-168h-297v-115h297v-166h-297v-301h-293v301h-314v166h314v115h-314v168h226l-363 657h332l264 -537h2z" />
    <glyph glyph-name="brokenbar" unicode="&#xa6;" horiz-adv-x="645" 
d="M434 788h-223v721h223v-721zM434 -233h-223v720h223v-720z" />
    <glyph glyph-name="section" unicode="&#xa7;" horiz-adv-x="1120" 
d="M872 289q113 -89 113 -244q0 -164 -116.5 -261t-307.5 -97q-270 0 -461 194l158 191q69 -71 148.5 -107.5t150.5 -36.5q61 0 100 30.5t39 80.5q0 51 -38 79.5t-146 69.5q-57 22 -95 37.5t-85 37.5t-77.5 42t-62 47.5t-49.5 56.5t-29.5 65.5t-11.5 78.5q0 184 150 270
q-107 86 -107 234q0 154 109.5 253t294.5 99q109 0 226 -45t202 -117l-152 -188q-143 102 -262 102q-61 0 -96 -27.5t-35 -70.5q0 -45 36 -72t134 -67q192 -80 239 -105q117 -62 156 -142q27 -56 27 -134t-40 -144.5t-112 -109.5zM367 602q0 -54 47 -91.5t174 -84.5
q54 -21 71 -29q48 13 72.5 43.5t24.5 69.5q0 52 -45 86t-185 88q-53 21 -59 23q-49 -10 -74.5 -40t-25.5 -65z" />
    <glyph glyph-name="dieresis" unicode="&#xa8;" horiz-adv-x="1069" 
d="M319 1100q-70 0 -118.5 48t-48.5 116q0 66 48.5 113.5t118.5 47.5q72 0 121 -47.5t49 -115.5t-49 -115t-121 -47zM750 1100q-71 0 -119.5 48t-48.5 116q0 67 48.5 114t119.5 47q70 0 120 -47.5t50 -115.5q0 -67 -49.5 -114.5t-120.5 -47.5z" />
    <glyph glyph-name="copyright" unicode="&#xa9;" horiz-adv-x="1474" 
d="M735 -2q-133 0 -253.5 52.5t-207 140.5t-137.5 209t-51 253q0 131 51 251.5t137.5 209.5t207.5 142t255 53q180 0 329.5 -89.5t234.5 -240t85 -326.5t-85.5 -326.5t-235.5 -239.5t-330 -89zM735 170q132 0 242 65.5t172.5 176t62.5 241.5q0 201 -137 341.5t-338 140.5
q-202 0 -339.5 -142.5t-137.5 -343.5q0 -199 137 -339t338 -140zM750 313q-144 0 -241 88t-97 246q0 144 90.5 240t247.5 96q159 0 266 -127l-113 -96q-27 32 -68 54t-85 22q-76 0 -126.5 -51t-50.5 -138q0 -80 49 -132t128 -52q95 0 153 74l113 -99q-102 -125 -266 -125z
" />
    <glyph glyph-name="ordfeminine" unicode="&#xaa;" horiz-adv-x="835" 
d="M344 793q-130 0 -209.5 86.5t-79.5 226.5q0 137 78 224t201 87q116 0 198 -88h3v78h186v-602h-186v63h-5q-66 -75 -186 -75zM391 967q58 0 98.5 38.5t40.5 100.5q0 60 -39.5 99.5t-99.5 39.5q-61 0 -102 -39t-41 -100t40.5 -100t102.5 -39z" />
    <glyph glyph-name="guillemotleft" unicode="&#xab;" horiz-adv-x="1048" 
d="M328 506l245 -426h-260l-241 426l245 432h258zM750 506l243 -426h-258l-243 426l245 432h258z" />
    <glyph glyph-name="logicalnot" unicode="&#xac;" horiz-adv-x="1120" 
d="M1026 299h-233v332h-699v231h932v-563z" />
    <glyph glyph-name="registered" unicode="&#xae;" horiz-adv-x="1474" 
d="M737 1309q180 0 329.5 -89.5t234.5 -240t85 -326.5t-85.5 -326.5t-235.5 -239.5t-330 -89q-133 0 -253.5 52.5t-207 140.5t-137.5 209t-51 253q0 131 51 251.5t137.5 209.5t207.5 142t255 53zM735 170q132 0 242 65.5t172.5 176t62.5 241.5q0 201 -137 341.5t-338 140.5
q-202 0 -339.5 -142.5t-137.5 -343.5q0 -199 137 -339t338 -140zM993 762q0 -149 -123 -201l156 -235h-176l-137 215h-62v-215h-147v663h256q116 0 174.5 -62.5t58.5 -164.5zM729 852h-76v-176h72q53 0 82 23.5t29 64.5q0 38 -28 63t-79 25z" />
    <glyph glyph-name="macron" unicode="&#xaf;" horiz-adv-x="905" 
d="M766 1145h-625v215h625v-215z" />
    <glyph glyph-name="degree" unicode="&#xb0;" horiz-adv-x="786" 
d="M393 901q-120 0 -205.5 83.5t-85.5 201.5q0 116 87.5 201.5t203.5 85.5t203.5 -85.5t87.5 -203.5q0 -117 -85.5 -200t-205.5 -83zM393 1065q51 0 86 35t35 86t-35.5 87t-85.5 36q-51 0 -87 -36.5t-36 -86.5q0 -51 36 -86t87 -35z" />
    <glyph glyph-name="plusminus" unicode="&#xb1;" horiz-adv-x="1208" 
d="M723 362h-236v367h-368v234h368v368h236v-368h369v-234h-369v-367zM119 233h973v-233h-973v233z" />
    <glyph glyph-name="uni00B2" unicode="&#xb2;" horiz-adv-x="692" 
d="M641 893h-594l-4 141l262 262q59 58 85 96t26 76t-25 62t-65 24q-33 0 -69 -19t-62 -58l-158 114q43 70 122.5 115t182.5 45q121 0 207 -70.5t86 -187.5q0 -77 -31 -139t-121 -144l-135 -123l2 -4h291v-190z" />
    <glyph glyph-name="uni00B3" unicode="&#xb3;" horiz-adv-x="706" 
d="M354 879q-119 0 -207 56t-120 144l188 76q30 -92 123 -92q47 0 75.5 25t28.5 65q0 42 -32.5 67t-90.5 25h-57v156h72q44 0 71 22t27 56q0 37 -26 61.5t-68 24.5q-74 0 -102 -74l-177 94q30 72 106.5 119t174.5 47q126 0 209.5 -62t83.5 -169q0 -126 -105 -189v-4
q134 -62 134 -201q0 -114 -85.5 -180.5t-222.5 -66.5z" />
    <glyph glyph-name="acute" unicode="&#xb4;" horiz-adv-x="1021" 
d="M803 1399l-254 -301h-260l233 299z" />
    <glyph glyph-name="uni00B5" unicode="&#xb5;" horiz-adv-x="1183" 
d="M393 -406h-270v1407h270v-516q0 -262 193 -262q91 0 149 73t58 204v501h268v-1001h-246l-14 121h-4q-53 -66 -124 -102.5t-149 -36.5q-93 0 -147 51l-4 -4q20 -120 20 -228v-207z" />
    <glyph glyph-name="paragraph" unicode="&#xb6;" horiz-adv-x="1077" 
d="M940 -311h-160v1513h-129v-1202h-166v610q-185 12 -296 111t-111 268q0 175 119 280t329 105h414v-1685z" />
    <glyph glyph-name="periodcentered" unicode="&#xb7;" horiz-adv-x="563" 
d="M287 334q-71 0 -120.5 48.5t-49.5 117.5q0 68 50 116t120 48q68 0 117 -48.5t49 -115.5q0 -69 -49 -117.5t-117 -48.5z" />
    <glyph glyph-name="cedilla" unicode="&#xb8;" horiz-adv-x="759" 
d="M317 -391q-62 0 -124 12v121q44 -14 98 -14q40 0 69 13.5t29 43.5q0 28 -43.5 46.5t-118.5 18.5v76l41 86h148l-37 -71v-4q99 -3 150 -46t51 -120q0 -73 -66 -117.5t-197 -44.5z" />
    <glyph glyph-name="uni00B9" unicode="&#xb9;" horiz-adv-x="575" 
d="M469 893h-211v582l-129 -89l-102 162l278 189h164v-844z" />
    <glyph glyph-name="ordmasculine" unicode="&#xba;" horiz-adv-x="788" 
d="M383 793q-145 0 -236.5 87.5t-91.5 225.5q0 137 91.5 224t236.5 87q143 0 236.5 -87t93.5 -224q0 -138 -93 -225.5t-237 -87.5zM383 965q56 0 93.5 40t37.5 101t-37 101t-94 40q-58 0 -94.5 -39.5t-36.5 -101.5q0 -61 36.5 -101t94.5 -40z" />
    <glyph glyph-name="guillemotright" unicode="&#xbb;" horiz-adv-x="1048" 
d="M313 80h-258l244 426l-246 432h258l246 -432zM735 80h-260l246 426l-248 432h258l246 -432z" />
    <glyph glyph-name="onequarter" unicode="&#xbc;" horiz-adv-x="1669" 
d="M1266 1399l-645 -1448l-203 88l643 1448zM469 612h-211v582l-129 -88l-102 162l278 188h164v-844zM1520 0h-211v129h-342v127l387 588h166v-535h112v-180h-112v-129zM1327 530l-149 -235h149v235z" />
    <glyph glyph-name="onehalf" unicode="&#xbd;" horiz-adv-x="1736" 
d="M1266 1399l-645 -1448l-203 88l643 1448zM469 612h-211v582l-129 -88l-102 162l278 188h164v-844zM1686 0h-594l-5 141l263 262q59 57 84.5 95.5t25.5 76.5t-25 62.5t-65 24.5q-33 0 -69 -19t-62 -59l-158 114q43 70 122.5 115t182.5 45q121 0 207 -70.5t86 -187.5
q0 -78 -30.5 -139.5t-120.5 -143.5l-135 -122l2 -5h291v-190z" />
    <glyph glyph-name="threequarters" unicode="&#xbe;" horiz-adv-x="1738" 
d="M1335 1399l-645 -1448l-203 88l643 1448zM354 598q-119 0 -207 56.5t-120 144.5l188 75q30 -92 123 -92q47 0 75.5 25t28.5 65q0 42 -32.5 67.5t-90.5 25.5h-57v155h72q44 0 71 22t27 56q0 37 -26 61.5t-68 24.5q-74 0 -102 -74l-177 95q30 72 106.5 118.5t174.5 46.5
q126 0 209.5 -62t83.5 -169q0 -125 -105 -188v-4q134 -62 134 -201q0 -114 -85.5 -181t-222.5 -67zM1589 0h-211v129h-342v127l387 588h166v-535h113v-180h-113v-129zM1397 530l-150 -235h150v235z" />
    <glyph glyph-name="questiondown" unicode="&#xbf;" horiz-adv-x="915" 
d="M547 1018q71 0 120.5 -48.5t49.5 -117.5q0 -68 -50 -116t-120 -48q-68 0 -117 48.5t-49 115.5q0 69 49 117.5t117 48.5zM434 526h238v-102q1 -43 -11.5 -82t-38 -75.5t-48 -62t-59.5 -62.5l-17 -17q-42 -47 -64 -74t-43.5 -73t-21.5 -89q0 -75 44 -117t117 -42
q58 0 113 29.5t92 80.5l195 -178q-71 -87 -182.5 -137.5t-237.5 -50.5q-87 0 -164.5 25t-138 73.5t-96 126t-35.5 174.5q0 108 48.5 190.5t133.5 163.5q13 12 47 43.5t48 45.5t34.5 37.5t29 43.5t9.5 41z" />
    <glyph glyph-name="Agrave" unicode="&#xc0;" horiz-adv-x="1423" 
d="M631 1851l227 -276h-256l-258 276h287zM334 0h-301l538 1454h279l541 -1454h-301l-101 291h-557zM709 1106l-195 -569h393l-194 569h-4z" />
    <glyph glyph-name="Aacute" unicode="&#xc1;" horiz-adv-x="1423" 
d="M1100 1851l-258 -276h-254l227 276h285zM334 0h-301l538 1454h279l541 -1454h-301l-101 291h-557zM709 1106l-195 -569h393l-194 569h-4z" />
    <glyph glyph-name="Acircumflex" unicode="&#xc2;" horiz-adv-x="1423" 
d="M707 1714l-107 -139h-246l213 276h285l213 -276h-248l-106 139h-4zM334 0h-301l538 1454h279l541 -1454h-301l-101 291h-557zM709 1106l-195 -569h393l-194 569h-4z" />
    <glyph glyph-name="Atilde" unicode="&#xc3;" horiz-adv-x="1423" 
d="M877 1575q-78 0 -175 57q-81 45 -122 45q-66 0 -109 -100l-160 65q35 99 97.5 160.5t148.5 61.5q92 0 182 -58q30 -17 41 -22.5t33 -13t41 -7.5q64 0 107 101l157 -52q-35 -113 -96 -175t-145 -62zM334 0h-301l538 1454h279l541 -1454h-301l-101 291h-557zM709 1106
l-195 -569h393l-194 569h-4z" />
    <glyph glyph-name="Adieresis" unicode="&#xc4;" horiz-adv-x="1423" 
d="M494 1571q-70 0 -119 48t-49 116q0 66 49 113.5t119 47.5q72 0 121 -47.5t49 -115.5t-49 -115t-121 -47zM924 1571q-71 0 -119.5 48t-48.5 116q0 67 48.5 114t119.5 47q70 0 120 -47.5t50 -115.5q0 -67 -49.5 -114.5t-120.5 -47.5zM334 0h-301l538 1454h279l541 -1454
h-301l-101 291h-557zM709 1106l-195 -569h393l-194 569h-4z" />
    <glyph glyph-name="Aring" unicode="&#xc5;" horiz-adv-x="1423" 
d="M711 1528q-92 0 -158 61.5t-66 153.5q0 91 63.5 154t160.5 63q93 0 158 -62t65 -155q0 -90 -62.5 -152.5t-160.5 -62.5zM711 1669q32 0 53.5 22.5t21.5 55.5q0 31 -21.5 52.5t-53.5 21.5t-54 -22.5t-22 -53.5q0 -32 22 -54t54 -22zM334 0h-301l538 1454h279l541 -1454
h-301l-101 291h-557zM709 1106l-195 -569h393l-194 569h-4z" />
    <glyph glyph-name="AE" unicode="&#xc6;" horiz-adv-x="1947" 
d="M313 0h-299l697 1454h1099v-256h-647v-348h529v-254h-529v-340h690v-256h-972v291h-430zM883 1212l-322 -682h326v682h-4z" />
    <glyph glyph-name="Ccedilla" unicode="&#xc7;" horiz-adv-x="1478" 
d="M854 -14l-23 -45v-4q99 -3 150 -46t51 -120q0 -73 -65.5 -117.5t-196.5 -44.5q-63 0 -125 12v121q44 -14 98 -14q40 0 69.5 14t29.5 43q0 28 -43.5 46.5t-118.5 18.5v76l33 68q-131 19 -242 75.5t-195 146.5t-131 220t-47 287t50 293t142 238t233 160.5t313 58.5
q162 0 313.5 -71t265.5 -210l-213 -178q-150 184 -366 184q-190 0 -313.5 -130t-123.5 -345q0 -203 123.5 -334t317.5 -131q110 0 203.5 49t162.5 135l211 -182q-98 -123 -241 -197t-322 -77z" />
    <glyph glyph-name="Egrave" unicode="&#xc8;" horiz-adv-x="1224" 
d="M348 1849h287l227 -276h-256zM1130 0h-972v1454h929v-256h-645v-350h516v-252h-516v-340h688v-256z" />
    <glyph glyph-name="Eacute" unicode="&#xc9;" horiz-adv-x="1224" 
d="M645 1849h285l-258 -276h-254zM1130 0h-972v1454h929v-256h-645v-350h516v-252h-516v-340h688v-256z" />
    <glyph glyph-name="Ecircumflex" unicode="&#xca;" horiz-adv-x="1224" 
d="M637 1712h-4l-107 -139h-245l213 276h284l213 -276h-248zM1130 0h-972v1454h929v-256h-645v-350h516v-252h-516v-340h688v-256z" />
    <glyph glyph-name="Edieresis" unicode="&#xcb;" horiz-adv-x="1224" 
d="M420 1569q-70 0 -119 48t-49 116q0 66 49 113.5t119 47.5q72 0 121 -47.5t49 -115.5t-49 -115t-121 -47zM850 1569q-71 0 -119.5 48t-48.5 116q0 67 48.5 114t119.5 47q70 0 120 -47.5t50 -115.5q0 -67 -49.5 -114.5t-120.5 -47.5zM1130 0h-972v1454h929v-256h-645v-350
h516v-252h-516v-340h688v-256z" />
    <glyph glyph-name="Igrave" unicode="&#xcc;" horiz-adv-x="624" 
d="M-63 1851h286l228 -276h-256zM166 1454h293v-1454h-293v1454z" />
    <glyph glyph-name="Iacute" unicode="&#xcd;" horiz-adv-x="624" 
d="M406 1851h284l-258 -276h-254zM459 0h-293v1454h293v-1454z" />
    <glyph glyph-name="Icircumflex" unicode="&#xce;" horiz-adv-x="624" 
d="M311 1712h-4l-106 -139h-246l213 276h285l213 -276h-248zM459 0h-293v1454h293v-1454z" />
    <glyph glyph-name="Idieresis" unicode="&#xcf;" horiz-adv-x="624" 
d="M94 1569q-70 0 -119 48t-49 116q0 66 49 113.5t119 47.5q72 0 121 -47.5t49 -115.5t-49 -115t-121 -47zM524 1569q-71 0 -119.5 48t-48.5 116q0 67 48.5 114t119.5 47q70 0 120 -47.5t50 -115.5q0 -67 -49.5 -114.5t-120.5 -47.5zM459 1454v-1454h-293v1454h293z" />
    <glyph glyph-name="Eth" unicode="&#xd0;" horiz-adv-x="1490" 
d="M158 1454h481q170 0 312 -53.5t239.5 -149.5t151 -231t53.5 -295t-52 -294t-147.5 -229.5t-237 -148.5t-313.5 -53h-487v596h-111v229h111v629zM442 256h185q209 0 338 133t129 336q0 205 -127 339t-324 134h-201v-373h316v-229h-316v-340z" />
    <glyph glyph-name="Ntilde" unicode="&#xd1;" horiz-adv-x="1540" 
d="M938 1575q-77 0 -174 57q-81 45 -123 45q-66 0 -109 -100l-159 65q35 100 97 161t148 61q93 0 183 -58q2 -1 11.5 -6.5t12 -7t11 -6t11.5 -6t10.5 -4.5t11.5 -4.5t11 -3.5t12 -3t11 -1.5t12 -0.5q64 0 107 101l158 -52q-35 -113 -96.5 -175t-145.5 -62zM444 0h-286v1454
h282l654 -981h4v981h284v-1454h-288l-645 961h-5v-961z" />
    <glyph glyph-name="Ograve" unicode="&#xd2;" horiz-adv-x="1677" 
d="M743 1575l-258 276h287l227 -276h-256zM840 -18q-217 0 -386.5 96t-262.5 265.5t-93 383.5t93 384t262.5 266t386.5 96q158 0 295 -54.5t234.5 -151.5t153.5 -236.5t56 -303.5q0 -217 -95.5 -387.5t-264 -264t-379.5 -93.5zM840 252q188 0 313 135t125 340t-125 340
t-313 135q-128 0 -230 -63.5t-157.5 -172t-55.5 -239.5t55.5 -239.5t157.5 -172t230 -63.5z" />
    <glyph glyph-name="Oacute" unicode="&#xd3;" horiz-adv-x="1677" 
d="M1208 1851l-258 -276h-254l228 276h284zM840 -18q-217 0 -386.5 96t-262.5 265.5t-93 383.5t93 384t262.5 266t386.5 96q158 0 295 -54.5t234.5 -151.5t153.5 -236.5t56 -303.5q0 -217 -95.5 -387.5t-264 -264t-379.5 -93.5zM840 252q188 0 313 135t125 340t-125 340
t-313 135q-128 0 -230 -63.5t-157.5 -172t-55.5 -239.5t55.5 -239.5t157.5 -172t230 -63.5z" />
    <glyph glyph-name="Ocircumflex" unicode="&#xd4;" horiz-adv-x="1677" 
d="M948 1575l-106 139h-4l-107 -139h-246l213 276h285l213 -276h-248zM840 -18q-217 0 -386.5 96t-262.5 265.5t-93 383.5t93 384t262.5 266t386.5 96q158 0 295 -54.5t234.5 -151.5t153.5 -236.5t56 -303.5q0 -217 -95.5 -387.5t-264 -264t-379.5 -93.5zM840 252
q188 0 313 135t125 340t-125 340t-313 135q-128 0 -230 -63.5t-157.5 -172t-55.5 -239.5t55.5 -239.5t157.5 -172t230 -63.5z" />
    <glyph glyph-name="Otilde" unicode="&#xd5;" horiz-adv-x="1677" 
d="M1008 1575q-77 0 -174 57q-81 45 -123 45q-66 0 -109 -100l-160 65q35 99 97.5 160.5t148.5 61.5q92 0 182 -58q30 -17 41 -22.5t33 -13t41 -7.5q64 0 107 101l157 -52q-35 -113 -96 -175t-145 -62zM840 -18q-217 0 -386.5 96t-262.5 265.5t-93 383.5t93 384t262.5 266
t386.5 96q158 0 295 -54.5t234.5 -151.5t153.5 -236.5t56 -303.5q0 -217 -95.5 -387.5t-264 -264t-379.5 -93.5zM840 252q188 0 313 135t125 340t-125 340t-313 135q-128 0 -230 -63.5t-157.5 -172t-55.5 -239.5t55.5 -239.5t157.5 -172t230 -63.5z" />
    <glyph glyph-name="Odieresis" unicode="&#xd6;" horiz-adv-x="1677" 
d="M625 1571q-70 0 -119 48t-49 116q0 66 49 113.5t119 47.5q72 0 121 -47.5t49 -115.5t-49 -115t-121 -47zM1055 1571q-71 0 -119.5 48t-48.5 116q0 67 48.5 114t119.5 47q70 0 120 -47.5t50 -115.5q0 -67 -49.5 -114.5t-120.5 -47.5zM840 -18q-217 0 -386.5 96
t-262.5 265.5t-93 383.5t93 384t262.5 266t386.5 96q158 0 295 -54.5t234.5 -151.5t153.5 -236.5t56 -303.5q0 -217 -95.5 -387.5t-264 -264t-379.5 -93.5zM840 252q188 0 313 135t125 340t-125 340t-313 135q-128 0 -230 -63.5t-157.5 -172t-55.5 -239.5t55.5 -239.5
t157.5 -172t230 -63.5z" />
    <glyph glyph-name="multiply" unicode="&#xd7;" horiz-adv-x="1073" 
d="M537 403l-279 -278l-166 164l281 278l-281 281l164 164l279 -281l280 281l166 -164l-281 -283l281 -278l-164 -162z" />
    <glyph glyph-name="Oslash" unicode="&#xd8;" horiz-adv-x="1677" 
d="M1411 1534l168 -141l-162 -181q162 -202 162 -485q0 -217 -95.5 -387.5t-264 -264t-379.5 -93.5q-238 0 -418 114l-152 -170l-164 146l152 170q-160 202 -160 485q0 214 93 384t262.5 266t386.5 96q234 0 413 -115zM397 727q0 -142 66 -256l598 672q-100 59 -221 59
q-128 0 -230 -63.5t-157.5 -172t-55.5 -239.5zM1278 727q0 144 -64 256l-600 -670q103 -61 226 -61q188 0 313 135t125 340z" />
    <glyph glyph-name="Ugrave" unicode="&#xd9;" horiz-adv-x="1456" 
d="M881 1575h-256l-258 276h286zM727 -18q-267 0 -427.5 163.5t-160.5 456.5v852h289v-833q0 -162 79 -265.5t220 -103.5q134 0 218.5 99.5t84.5 269.5v833h289v-852q0 -286 -157 -453t-435 -167z" />
    <glyph glyph-name="Uacute" unicode="&#xda;" horiz-adv-x="1456" 
d="M819 1575h-254l228 276h284zM727 -18q-267 0 -427.5 163.5t-160.5 456.5v852h289v-833q0 -162 79 -265.5t220 -103.5q134 0 218.5 99.5t84.5 269.5v833h289v-852q0 -286 -157 -453t-435 -167z" />
    <glyph glyph-name="Ucircumflex" unicode="&#xdb;" horiz-adv-x="1456" 
d="M1081 1575h-247l-107 139h-4l-107 -139h-245l213 276h284zM727 -18q-267 0 -427.5 163.5t-160.5 456.5v852h289v-833q0 -162 79 -265.5t220 -103.5q134 0 218.5 99.5t84.5 269.5v833h289v-852q0 -286 -157 -453t-435 -167z" />
    <glyph glyph-name="Udieresis" unicode="&#xdc;" horiz-adv-x="1456" 
d="M510 1571q-70 0 -119 48t-49 116q0 66 49 113.5t119 47.5q72 0 121 -47.5t49 -115.5t-49 -115t-121 -47zM940 1571q-71 0 -119.5 48t-48.5 116q0 67 48.5 114t119.5 47q70 0 120 -47.5t50 -115.5q0 -67 -49.5 -114.5t-120.5 -47.5zM727 -18q-267 0 -427.5 163.5
t-160.5 456.5v852h289v-833q0 -162 79 -265.5t220 -103.5q134 0 218.5 99.5t84.5 269.5v833h289v-852q0 -286 -157 -453t-435 -167z" />
    <glyph glyph-name="Yacute" unicode="&#xdd;" horiz-adv-x="1288" 
d="M719 1851h285l-259 -276h-253zM788 0h-290v639l-482 815h330l297 -528h4l291 528h334l-484 -815v-639z" />
    <glyph glyph-name="Thorn" unicode="&#xde;" horiz-adv-x="1318" 
d="M442 0h-284v1454h284v-258h297q253 0 378.5 -131.5t125.5 -351.5q0 -229 -143 -348t-389 -119h-269v-246zM442 942v-442h238q131 0 197.5 59t66.5 160q0 104 -64 163.5t-188 59.5h-250z" />
    <glyph glyph-name="germandbls" unicode="&#xdf;" horiz-adv-x="1312" 
d="M774 -18h-196v239h131q112 0 183 68.5t71 173.5q0 108 -75 181t-202 73h-82v225h70q50 0 88.5 13t61 33t37 45t19.5 46.5t5 40.5q0 71 -57.5 120.5t-163.5 49.5q-127 0 -192.5 -66.5t-65.5 -217.5v-1006h-273v993q0 266 136 399.5t388 133.5q119 0 213.5 -30.5t154 -83
t91 -120.5t31.5 -145q0 -80 -36.5 -155t-121.5 -126v-4q115 -54 180.5 -163.5t65.5 -243.5q0 -216 -126.5 -344.5t-334.5 -128.5z" />
    <glyph glyph-name="agrave" unicode="&#xe0;" horiz-adv-x="1249" 
d="M571 1427l222 -297h-254l-254 300zM555 -18q-208 0 -342.5 143t-134.5 373q0 226 134.5 372t336.5 146q185 0 295 -131l4 2v112h268v-999h-256v119l-4 2q-108 -139 -301 -139zM606 223q106 0 180 76.5t74 196.5q0 121 -73 200.5t-181 79.5q-111 0 -183.5 -76.5
t-72.5 -203.5q0 -120 71 -196.5t185 -76.5z" />
    <glyph glyph-name="aacute" unicode="&#xe1;" horiz-adv-x="1249" 
d="M965 1436l-254 -301h-260l233 299zM555 -18q-208 0 -342.5 143t-134.5 373q0 226 134.5 372t336.5 146q185 0 295 -131l4 2v112h268v-999h-256v119l-4 2q-108 -139 -301 -139zM606 223q106 0 180 76.5t74 196.5q0 121 -73 200.5t-181 79.5q-111 0 -183.5 -76.5
t-72.5 -203.5q0 -120 71 -196.5t185 -76.5z" />
    <glyph glyph-name="acircumflex" unicode="&#xe2;" horiz-adv-x="1249" 
d="M616 1282l-102 -154h-248l211 302h285l207 -302h-246l-102 154h-5zM555 -18q-208 0 -342.5 143t-134.5 373q0 226 134.5 372t336.5 146q185 0 295 -131l4 2v112h268v-999h-256v119l-4 2q-108 -139 -301 -139zM606 223q106 0 180 76.5t74 196.5q0 121 -73 200.5t-181 79.5
q-111 0 -183.5 -76.5t-72.5 -203.5q0 -120 71 -196.5t185 -76.5z" />
    <glyph glyph-name="atilde" unicode="&#xe3;" horiz-adv-x="1249" 
d="M786 1128q-82 0 -180 62q-69 43 -110 43q-71 0 -117 -103l-160 68q34 109 96.5 173.5t149.5 64.5q39 0 74.5 -9.5t54.5 -19.5t47 -27q3 -2 8 -5q67 -42 105 -42q68 0 114 103l158 -54q-32 -116 -94.5 -185t-145.5 -69zM555 -18q-208 0 -342.5 143t-134.5 373
q0 226 134.5 372t336.5 146q185 0 295 -131l4 2v112h268v-999h-256v119l-4 2q-108 -139 -301 -139zM606 223q106 0 180 76.5t74 196.5q0 121 -73 200.5t-181 79.5q-111 0 -183.5 -76.5t-72.5 -203.5q0 -120 71 -196.5t185 -76.5z" />
    <glyph glyph-name="adieresis" unicode="&#xe4;" horiz-adv-x="1249" 
d="M401 1141q-70 0 -119 48t-49 116q0 66 49 113.5t119 47.5q72 0 121 -47.5t49 -115.5t-49 -115t-121 -47zM831 1141q-71 0 -119 48t-48 116q0 67 48 114t119 47q70 0 120 -47.5t50 -115.5q0 -67 -49.5 -114.5t-120.5 -47.5zM555 -18q-208 0 -342.5 143t-134.5 373
q0 226 134.5 372t336.5 146q185 0 295 -131l4 2v112h268v-999h-256v119l-4 2q-108 -139 -301 -139zM606 223q106 0 180 76.5t74 196.5q0 121 -73 200.5t-181 79.5q-111 0 -183.5 -76.5t-72.5 -203.5q0 -120 71 -196.5t185 -76.5z" />
    <glyph glyph-name="aring" unicode="&#xe5;" horiz-adv-x="1249" 
d="M618 1104q-92 0 -157.5 61.5t-65.5 153.5q0 91 63 154t160 63q93 0 158.5 -62t65.5 -155q0 -90 -63 -152.5t-161 -62.5zM618 1245q32 0 54 23t22 55q0 31 -22 52.5t-54 21.5t-53.5 -22.5t-21.5 -53.5q0 -32 21.5 -54t53.5 -22zM555 -18q-208 0 -342.5 143t-134.5 373
q0 226 134.5 372t336.5 146q185 0 295 -131l4 2v112h268v-999h-256v119l-4 2q-108 -139 -301 -139zM606 223q106 0 180 76.5t74 196.5q0 121 -73 200.5t-181 79.5q-111 0 -183.5 -76.5t-72.5 -203.5q0 -120 71 -196.5t185 -76.5z" />
    <glyph glyph-name="ae" unicode="&#xe6;" horiz-adv-x="1712" 
d="M1642 510q0 -70 -8 -98h-696q24 -85 97.5 -139t172.5 -54q74 0 134 32t98 83l178 -164q-65 -87 -169.5 -137.5t-244.5 -50.5q-117 0 -218 37t-165 110h-6q-56 -64 -157.5 -105.5t-227.5 -41.5q-185 0 -277 85.5t-92 225.5q0 149 100.5 233t299.5 84h213v8q0 93 -45 131.5
t-135 38.5q-140 0 -275 -69l-98 203q64 36 169 65t230 29q216 0 301 -137h2q128 137 355 137q214 0 339 -141t125 -365zM1165 780q-82 0 -143.5 -47.5t-83.5 -126.5h438q-19 79 -74.5 126.5t-136.5 47.5zM467 201q81 0 144 47.5t63 93.5v86l-185 -2q-80 0 -123.5 -29
t-43.5 -84q0 -49 39 -80.5t106 -31.5z" />
    <glyph glyph-name="ccedilla" unicode="&#xe7;" horiz-adv-x="1081" 
d="M623 -18l-21 -41v-4q99 -3 150 -46t51 -120q0 -73 -65.5 -117.5t-196.5 -44.5q-63 0 -125 12v121q44 -14 98 -14q40 0 69 13.5t29 43.5q0 29 -43 47t-118 18v76l30 68q-186 35 -294.5 170t-108.5 334q0 231 146 374.5t378 143.5q128 0 239.5 -45.5t184.5 -134.5
l-176 -166q-85 106 -229 106q-121 0 -196 -76.5t-75 -199.5q0 -124 75.5 -200.5t195.5 -76.5q147 0 235 109l174 -168q-143 -177 -407 -182z" />
    <glyph glyph-name="egrave" unicode="&#xe8;" horiz-adv-x="1142" 
d="M541 1427l221 -297h-254l-254 300zM1065 524q0 -74 -6 -110h-703q23 -93 93 -145t172 -52q154 0 245 113l174 -158q-146 -190 -438 -190q-232 0 -378 143.5t-146 376.5q0 228 142 371t366 143q210 0 344.5 -140.5t134.5 -351.5zM584 788q-188 0 -228 -180h447
q-38 180 -219 180z" />
    <glyph glyph-name="eacute" unicode="&#xe9;" horiz-adv-x="1142" 
d="M680 1434l281 2l-254 -301h-261zM1065 524q0 -74 -6 -110h-703q23 -93 93 -145t172 -52q154 0 245 113l174 -158q-146 -190 -438 -190q-232 0 -378 143.5t-146 376.5q0 228 142 371t366 143q210 0 344.5 -140.5t134.5 -351.5zM584 788q-188 0 -228 -180h447
q-38 180 -219 180z" />
    <glyph glyph-name="ecircumflex" unicode="&#xea;" horiz-adv-x="1142" 
d="M590 1282h-4l-103 -154h-247l210 302h285l207 -302h-246zM1065 524q0 -74 -6 -110h-703q23 -93 93 -145t172 -52q154 0 245 113l174 -158q-146 -190 -438 -190q-232 0 -378 143.5t-146 376.5q0 228 142 371t366 143q210 0 344.5 -140.5t134.5 -351.5zM584 788
q-188 0 -228 -180h447q-38 180 -219 180z" />
    <glyph glyph-name="edieresis" unicode="&#xeb;" horiz-adv-x="1142" 
d="M371 1141q-70 0 -119 48t-49 116q0 66 49 113.5t119 47.5q72 0 121 -47.5t49 -115.5t-49 -115t-121 -47zM801 1141q-71 0 -119.5 48t-48.5 116q0 67 48.5 114t119.5 47q70 0 120 -47.5t50 -115.5q0 -67 -49.5 -114.5t-120.5 -47.5zM1065 524q0 -74 -6 -110h-703
q23 -93 93 -145t172 -52q154 0 245 113l174 -158q-146 -190 -438 -190q-232 0 -378 143.5t-146 376.5q0 228 142 371t366 143q210 0 344.5 -140.5t134.5 -351.5zM584 788q-188 0 -228 -180h447q-38 180 -219 180z" />
    <glyph glyph-name="igrave" unicode="&#xec;" horiz-adv-x="538" 
d="M250 1440l156 -299h-261l-178 301zM406 0h-273v999h273v-999z" />
    <glyph glyph-name="iacute" unicode="&#xed;" horiz-adv-x="538" 
d="M414 1135h-260l233 299l281 2zM406 0h-273v999h273v-999z" />
    <glyph glyph-name="icircumflex" unicode="&#xee;" horiz-adv-x="538" 
d="M375 1128l-103 154h-4l-102 -154h-248l211 302h285l207 -302h-246zM406 0h-273v999h273v-999z" />
    <glyph glyph-name="idieresis" unicode="&#xef;" horiz-adv-x="538" 
d="M80 1137q-71 0 -120.5 49t-49.5 117t49.5 116.5t120.5 48.5q68 0 117 -49t49 -116t-49 -116.5t-117 -49.5zM463 1141q-69 0 -117.5 48t-48.5 114t48.5 114.5t117.5 48.5q67 0 116.5 -48.5t49.5 -114.5t-49 -114t-117 -48zM406 0h-273v999h273v-999z" />
    <glyph glyph-name="eth" unicode="&#xf0;" horiz-adv-x="1208" 
d="M915 1126q215 -264 215 -577q0 -284 -142.5 -424.5t-387.5 -140.5q-225 0 -373.5 139t-148.5 352q0 113 36.5 208.5t98.5 159t146 99t178 35.5q143 0 256 -84l2 2q-24 39 -68 94q-169 200 -485 342l112 187q153 -56 297 -154l152 192l184 -139l-160 -196q37 -32 88 -95z
M600 223q113 0 185.5 76.5t72.5 194.5q0 113 -72 186.5t-184 73.5q-109 0 -181.5 -75.5t-72.5 -184.5q0 -117 72.5 -194t179.5 -77z" />
    <glyph glyph-name="ntilde" unicode="&#xf1;" horiz-adv-x="1208" 
d="M766 1128q-82 0 -180 62q-69 43 -111 43q-71 0 -117 -103l-159 68q34 109 96 173.5t149 64.5q56 0 95.5 -14.5t81.5 -41.5q3 -2 12 -7.5t12.5 -7.5t11.5 -7t12.5 -7t12 -5.5t13 -5.5t12 -4t13 -2.5t13.5 -0.5q69 0 115 103l158 -54q-32 -116 -94.5 -185t-145.5 -69z
M395 0h-272v739l272 260h418l272 -260v-739h-272v739h-418v-739z" />
    <glyph glyph-name="ograve" unicode="&#xf2;" horiz-adv-x="1218" 
d="M518 1130l-254 300l287 -3l221 -297h-254zM610 -18q-237 0 -384.5 146t-147.5 372t147.5 371t384.5 145q234 0 382.5 -143.5t148.5 -372.5q0 -228 -148.5 -373t-382.5 -145zM610 223q109 0 183.5 78t74.5 199q0 122 -73.5 199t-184.5 77q-116 0 -188 -78t-72 -198
q0 -118 73 -197.5t187 -79.5z" />
    <glyph glyph-name="oacute" unicode="&#xf3;" horiz-adv-x="1218" 
d="M989 1436l-254 -301h-260l234 299zM610 -18q-237 0 -384.5 146t-147.5 372t147.5 371t384.5 145q234 0 382.5 -143.5t148.5 -372.5q0 -228 -148.5 -373t-382.5 -145zM610 223q109 0 183.5 78t74.5 199q0 122 -73.5 199t-184.5 77q-116 0 -188 -78t-72 -198
q0 -118 73 -197.5t187 -79.5z" />
    <glyph glyph-name="ocircumflex" unicode="&#xf4;" horiz-adv-x="1218" 
d="M961 1128h-246l-103 154h-4l-102 -154h-248l211 302h285zM610 -18q-237 0 -384.5 146t-147.5 372t147.5 371t384.5 145q234 0 382.5 -143.5t148.5 -372.5q0 -228 -148.5 -373t-382.5 -145zM610 223q109 0 183.5 78t74.5 199q0 122 -73.5 199t-184.5 77q-116 0 -188 -78
t-72 -198q0 -118 73 -197.5t187 -79.5z" />
    <glyph glyph-name="otilde" unicode="&#xf5;" horiz-adv-x="1218" 
d="M778 1128q-82 0 -180 62q-69 43 -111 43q-70 0 -116 -103l-160 68q34 109 96.5 173.5t149.5 64.5q39 0 74.5 -9.5t54.5 -19.5t47 -27q3 -2 12 -7.5t12.5 -7.5t11.5 -7t12.5 -7t12 -5.5t13 -5.5t12 -4t13 -2.5t13.5 -0.5q69 0 115 103l158 -54q-32 -116 -94.5 -185
t-145.5 -69zM610 -18q-237 0 -384.5 146t-147.5 372t147.5 371t384.5 145q234 0 382.5 -143.5t148.5 -372.5q0 -228 -148.5 -373t-382.5 -145zM610 223q109 0 183.5 78t74.5 199q0 122 -73.5 199t-184.5 77q-116 0 -188 -78t-72 -198q0 -118 73 -197.5t187 -79.5z" />
    <glyph glyph-name="odieresis" unicode="&#xf6;" horiz-adv-x="1218" 
d="M393 1141q-70 0 -119 48t-49 116q0 66 49 113.5t119 47.5q72 0 121 -47.5t49 -115.5t-49 -115t-121 -47zM823 1141q-71 0 -119.5 48t-48.5 116q0 67 48.5 114t119.5 47q70 0 120 -47.5t50 -115.5q0 -67 -49.5 -114.5t-120.5 -47.5zM610 -18q-237 0 -384.5 146t-147.5 372
t147.5 371t384.5 145q234 0 382.5 -143.5t148.5 -372.5q0 -228 -148.5 -373t-382.5 -145zM610 223q109 0 183.5 78t74.5 199q0 122 -73.5 199t-184.5 77q-116 0 -188 -78t-72 -198q0 -118 73 -197.5t187 -79.5z" />
    <glyph glyph-name="divide" unicode="&#xf7;" horiz-adv-x="1161" 
d="M588 805q-71 0 -118.5 47.5t-47.5 114.5t47.5 113t118.5 46q70 0 118 -46.5t48 -112.5q0 -67 -48 -114.5t-118 -47.5zM106 684h973v-233h-973v233zM588 -12q-71 0 -118.5 47.5t-47.5 114.5t47.5 113t118.5 46q70 0 118 -46.5t48 -112.5q0 -67 -48 -114.5t-118 -47.5z" />
    <glyph glyph-name="oslash" unicode="&#xf8;" horiz-adv-x="1218" 
d="M1004 1063l137 -131l-103 -111q103 -134 103 -321q0 -228 -148.5 -373t-382.5 -145q-161 0 -284 69l-109 -117l-139 129l104 113q-104 132 -104 324q0 226 147.5 371t384.5 145q161 0 285 -70zM350 500q0 -58 23 -119l344 373q-49 22 -107 22q-116 0 -188 -78t-72 -198z
M868 500q0 59 -20 114l-344 -368q54 -23 106 -23q109 0 183.5 78t74.5 199z" />
    <glyph glyph-name="ugrave" unicode="&#xf9;" horiz-adv-x="1167" 
d="M500 1130l-254 300l286 -3l222 -297h-254zM1055 260l-273 -260h-397l-272 260v739h272v-739h397v739h273v-739z" />
    <glyph glyph-name="uacute" unicode="&#xfa;" horiz-adv-x="1167" 
d="M682 1434l281 2l-254 -301h-260zM782 0h-397l-272 260v739h272v-739h397v739h273v-739z" />
    <glyph glyph-name="ucircumflex" unicode="&#xfb;" horiz-adv-x="1167" 
d="M934 1128h-246l-102 154h-4l-103 -154h-248l211 302h285zM782 0h-397l-272 260v739h272v-739h397v739h273v-739z" />
    <glyph glyph-name="udieresis" unicode="&#xfc;" horiz-adv-x="1167" 
d="M367 1141q-70 0 -119 48t-49 116q0 66 49 113.5t119 47.5q72 0 121 -47.5t49 -115.5t-49 -115t-121 -47zM797 1141q-71 0 -119.5 48t-48.5 116q0 67 48.5 114t119.5 47q70 0 120 -47.5t50 -115.5q0 -67 -49.5 -114.5t-120.5 -47.5zM1055 260l-273 -260h-397l-272 260v739
h272v-739h397v739h273v-739z" />
    <glyph glyph-name="yacute" unicode="&#xfd;" horiz-adv-x="1187" 
d="M616 1434l281 2l-254 -301h-260zM793 -403h-586v249h581v179h-403l-272 254v720h272v-725h397v725h273v-1153z" />
    <glyph glyph-name="thorn" unicode="&#xfe;" horiz-adv-x="1257" 
d="M406 -406h-273v1913h273v-618h4q106 127 297 127q204 0 338.5 -146t134.5 -372q0 -230 -135.5 -373t-346.5 -143q-189 0 -288 129l-4 -2v-515zM651 223q113 0 184.5 76.5t71.5 196.5q0 126 -74 203t-184 77q-115 0 -187.5 -79t-72.5 -201q0 -121 75 -197t187 -76z" />
    <glyph glyph-name="ydieresis" unicode="&#xff;" horiz-adv-x="1187" 
d="M367 1141q-70 0 -119 48t-49 116q0 66 49 113.5t119 47.5q72 0 121 -47.5t49 -115.5t-49 -115t-121 -47zM797 1141q-71 0 -119.5 48t-48.5 116q0 67 48.5 114t119.5 47q70 0 120 -47.5t50 -115.5q0 -67 -49.5 -114.5t-120.5 -47.5zM1055 -154l-262 -249h-586v249h581v179
h-403l-272 254v720h272v-725h397v725h273v-1153z" />
    <glyph glyph-name="Amacron" unicode="&#x100;" horiz-adv-x="1423" 
d="M1022 1614h-625v205h625v-205zM334 0h-301l538 1454h279l541 -1454h-301l-101 291h-557zM709 1106l-195 -569h393l-194 569h-4z" />
    <glyph glyph-name="amacron" unicode="&#x101;" horiz-adv-x="1249" 
d="M930 1186h-625v215h625v-215zM555 -18q-208 0 -342.5 143t-134.5 373q0 226 134.5 372t336.5 146q185 0 295 -131l4 2v112h268v-999h-256v119l-4 2q-108 -139 -301 -139zM606 223q106 0 180 76.5t74 196.5q0 121 -73 200.5t-181 79.5q-111 0 -183.5 -76.5t-72.5 -203.5
q0 -120 71 -196.5t185 -76.5z" />
    <glyph glyph-name="Abreve" unicode="&#x102;" horiz-adv-x="1423" 
d="M711 1561q-149 0 -236 77t-98 213h203q3 -45 37.5 -73.5t93.5 -28.5q57 0 92.5 29t38.5 73h202q-11 -134 -96 -212t-237 -78zM334 0h-301l538 1454h279l541 -1454h-301l-101 291h-557zM709 1106l-195 -569h393l-194 569h-4z" />
    <glyph glyph-name="abreve" unicode="&#x103;" horiz-adv-x="1249" 
d="M618 1112q-146 0 -234.5 82.5t-98.5 230.5h202q5 -48 40 -82t91 -34q58 0 93.5 34t38.5 82h202q-11 -143 -97.5 -228t-236.5 -85zM555 -18q-208 0 -342.5 143t-134.5 373q0 226 134.5 372t336.5 146q185 0 295 -131l4 2v112h268v-999h-256v119l-4 2q-108 -139 -301 -139z
M606 223q106 0 180 76.5t74 196.5q0 121 -73 200.5t-181 79.5q-111 0 -183.5 -76.5t-72.5 -203.5q0 -120 71 -196.5t185 -76.5z" />
    <glyph glyph-name="Aogonek" unicode="&#x104;" horiz-adv-x="1423" 
d="M1247 -231q45 0 80 14l14 -148q-56 -22 -149 -22q-106 0 -170 51t-64 133q0 52 33.5 108t95.5 99l-98 287h-557l-98 -291h-301l538 1454h279l541 -1454h-62q-75 -13 -120.5 -55.5t-45.5 -91.5q0 -39 22.5 -61.5t61.5 -22.5zM709 1106l-195 -569h393l-194 569h-4z" />
    <glyph glyph-name="aogonek" unicode="&#x105;" horiz-adv-x="1249" 
d="M1116 0h-29q-75 -13 -120 -55.5t-45 -91.5q0 -39 22.5 -61.5t61.5 -22.5q44 0 79 14l15 -148q-56 -22 -150 -22q-106 0 -169.5 51t-63.5 133q0 55 37 114t106 101v107l-4 2q-108 -139 -301 -139q-208 0 -342.5 143t-134.5 373q0 226 134.5 372t336.5 146q185 0 295 -131
l4 2v112h268v-999zM606 223q106 0 180 76.5t74 196.5q0 121 -73 200.5t-181 79.5q-111 0 -183.5 -76.5t-72.5 -203.5q0 -120 71 -196.5t185 -76.5z" />
    <glyph glyph-name="Cacute" unicode="&#x106;" horiz-adv-x="1478" 
d="M1180 1851l-258 -276h-254l227 276h285zM840 -14q-154 0 -287.5 48.5t-235.5 139.5t-160.5 232.5t-58.5 316.5q0 157 50 293t142 238t233 160.5t313 58.5q162 0 313.5 -71t265.5 -210l-213 -178q-150 184 -366 184q-190 0 -313.5 -130t-123.5 -345q0 -203 123.5 -334
t317.5 -131q110 0 203.5 49t162.5 135l211 -182q-100 -125 -247 -199.5t-330 -74.5z" />
    <glyph glyph-name="cacute" unicode="&#x107;" horiz-adv-x="1081" 
d="M682 1434l281 2l-254 -301h-260zM606 -18q-238 0 -383 142.5t-145 373.5t146 374.5t378 143.5q128 0 239.5 -45.5t184.5 -134.5l-176 -166q-85 106 -229 106q-121 0 -196 -76.5t-75 -199.5q0 -124 75.5 -200.5t195.5 -76.5q147 0 235 109l174 -168q-148 -182 -424 -182z
" />
    <glyph glyph-name="Cdotaccent" unicode="&#x10a;" horiz-adv-x="1478" 
d="M836 1567q-73 0 -121.5 48t-48.5 118q0 68 48.5 115.5t121.5 47.5q72 0 121 -47.5t49 -115.5q0 -69 -49 -117.5t-121 -48.5zM840 -14q-154 0 -287.5 48.5t-235.5 139.5t-160.5 232.5t-58.5 316.5q0 157 50 293t142 238t233 160.5t313 58.5q162 0 313.5 -71t265.5 -210
l-213 -178q-150 184 -366 184q-190 0 -313.5 -130t-123.5 -345q0 -203 123.5 -334t317.5 -131q110 0 203.5 49t162.5 135l211 -182q-100 -125 -247 -199.5t-330 -74.5z" />
    <glyph glyph-name="cdotaccent" unicode="&#x10b;" horiz-adv-x="1081" 
d="M604 1137q-73 0 -121.5 48t-48.5 118q0 68 48.5 115.5t121.5 47.5q72 0 121 -47.5t49 -115.5q0 -69 -49 -117.5t-121 -48.5zM606 -18q-238 0 -383 142.5t-145 373.5t146 374.5t378 143.5q128 0 239.5 -45.5t184.5 -134.5l-176 -166q-85 106 -229 106q-121 0 -196 -76.5
t-75 -199.5q0 -124 75.5 -200.5t195.5 -76.5q147 0 235 109l174 -168q-148 -182 -424 -182z" />
    <glyph glyph-name="Ccaron" unicode="&#x10c;" horiz-adv-x="1478" 
d="M977 1575h-285l-213 276h248l104 -139h5l106 139h248zM840 -14q-154 0 -287.5 48.5t-235.5 139.5t-160.5 232.5t-58.5 316.5q0 157 50 293t142 238t233 160.5t313 58.5q162 0 313.5 -71t265.5 -210l-213 -178q-150 184 -366 184q-190 0 -313.5 -130t-123.5 -345
q0 -203 123.5 -334t317.5 -131q110 0 203.5 49t162.5 135l211 -182q-100 -125 -247 -199.5t-330 -74.5z" />
    <glyph glyph-name="ccaron" unicode="&#x10d;" horiz-adv-x="1081" 
d="M954 1425l-209 -301h-284l-209 301h248l102 -153h4l103 153h245zM606 -18q-238 0 -383 142.5t-145 373.5t146 374.5t378 143.5q128 0 239.5 -45.5t184.5 -134.5l-176 -166q-85 106 -229 106q-121 0 -196 -76.5t-75 -199.5q0 -124 75.5 -200.5t195.5 -76.5q147 0 235 109
l174 -168q-148 -182 -424 -182z" />
    <glyph glyph-name="Dcaron" unicode="&#x10e;" horiz-adv-x="1490" 
d="M1077 1849l-213 -276h-284l-213 276h247l105 -139h4l106 139h248zM645 0h-487v1454h481q170 0 312 -53.5t239.5 -149.5t151 -231t53.5 -295t-52 -294t-147.5 -229.5t-237 -148.5t-313.5 -53zM442 1198v-942h185q209 0 338 133t129 336q0 205 -127 339t-324 134h-201z" />
    <glyph glyph-name="dcaron" unicode="&#x10f;" horiz-adv-x="1411" 
d="M1307 1610h256l-129 -422h-191zM557 -18q-209 0 -344 143t-135 373q0 226 135 372t338 146q193 0 297 -131h4v622h272v-1507h-256v123h-2q-110 -141 -309 -141zM606 223q112 0 187 76t75 197q0 122 -73.5 201t-188.5 79q-110 0 -183 -77t-73 -203q0 -120 71.5 -196.5
t184.5 -76.5z" />
    <glyph glyph-name="Dcroat" unicode="&#x110;" horiz-adv-x="1490" 
d="M158 1454h481q170 0 312 -53.5t239.5 -149.5t151 -231t53.5 -295t-52 -294t-147.5 -229.5t-237 -148.5t-313.5 -53h-487v596h-111v229h111v629zM442 256h185q209 0 338 133t129 336q0 205 -127 339t-324 134h-201v-373h316v-229h-316v-340z" />
    <glyph glyph-name="dcroat" unicode="&#x111;" horiz-adv-x="1257" 
d="M1124 1321h119v-193h-119v-1128h-256v123h-2q-110 -141 -309 -141q-209 0 -344 143t-135 373q0 226 135 372t338 146q193 0 297 -131h4v243h-358v193h358v186h272v-186zM606 223q112 0 187 76t75 197q0 122 -73.5 201t-188.5 79q-110 0 -183 -77t-73 -203
q0 -120 71.5 -196.5t184.5 -76.5z" />
    <glyph glyph-name="Emacron" unicode="&#x112;" horiz-adv-x="1224" 
d="M948 1612h-624v205h624v-205zM1130 0h-972v1454h929v-256h-645v-350h516v-252h-516v-340h688v-256z" />
    <glyph glyph-name="emacron" unicode="&#x113;" horiz-adv-x="1142" 
d="M274 1401h625v-215h-625v215zM1065 524q0 -74 -6 -110h-703q23 -93 93 -145t172 -52q154 0 245 113l174 -158q-146 -190 -438 -190q-232 0 -378 143.5t-146 376.5q0 228 142 371t366 143q210 0 344.5 -140.5t134.5 -351.5zM584 788q-188 0 -228 -180h447
q-38 180 -219 180z" />
    <glyph glyph-name="Edotaccent" unicode="&#x116;" horiz-adv-x="1224" 
d="M637 1565q-73 0 -121.5 48t-48.5 118q0 68 48.5 115.5t121.5 47.5q72 0 121 -47.5t49 -115.5q0 -69 -49 -117.5t-121 -48.5zM1130 0h-972v1454h929v-256h-645v-350h516v-252h-516v-340h688v-256z" />
    <glyph glyph-name="edotaccent" unicode="&#x117;" horiz-adv-x="1142" 
d="M588 1137q-73 0 -121.5 48t-48.5 118q0 68 48.5 115.5t121.5 47.5q72 0 121 -47.5t49 -115.5q0 -69 -49 -117.5t-121 -48.5zM1065 524q0 -74 -6 -110h-703q23 -93 93 -145t172 -52q154 0 245 113l174 -158q-146 -190 -438 -190q-232 0 -378 143.5t-146 376.5
q0 228 142 371t366 143q210 0 344.5 -140.5t134.5 -351.5zM584 788q-188 0 -228 -180h447q-38 180 -219 180z" />
    <glyph glyph-name="Eogonek" unicode="&#x118;" horiz-adv-x="1224" 
d="M1130 0h-26q-75 -13 -120.5 -55.5t-45.5 -91.5q0 -39 22.5 -61.5t61.5 -22.5q45 0 80 14l14 -148q-56 -22 -149 -22q-106 0 -170 51t-64 133q0 50 32.5 106t92.5 97h-700v1454h929v-256h-645v-350h516v-252h-516v-340h688v-256z" />
    <glyph glyph-name="eogonek" unicode="&#x119;" horiz-adv-x="1142" 
d="M1065 524q0 -74 -6 -110h-703q23 -93 93 -145t172 -52q154 0 245 113l174 -158q-93 -121 -243 -166q-168 -61 -168 -147q0 -34 22.5 -55t61.5 -21q36 0 82 12l12 -151q-58 -27 -150 -27q-115 0 -180 51.5t-65 136.5q0 45 25.5 94t74.5 87v2q-196 28 -315 166t-119 348
q0 228 142 371t366 143q210 0 344.5 -140.5t134.5 -351.5zM584 788q-188 0 -228 -180h447q-38 180 -219 180z" />
    <glyph glyph-name="Ecaron" unicode="&#x11a;" horiz-adv-x="1224" 
d="M743 1849h248l-213 -276h-284l-213 276h247l105 -139h4zM1130 0h-972v1454h929v-256h-645v-350h516v-252h-516v-340h688v-256z" />
    <glyph glyph-name="ecaron" unicode="&#x11b;" horiz-adv-x="1142" 
d="M938 1425l-209 -301h-285l-208 301h247l103 -153h4l102 153h246zM1065 524q0 -74 -6 -110h-703q23 -93 93 -145t172 -52q154 0 245 113l174 -158q-146 -190 -438 -190q-232 0 -378 143.5t-146 376.5q0 228 142 371t366 143q210 0 344.5 -140.5t134.5 -351.5zM584 788
q-188 0 -228 -180h447q-38 180 -219 180z" />
    <glyph glyph-name="Gbreve" unicode="&#x11e;" horiz-adv-x="1536" 
d="M815 1559q-149 0 -236 77t-98 213h203q3 -45 37.5 -73.5t93.5 -28.5q57 0 92.5 29t38.5 73h203q-11 -133 -96.5 -211.5t-237.5 -78.5zM840 -14q-158 0 -293.5 50.5t-235 143.5t-156.5 233.5t-57 311.5q0 159 50.5 296.5t143 237.5t230.5 157t305 57q161 0 315 -63.5
t263 -184.5l-203 -176q-151 151 -375 151q-185 0 -306.5 -129t-121.5 -346q0 -134 53 -242t154 -171.5t234 -63.5q170 0 293 76v221h-326v248h606v-627q-97 -91 -247 -135.5t-326 -44.5z" />
    <glyph glyph-name="gbreve" unicode="&#x11f;" horiz-adv-x="1247" 
d="M606 1112q-146 0 -235 82.5t-99 230.5h203q5 -48 40 -82t91 -34q57 0 92.5 34t38.5 82h203q-11 -143 -97.5 -228t-236.5 -85zM848 -403h-612v249h612v287h-4q-109 -115 -289 -115q-207 0 -342 137.5t-135 354.5q0 220 131.5 363t331.5 143q179 0 301 -119h4v102h268
v-1146zM604 260q110 0 181 73t71 187q0 113 -71.5 183.5t-180.5 70.5q-113 0 -183.5 -71t-70.5 -185q0 -116 72 -187t182 -71z" />
    <glyph glyph-name="Gdotaccent" unicode="&#x120;" horiz-adv-x="1536" 
d="M815 1565q-73 0 -121.5 48t-48.5 118q0 68 48.5 115.5t121.5 47.5q72 0 121 -47.5t49 -115.5q0 -69 -49 -117.5t-121 -48.5zM840 -14q-158 0 -293.5 50.5t-235 143.5t-156.5 233.5t-57 311.5q0 159 50.5 296.5t143 237.5t230.5 157t305 57q161 0 315 -63.5t263 -184.5
l-203 -176q-151 151 -375 151q-185 0 -306.5 -129t-121.5 -346q0 -134 53 -242t154 -171.5t234 -63.5q170 0 293 76v221h-326v248h606v-627q-97 -91 -247 -135.5t-326 -44.5z" />
    <glyph glyph-name="gdotaccent" unicode="&#x121;" horiz-adv-x="1247" 
d="M606 1137q-73 0 -121.5 48t-48.5 118q0 68 48.5 115.5t121.5 47.5q72 0 121 -47.5t49 -115.5q0 -69 -49 -117.5t-121 -48.5zM1114 -147l-266 -256h-612v249h612v287h-4q-109 -115 -289 -115q-207 0 -342 137.5t-135 354.5q0 220 131.5 363t331.5 143q179 0 301 -119h4
v102h268v-1146zM604 260q110 0 181 73t71 187q0 113 -71.5 183.5t-180.5 70.5q-113 0 -183.5 -71t-70.5 -185q0 -116 72 -187t182 -71z" />
    <glyph glyph-name="uni0122" unicode="&#x122;" horiz-adv-x="1536" 
d="M840 -14q-158 0 -293.5 50.5t-235 143.5t-156.5 233.5t-57 311.5q0 159 50.5 296.5t143 237.5t230.5 157t305 57q161 0 315 -63.5t263 -184.5l-203 -176q-151 151 -375 151q-185 0 -306.5 -129t-121.5 -346q0 -134 53 -242t154 -171.5t234 -63.5q170 0 293 76v221h-326
v248h606v-627q-97 -91 -247 -135.5t-326 -44.5zM657 -451l-55 152q61 18 87 43t26 70q0 28 -15 77h232q10 -36 10 -92q0 -115 -78 -178.5t-207 -71.5z" />
    <glyph glyph-name="uni0123" unicode="&#x123;" horiz-adv-x="1247" 
d="M772 1493l55 -152q-61 -18 -86.5 -42.5t-25.5 -69.5q0 -32 14 -78h-231q-11 40 -11 92q0 115 78 178.5t207 71.5zM848 -403h-612v249h612v287h-4q-109 -115 -289 -115q-207 0 -342 137.5t-135 354.5q0 220 131.5 363t331.5 143q179 0 301 -119h4v102h268v-1146zM604 260
q110 0 181 73t71 187q0 113 -71.5 183.5t-180.5 70.5q-113 0 -183.5 -71t-70.5 -185q0 -116 72 -187t182 -71z" />
    <glyph glyph-name="Hbar" unicode="&#x126;" horiz-adv-x="1507" 
d="M1341 1251h105v-213h-105v-1038h-288v569h-594v-569h-291v1038h-107v213h107v203h291v-203h594v203h288v-203zM459 825h594v213h-594v-213z" />
    <glyph glyph-name="hbar" unicode="&#x127;" horiz-adv-x="1214" 
d="M406 999h417l269 -260v-739h-273v739h-413v-739h-273v1128h-125v193h125v186h273v-186h344v-193h-344v-129z" />
    <glyph glyph-name="Imacron" unicode="&#x12a;" horiz-adv-x="624" 
d="M623 1612h-625v205h625v-205zM166 0v1454h293v-1454h-293z" />
    <glyph glyph-name="imacron" unicode="&#x12b;" horiz-adv-x="538" 
d="M582 1186h-625v215h625v-215zM406 0h-273v999h273v-999z" />
    <glyph glyph-name="Iogonek" unicode="&#x12e;" horiz-adv-x="624" 
d="M459 0h-49q-75 -13 -120.5 -55.5t-45.5 -91.5q0 -39 22.5 -61.5t61.5 -22.5q45 0 80 14l14 -148q-56 -22 -150 -22q-106 0 -169.5 51t-63.5 133q0 52 32.5 107.5t94.5 97.5v1452h293v-1454z" />
    <glyph glyph-name="iogonek" unicode="&#x12f;" horiz-adv-x="538" 
d="M270 1137q-73 0 -121.5 48t-48.5 118q0 68 48.5 115.5t121.5 47.5q72 0 121 -47.5t49 -115.5q0 -69 -49 -117.5t-121 -48.5zM133 2v997h273v-999h-29q-75 -13 -120.5 -55.5t-45.5 -91.5q0 -39 22.5 -61.5t61.5 -22.5q45 0 80 14l14 -148q-56 -22 -149 -22q-106 0 -170 51
t-64 133q0 52 32.5 107.5t94.5 97.5z" />
    <glyph glyph-name="Idotaccent" unicode="&#x130;" horiz-adv-x="624" 
d="M311 1565q-73 0 -121.5 48t-48.5 118q0 68 48.5 115.5t121.5 47.5q72 0 121 -47.5t49 -115.5q0 -69 -49 -117.5t-121 -48.5zM166 1454h293v-1454h-293v1454z" />
    <glyph glyph-name="dotlessi" unicode="&#x131;" horiz-adv-x="538" 
d="M406 0h-273v999h273v-999z" />
    <glyph glyph-name="IJ" unicode="&#x132;" horiz-adv-x="1658" 
d="M459 0h-293v1454h293v-1454zM1071 -14q-117 0 -223 48t-176 138l166 205q41 -51 99 -86t118 -35q174 0 174 248v950h289v-948q0 -253 -106 -386.5t-341 -133.5z" />
    <glyph glyph-name="ij" unicode="&#x133;" horiz-adv-x="1062" 
d="M270 1137q-73 0 -121.5 48t-48.5 118q0 68 48.5 115.5t121.5 47.5q72 0 121 -47.5t49 -115.5q0 -69 -49 -117.5t-121 -48.5zM829 1137q-73 0 -121.5 48t-48.5 118q0 68 48.5 115.5t121.5 47.5q72 0 121 -47.5t49 -115.5q0 -69 -49 -117.5t-121 -48.5zM406 0h-273v999h273
v-999zM965 -143l-273 -260h-198v260h198v1142h273v-1142z" />
    <glyph glyph-name="uni0136" unicode="&#x136;" horiz-adv-x="1357" 
d="M446 0h-288v1454h288v-637h5l497 637h367l-537 -641l555 -813h-356l-389 584l-142 -168v-416zM532 -451l-55 152q61 18 87 43t26 70q0 28 -15 77h232q10 -36 10 -92q0 -115 -78 -178.5t-207 -71.5z" />
    <glyph glyph-name="uni0137" unicode="&#x137;" horiz-adv-x="1124" 
d="M406 0h-273v1507h273v-925h4l356 417h315l-350 -399l373 -600h-301l-262 420l-135 -148v-272zM420 -451l-55 152q61 18 86.5 43t25.5 70q0 31 -14 77h231q11 -40 11 -92q0 -115 -78 -178.5t-207 -71.5z" />
    <glyph glyph-name="Lacute" unicode="&#x139;" horiz-adv-x="1155" 
d="M377 1575l227 276h285l-258 -276h-254zM1094 0h-936v1454h293v-1198h643v-256z" />
    <glyph glyph-name="lacute" unicode="&#x13a;" horiz-adv-x="538" 
d="M135 1602l227 276h285l-258 -276h-254zM406 0h-273v1507h273v-1507z" />
    <glyph glyph-name="uni013B" unicode="&#x13b;" horiz-adv-x="1155" 
d="M1094 0h-936v1454h293v-1198h643v-256zM459 -451l-56 152q61 18 87 43t26 70q0 31 -14 77h231q10 -36 10 -92q0 -115 -77.5 -178.5t-206.5 -71.5z" />
    <glyph glyph-name="uni013C" unicode="&#x13c;" horiz-adv-x="538" 
d="M406 0h-273v1507h273v-1507zM104 -451l-55 152q61 18 87 43t26 70q0 28 -15 77h232q10 -36 10 -92q0 -115 -78 -178.5t-207 -71.5z" />
    <glyph glyph-name="Lcaron" unicode="&#x13d;" horiz-adv-x="1155" 
d="M948 1608l-129 -422h-190l63 422h256zM1094 0h-936v1454h293v-1198h643v-256z" />
    <glyph glyph-name="lcaron" unicode="&#x13e;" horiz-adv-x="692" 
d="M588 1610h256l-129 -422h-191zM406 0h-273v1507h273v-1507z" />
    <glyph glyph-name="Lslash" unicode="&#x141;" horiz-adv-x="1171" 
d="M467 643v-387h643v-256h-936v516l-141 -61v245l141 62v692h293v-563l272 119v-250z" />
    <glyph glyph-name="lslash" unicode="&#x142;" horiz-adv-x="643" 
d="M455 834l149 65v-215l-149 -66v-618h-273v502l-137 -60v213l137 60v792h273v-673z" />
    <glyph glyph-name="Nacute" unicode="&#x143;" horiz-adv-x="1540" 
d="M807 1575h-254l227 276h285zM444 0h-286v1454h282l654 -981h4v981h284v-1454h-288l-645 961h-5v-961z" />
    <glyph glyph-name="nacute" unicode="&#x144;" horiz-adv-x="1208" 
d="M702 1135h-260l234 299l280 2zM395 0h-272v739l272 260h418l272 -260v-739h-272v739h-418v-739z" />
    <glyph glyph-name="uni0145" unicode="&#x145;" horiz-adv-x="1540" 
d="M444 0h-286v1454h282l654 -981h4v981h284v-1454h-288l-645 961h-5v-961zM604 -451l-55 152q61 18 87 43t26 70q0 28 -15 77h232q10 -36 10 -92q0 -115 -78 -178.5t-207 -71.5z" />
    <glyph glyph-name="uni0146" unicode="&#x146;" horiz-adv-x="1208" 
d="M395 0h-272v739l272 260h418l272 -260v-739h-272v739h-418v-739zM432 -451l-55 152q61 18 86.5 43t25.5 70q0 31 -14 77h232q10 -36 10 -92q0 -115 -78 -178.5t-207 -71.5z" />
    <glyph glyph-name="Ncaron" unicode="&#x147;" horiz-adv-x="1540" 
d="M772 1712l107 139h247l-213 -276h-284l-213 276h248l104 -139h4zM444 0h-286v1454h282l654 -981h4v981h284v-1454h-288l-645 961h-5v-961z" />
    <glyph glyph-name="ncaron" unicode="&#x148;" horiz-adv-x="1208" 
d="M702 1425h246l-209 -301h-284l-209 301h248l102 -153h4zM395 0h-272v739l272 260h418l272 -260v-739h-272v739h-418v-739z" />
    <glyph glyph-name="Eng" unicode="&#x14a;" horiz-adv-x="1542" 
d="M1098 471v983h286v-1458q0 -118 -33 -202t-92 -130t-128.5 -66t-155.5 -20q-97 0 -191 27l21 225q53 -18 113 -18q93 0 136.5 49t43.5 127v10l-649 960h-5v-958h-286v1454h278l658 -983h4z" />
    <glyph glyph-name="eng" unicode="&#x14b;" horiz-adv-x="1208" 
d="M813 -403h-199v260h199v882h-418v-739h-272v739l272 260h418l272 -260v-882z" />
    <glyph glyph-name="Omacron" unicode="&#x14c;" horiz-adv-x="1677" 
d="M1153 1614h-625v205h625v-205zM840 -18q-217 0 -386.5 96t-262.5 265.5t-93 383.5t93 384t262.5 266t386.5 96q158 0 295 -54.5t234.5 -151.5t153.5 -236.5t56 -303.5q0 -217 -95.5 -387.5t-264 -264t-379.5 -93.5zM840 252q188 0 313 135t125 340t-125 340t-313 135
q-128 0 -230 -63.5t-157.5 -172t-55.5 -239.5t55.5 -239.5t157.5 -172t230 -63.5z" />
    <glyph glyph-name="omacron" unicode="&#x14d;" horiz-adv-x="1218" 
d="M922 1186h-625v215h625v-215zM610 -18q-237 0 -384.5 146t-147.5 372t147.5 371t384.5 145q234 0 382.5 -143.5t148.5 -372.5q0 -228 -148.5 -373t-382.5 -145zM610 223q109 0 183.5 78t74.5 199q0 122 -73.5 199t-184.5 77q-116 0 -188 -78t-72 -198q0 -118 73 -197.5
t187 -79.5z" />
    <glyph glyph-name="Ohungarumlaut" unicode="&#x150;" horiz-adv-x="1677" 
d="M1012 1876l-254 -301h-248l231 299zM1427 1876l-251 -301h-246l229 299zM840 -18q-217 0 -386.5 96t-262.5 265.5t-93 383.5t93 384t262.5 266t386.5 96q158 0 295 -54.5t234.5 -151.5t153.5 -236.5t56 -303.5q0 -217 -95.5 -387.5t-264 -264t-379.5 -93.5zM840 252
q188 0 313 135t125 340t-125 340t-313 135q-128 0 -230 -63.5t-157.5 -172t-55.5 -239.5t55.5 -239.5t157.5 -172t230 -63.5z" />
    <glyph glyph-name="ohungarumlaut" unicode="&#x151;" horiz-adv-x="1218" 
d="M279 1139l231 299l270 2l-254 -301h-247zM698 1139l230 299l268 2l-252 -301h-246zM610 -18q-237 0 -384.5 146t-147.5 372t147.5 371t384.5 145q234 0 382.5 -143.5t148.5 -372.5q0 -228 -148.5 -373t-382.5 -145zM610 223q109 0 183.5 78t74.5 199q0 122 -73.5 199
t-184.5 77q-116 0 -188 -78t-72 -198q0 -118 73 -197.5t187 -79.5z" />
    <glyph glyph-name="OE" unicode="&#x152;" horiz-adv-x="1964" 
d="M1182 596v-340h688v-256h-1030q-162 0 -301 55.5t-235.5 152.5t-151 231t-54.5 288t54.5 289t151 231.5t235.5 152t301 54.5h989v-256h-647v-352h526v-250h-526zM840 268h67v918h-67q-189 1 -316 -130.5t-127 -328.5q0 -128 57.5 -233.5t159.5 -166.5t226 -59z" />
    <glyph glyph-name="oe" unicode="&#x153;" horiz-adv-x="1781" 
d="M1712 510q0 -62 -8 -94h-680q21 -90 86.5 -142.5t169.5 -52.5q150 0 231 113l175 -164q-138 -188 -414 -188q-130 0 -230.5 41.5t-152.5 111.5h-8q-114 -153 -351 -153q-221 0 -345 143t-124 373q0 232 124 375t347 143q236 0 351 -150h6q60 72 154 111t208 39
q147 0 252.5 -66t157 -179t51.5 -261zM1241 780q-84 0 -141 -47.5t-78 -128.5h428q-11 76 -65 126t-144 50zM543 221q99 0 159 76t60 203t-56 202.5t-155 75.5q-100 0 -158.5 -76.5t-58.5 -201.5t53.5 -202t155.5 -77z" />
    <glyph glyph-name="Racute" unicode="&#x154;" horiz-adv-x="1341" 
d="M668 1851h284l-258 -276h-254zM442 0h-284v1454h551q252 0 378.5 -131.5t126.5 -351.5q0 -167 -76.5 -278.5t-226.5 -160.5l365 -532h-342l-326 498h-166v-498zM442 1198v-446h209q129 0 198 60.5t69 162.5q0 103 -66 163t-188 60h-222z" />
    <glyph glyph-name="racute" unicode="&#x155;" horiz-adv-x="782" 
d="M731 1436l-254 -301h-260l234 299zM406 0h-273v999h598v-260h-325v-739z" />
    <glyph glyph-name="uni0156" unicode="&#x156;" horiz-adv-x="1341" 
d="M442 0h-284v1454h551q252 0 378.5 -131.5t126.5 -351.5q0 -167 -76.5 -278.5t-226.5 -160.5l365 -532h-342l-326 498h-166v-498zM442 1198v-446h209q129 0 198 60.5t69 162.5q0 103 -66 163t-188 60h-222zM506 -451l-55 152q61 18 86.5 43t25.5 70q0 31 -14 77h231
q11 -40 11 -92q0 -115 -78 -178.5t-207 -71.5z" />
    <glyph glyph-name="uni0157" unicode="&#x157;" horiz-adv-x="782" 
d="M406 0h-273v999h598v-260h-325v-739zM104 -451l-55 152q61 18 87 43t26 70q0 28 -15 77h232q10 -36 10 -92q0 -115 -78 -178.5t-207 -71.5z" />
    <glyph glyph-name="Rcaron" unicode="&#x158;" horiz-adv-x="1341" 
d="M655 1712h4l107 139h248l-213 -276h-285l-213 276h248zM442 0h-284v1454h551q252 0 378.5 -131.5t126.5 -351.5q0 -167 -76.5 -278.5t-226.5 -160.5l365 -532h-342l-326 498h-166v-498zM442 1198v-446h209q129 0 198 60.5t69 162.5q0 103 -66 163t-188 60h-222z" />
    <glyph glyph-name="rcaron" unicode="&#x159;" horiz-adv-x="782" 
d="M537 1425h245l-209 -301h-284l-209 301h248l102 -153h4zM406 0h-273v999h598v-260h-325v-739z" />
    <glyph glyph-name="Sacute" unicode="&#x15a;" horiz-adv-x="1191" 
d="M434 1575l228 276h284l-258 -276h-254zM596 -18q-144 0 -280.5 58t-249.5 173l174 213q79 -89 175.5 -135.5t186.5 -46.5q101 0 154 41.5t53 111.5q0 75 -54.5 116.5t-197.5 90.5q-54 18 -94.5 34.5t-88.5 40.5t-83 48.5t-69.5 59t-56 73.5t-35 89t-13.5 108
q0 174 135.5 294t331.5 122q266 0 491 -185l-168 -217q-177 143 -317 143q-77 0 -126 -38.5t-50 -106.5q0 -63 52 -100t193 -92q182 -71 241 -103q137 -73 183 -181q29 -70 29 -161q0 -92 -31 -169t-82.5 -128t-119 -86t-139 -51t-144.5 -16z" />
    <glyph glyph-name="sacute" unicode="&#x15b;" horiz-adv-x="919" 
d="M526 1434l281 2l-254 -301h-260zM459 -18q-236 0 -406 147l129 186q123 -114 279 -114q57 0 89 22.5t32 59.5q0 30 -38 51.5t-143 56.5q-70 23 -119.5 48t-96 63t-70 92.5t-23.5 124.5q0 133 102.5 215t260.5 82q201 0 364 -125l-131 -199q-110 107 -239 107
q-36 0 -65.5 -19t-29.5 -55q0 -29 35 -53.5t113 -53.5q164 -61 220 -95q97 -59 117 -157q7 -33 7 -73q0 -139 -99 -225t-288 -86z" />
    <glyph glyph-name="Scedilla" unicode="&#x15e;" horiz-adv-x="1191" 
d="M625 -18l-21 -41v-4q99 -3 150 -46t51 -120q0 -73 -65.5 -117.5t-196.5 -44.5q-63 0 -125 12v121q44 -14 98 -14q40 0 69 13.5t29 43.5q0 29 -43 47t-118 18v76l30 64q-236 39 -417 223l174 213q79 -89 175.5 -135.5t186.5 -46.5q101 0 154 41.5t53 111.5
q0 75 -54.5 116.5t-197.5 90.5q-54 18 -94.5 34.5t-88.5 40.5t-83 48.5t-69.5 59t-56 73.5t-35 89t-13.5 108q0 174 135.5 294t331.5 122q266 0 491 -185l-168 -217q-177 143 -317 143q-77 0 -126 -38.5t-50 -106.5q0 -63 52 -100t193 -92q182 -71 241 -103
q137 -73 183 -181q29 -70 29 -161q0 -89 -29 -163.5t-76.5 -125t-111.5 -86.5t-131.5 -54t-138.5 -21z" />
    <glyph glyph-name="scedilla" unicode="&#x15f;" horiz-adv-x="919" 
d="M477 -18l-20 -41v-4q99 -3 149.5 -46t50.5 -120q0 -73 -65.5 -117.5t-196.5 -44.5q-63 0 -125 12v121q44 -14 99 -14q40 0 69 13.5t29 43.5q0 28 -43.5 46.5t-118.5 18.5v76l31 66q-160 29 -283 137l129 186q123 -114 279 -114q57 0 89 22.5t32 59.5q0 30 -38 51.5
t-143 56.5q-70 23 -119.5 48t-96 63t-70 92.5t-23.5 124.5q0 133 102.5 215t260.5 82q201 0 364 -125l-131 -199q-110 107 -239 107q-36 0 -65.5 -19t-29.5 -55q0 -29 35 -53.5t113 -53.5q164 -61 220 -95q97 -59 117 -157q7 -33 7 -73q0 -135 -94 -221t-275 -90z" />
    <glyph glyph-name="Scaron" unicode="&#x160;" horiz-adv-x="1191" 
d="M485 1851l105 -139h4l106 139h248l-213 -276h-284l-213 276h247zM596 -18q-144 0 -280.5 58t-249.5 173l174 213q79 -89 175.5 -135.5t186.5 -46.5q101 0 154 41.5t53 111.5q0 75 -54.5 116.5t-197.5 90.5q-54 18 -94.5 34.5t-88.5 40.5t-83 48.5t-69.5 59t-56 73.5
t-35 89t-13.5 108q0 174 135.5 294t331.5 122q266 0 491 -185l-168 -217q-177 143 -317 143q-77 0 -126 -38.5t-50 -106.5q0 -63 52 -100t193 -92q182 -71 241 -103q137 -73 183 -181q29 -70 29 -161q0 -92 -31 -169t-82.5 -128t-119 -86t-139 -51t-144.5 -16z" />
    <glyph glyph-name="scaron" unicode="&#x161;" horiz-adv-x="919" 
d="M471 1272l102 153h246l-209 -301h-284l-209 301h248l102 -153h4zM459 -18q-236 0 -406 147l129 186q123 -114 279 -114q57 0 89 22.5t32 59.5q0 30 -38 51.5t-143 56.5q-70 23 -119.5 48t-96 63t-70 92.5t-23.5 124.5q0 133 102.5 215t260.5 82q201 0 364 -125l-131 -199
q-110 107 -239 107q-36 0 -65.5 -19t-29.5 -55q0 -29 35 -53.5t113 -53.5q164 -61 220 -95q97 -59 117 -157q7 -33 7 -73q0 -139 -99 -225t-288 -86z" />
    <glyph glyph-name="uni0162" unicode="&#x162;" horiz-adv-x="1202" 
d="M743 0h-122l-31 -59v-4q99 -3 150 -46t51 -120q0 -73 -66 -117.5t-197 -44.5q-63 0 -125 12v121q44 -14 99 -14q40 0 69 13.5t29 43.5q0 28 -43.5 46.5t-118.5 18.5v76l35 74h-20v1198h-398v256h1092v-256h-404v-1198z" />
    <glyph glyph-name="uni0163" unicode="&#x163;" horiz-adv-x="866" 
d="M795 999v-249h-324v-490h324v-260h-312l-32 -59v-4q99 -3 149.5 -46t50.5 -120q0 -73 -65.5 -117.5t-196.5 -44.5q-63 0 -125 12v121q44 -14 98 -14q40 0 69.5 14t29.5 43q0 28 -43.5 46.5t-118.5 18.5v76l84 158l-180 176v490h-162v249h162v355h268v-355h324z" />
    <glyph glyph-name="Tcaron" unicode="&#x164;" horiz-adv-x="1202" 
d="M242 1851h247l105 -139h4l107 139h247l-213 -276h-284zM743 0h-290v1198h-398v256h1092v-256h-404v-1198z" />
    <glyph glyph-name="tcaron" unicode="&#x165;" horiz-adv-x="866" 
d="M616 1610h256l-129 -422h-190zM795 260v-260h-324l-268 260v490h-162v249h162v355h268v-355h324v-249h-324v-490h324z" />
    <glyph glyph-name="Tbar" unicode="&#x166;" horiz-adv-x="1202" 
d="M1147 1454v-256h-404v-403h242v-213h-242v-582h-290v582h-234v213h234v403h-398v256h1092z" />
    <glyph glyph-name="tbar" unicode="&#x167;" horiz-adv-x="866" 
d="M795 999v-249h-324v-136h299v-192h-299v-162h324v-260h-324l-268 260v162h-146v192h146v136h-162v249h162v355h268v-355h324z" />
    <glyph glyph-name="Umacron" unicode="&#x16a;" horiz-adv-x="1456" 
d="M1038 1614h-624v205h624v-205zM727 -18q-267 0 -427.5 163.5t-160.5 456.5v852h289v-833q0 -162 79 -265.5t220 -103.5q134 0 218.5 99.5t84.5 269.5v833h289v-852q0 -286 -157 -453t-435 -167z" />
    <glyph glyph-name="umacron" unicode="&#x16b;" horiz-adv-x="1167" 
d="M895 1186h-625v215h625v-215zM1055 999v-739l-273 -260h-397l-272 260v739h272v-739h397v739h273z" />
    <glyph glyph-name="Uring" unicode="&#x16e;" horiz-adv-x="1456" 
d="M727 1528q-92 0 -157.5 61.5t-65.5 153.5q0 91 63 154t160 63q93 0 158 -62t65 -155q0 -90 -62.5 -152.5t-160.5 -62.5zM727 1669q32 0 54 23t22 55q0 31 -22 52.5t-54 21.5t-54 -22.5t-22 -53.5q0 -32 22 -54t54 -22zM727 -18q-267 0 -427.5 163.5t-160.5 456.5v852h289
v-833q0 -162 79 -265.5t220 -103.5q134 0 218.5 99.5t84.5 269.5v833h289v-852q0 -286 -157 -453t-435 -167z" />
    <glyph glyph-name="uring" unicode="&#x16f;" horiz-adv-x="1167" 
d="M584 1104q-92 0 -158 61.5t-66 153.5q0 91 63.5 154t160.5 63q93 0 158 -62t65 -155q0 -90 -62.5 -152.5t-160.5 -62.5zM584 1245q32 0 53.5 22.5t21.5 55.5q0 31 -21.5 52.5t-53.5 21.5t-54 -22.5t-22 -53.5q0 -32 22 -54t54 -22zM1055 999v-739l-273 -260h-397
l-272 260v739h272v-739h397v739h273z" />
    <glyph glyph-name="Uhungarumlaut" unicode="&#x170;" horiz-adv-x="1456" 
d="M627 1874l270 2l-254 -301h-248zM1044 1874l269 2l-252 -301h-246zM727 -18q-267 0 -427.5 163.5t-160.5 456.5v852h289v-833q0 -162 79 -265.5t220 -103.5q134 0 218.5 99.5t84.5 269.5v833h289v-852q0 -286 -157 -453t-435 -167z" />
    <glyph glyph-name="uhungarumlaut" unicode="&#x171;" horiz-adv-x="1167" 
d="M252 1139l231 299l271 2l-254 -301h-248zM672 1139l229 299l268 2l-251 -301h-246zM1055 260l-273 -260h-397l-272 260v739h272v-739h397v739h273v-739z" />
    <glyph glyph-name="Uogonek" unicode="&#x172;" horiz-adv-x="1456" 
d="M1030 621v833h289v-852q0 -232 -104.5 -388t-296.5 -208q-77 -26 -119.5 -65.5t-42.5 -83.5q0 -37 22.5 -58.5t61.5 -21.5q50 0 80 12l12 -145q-58 -27 -148 -27q-106 0 -168.5 52t-62.5 136q0 43 24 91t70 88v2q-235 25 -371.5 185.5t-136.5 430.5v852h289v-833
q0 -162 79 -265.5t220 -103.5q134 0 218.5 99.5t84.5 269.5z" />
    <glyph glyph-name="uogonek" unicode="&#x173;" horiz-adv-x="1167" 
d="M782 260v739h273v-739l-273 -260h-26q-75 -13 -120.5 -55.5t-45.5 -91.5q0 -39 22.5 -61.5t61.5 -22.5q45 0 80 14l14 -148q-56 -22 -150 -22q-106 0 -169.5 51t-63.5 133q0 50 32.5 106t92.5 97h-125l-272 260v739h272v-739h397z" />
    <glyph glyph-name="Wcircumflex" unicode="&#x174;" horiz-adv-x="2111" 
d="M1200 1851l213 -276h-248l-106 139h-4l-107 -139h-246l213 276h285zM768 0h-258l-459 1454h299l291 -987h4l260 987h303l256 -985h6l293 985h297l-458 -1454h-259l-282 1036h-4z" />
    <glyph glyph-name="wcircumflex" unicode="&#x175;" horiz-adv-x="1742" 
d="M1212 1128h-245l-103 154h-4l-102 -154h-248l211 302h285zM1610 0h-1225l-272 256v743h272v-743h340v743h272v-743h340v743h273v-999z" />
    <glyph glyph-name="Ycircumflex" unicode="&#x176;" horiz-adv-x="1288" 
d="M504 1851h284l213 -276h-247l-107 139h-4l-106 -139h-246zM788 0h-290v639l-482 815h330l297 -528h4l291 528h334l-484 -815v-639z" />
    <glyph glyph-name="ycircumflex" unicode="&#x177;" horiz-adv-x="1187" 
d="M934 1128h-246l-102 154h-4l-103 -154h-248l211 302h285zM793 -403h-586v249h581v179h-403l-272 254v720h272v-725h397v725h273v-1153z" />
    <glyph glyph-name="Ydieresis" unicode="&#x178;" horiz-adv-x="1288" 
d="M430 1571q-70 0 -119 48t-49 116q0 66 49 113.5t119 47.5q72 0 121 -47.5t49 -115.5t-49 -115t-121 -47zM860 1571q-71 0 -119.5 48t-48.5 116q0 67 48.5 114t119.5 47q70 0 120 -47.5t50 -115.5q0 -67 -49.5 -114.5t-120.5 -47.5zM788 0h-290v639l-482 815h330l297 -528
h4l291 528h334l-484 -815v-639z" />
    <glyph glyph-name="Zacute" unicode="&#x179;" horiz-adv-x="1271" 
d="M414 1575l227 276h285l-258 -276h-254zM1165 0h-1063v225l668 967l-2 6h-647v256h1032v-219l-684 -973l4 -6h692v-256z" />
    <glyph glyph-name="zacute" unicode="&#x17a;" horiz-adv-x="993" 
d="M326 1135l233 299l281 2l-254 -301h-260zM911 0h-823v221l451 537v6h-457v235h799v-221l-451 -538v-4h481v-236z" />
    <glyph glyph-name="Zdotaccent" unicode="&#x17b;" horiz-adv-x="1271" 
d="M633 1567q-73 0 -121.5 48t-48.5 118q0 68 48.5 115.5t121.5 47.5q72 0 121 -47.5t49 -115.5q0 -69 -49 -117.5t-121 -48.5zM1165 0h-1063v225l668 967l-2 6h-647v256h1032v-219l-684 -973l4 -6h692v-256z" />
    <glyph glyph-name="zdotaccent" unicode="&#x17c;" horiz-adv-x="993" 
d="M516 1137q-73 0 -121.5 48t-48.5 118q0 68 48.5 115.5t121.5 47.5q72 0 121 -47.5t49 -115.5q0 -69 -49 -117.5t-121 -48.5zM911 0h-823v221l451 537v6h-457v235h799v-221l-451 -538v-4h481v-236z" />
    <glyph glyph-name="Zcaron" unicode="&#x17d;" horiz-adv-x="1271" 
d="M489 1575l-213 276h248l105 -139h4l106 139h248l-213 -276h-285zM1165 0h-1063v225l668 967l-2 6h-647v256h1032v-219l-684 -973l4 -6h692v-256z" />
    <glyph glyph-name="zcaron" unicode="&#x17e;" horiz-adv-x="993" 
d="M514 1272h4l103 153h245l-209 -301h-284l-209 301h248zM911 0h-823v221l451 537v6h-457v235h799v-221l-451 -538v-4h481v-236z" />
    <glyph glyph-name="florin" unicode="&#x192;" horiz-adv-x="1118" 
d="M217 -315q-113 0 -190 27t-109 61l92 182q93 -35 156 -35q66 0 105.5 41t52.5 137l82 641h-154l33 224h153l27 213q47 350 377 350q109 0 185.5 -27.5t113.5 -60.5l-94 -183q-97 33 -156 33q-67 0 -107 -41t-51 -137l-18 -147h270l-31 -224h-272l-90 -704
q-23 -176 -116 -263t-259 -87z" />
    <glyph glyph-name="uni0218" unicode="&#x218;" horiz-adv-x="1191" 
d="M596 -18q-144 0 -280.5 58t-249.5 173l174 213q79 -89 175.5 -135.5t186.5 -46.5q101 0 154 41.5t53 111.5q0 75 -54.5 116.5t-197.5 90.5q-54 18 -94.5 34.5t-88.5 40.5t-83 48.5t-69.5 59t-56 73.5t-35 89t-13.5 108q0 174 135.5 294t331.5 122q266 0 491 -185
l-168 -217q-177 143 -317 143q-77 0 -126 -38.5t-50 -106.5q0 -63 52 -100t193 -92q182 -71 241 -103q137 -73 183 -181q29 -70 29 -161q0 -92 -31 -169t-82.5 -128t-119 -86t-139 -51t-144.5 -16zM446 -451l-55 152q61 18 87 43t26 70q0 28 -15 77h232q10 -36 10 -92
q0 -115 -78 -178.5t-207 -71.5z" />
    <glyph glyph-name="uni0219" unicode="&#x219;" horiz-adv-x="919" 
d="M459 -18q-236 0 -406 147l129 186q123 -114 279 -114q57 0 89 22.5t32 59.5q0 30 -38 51.5t-143 56.5q-70 23 -119.5 48t-96 63t-70 92.5t-23.5 124.5q0 133 102.5 215t260.5 82q201 0 364 -125l-131 -199q-110 107 -239 107q-36 0 -65.5 -19t-29.5 -55q0 -29 35 -53.5
t113 -53.5q164 -61 220 -95q97 -59 117 -157q7 -33 7 -73q0 -139 -99 -225t-288 -86zM299 -451l-55 152q61 18 86.5 43t25.5 70q0 31 -14 77h231q11 -40 11 -92q0 -115 -78 -178.5t-207 -71.5z" />
    <glyph glyph-name="uni021A" unicode="&#x21a;" horiz-adv-x="1202" 
d="M743 0h-290v1198h-398v256h1092v-256h-404v-1198zM432 -451l-55 152q61 18 86.5 43t25.5 70q0 31 -14 77h232q10 -36 10 -92q0 -115 -78 -178.5t-207 -71.5z" />
    <glyph glyph-name="uni021B" unicode="&#x21b;" horiz-adv-x="866" 
d="M795 260v-260h-324l-268 260v490h-162v249h162v355h268v-355h324v-249h-324v-490h324zM293 -451l-55 152q61 18 86.5 43t25.5 70q0 31 -14 77h231q11 -40 11 -92q0 -115 -78 -178.5t-207 -71.5z" />
    <glyph glyph-name="uni0237" unicode="&#x237;" horiz-adv-x="524" 
d="M426 999v-1142l-272 -260h-199v260h199v1142h272z" />
    <glyph glyph-name="uni02BB" unicode="&#x2bb;" horiz-adv-x="479" 
d="M395 840h-276l41 534h207z" />
    <glyph glyph-name="uni02BC" unicode="&#x2bc;" horiz-adv-x="425" 
d="M252 1012h-189l64 442h256z" />
    <glyph glyph-name="circumflex" unicode="&#x2c6;" horiz-adv-x="966" 
d="M588 1087l-103 154h-4l-102 -154h-248l211 302h285l207 -302h-246z" />
    <glyph glyph-name="caron" unicode="&#x2c7;" horiz-adv-x="966" 
d="M481 1231h4l103 153h246l-209 -301h-285l-209 301h248z" />
    <glyph glyph-name="breve" unicode="&#x2d8;" horiz-adv-x="942" 
d="M471 1071q-146 0 -235 82.5t-99 230.5h203q5 -48 40 -82t91 -34q57 0 92.5 34t38.5 82h203q-11 -143 -97.5 -228t-236.5 -85z" />
    <glyph glyph-name="dotaccent" unicode="&#x2d9;" horiz-adv-x="1026" 
d="M514 1096q-73 0 -121.5 48t-48.5 118q0 68 48.5 115.5t121.5 47.5q72 0 121 -47.5t49 -115.5q0 -69 -49 -117.5t-121 -48.5z" />
    <glyph glyph-name="ring" unicode="&#x2da;" horiz-adv-x="946" 
d="M473 1049q-92 0 -157.5 61.5t-65.5 153.5q0 91 63 154t160 63q93 0 158 -62t65 -155q0 -90 -62.5 -152.5t-160.5 -62.5zM473 1190q32 0 54 23t22 55q0 31 -22 52t-54 21t-54 -22t-22 -53q0 -32 22 -54t54 -22z" />
    <glyph glyph-name="ogonek" unicode="&#x2db;" horiz-adv-x="968" 
d="M559 -387q-106 0 -169.5 51t-63.5 133q0 61 45.5 126t128.5 106l211 -27q-82 -10 -131.5 -53.5t-49.5 -95.5q0 -39 22.5 -61.5t61.5 -22.5q45 0 80 14l15 -148q-56 -22 -150 -22z" />
    <glyph glyph-name="tilde" unicode="&#x2dc;" horiz-adv-x="1015" 
d="M672 1087q-82 0 -180 62q-69 43 -111 43q-72 0 -117 -102l-160 67q34 109 96.5 173.5t149.5 64.5q39 0 74.5 -9.5t54.5 -19.5t47 -27q3 -2 8 -5q67 -42 105 -42q69 0 115 103l157 -54q-32 -116 -94.5 -185t-144.5 -69z" />
    <glyph glyph-name="hungarumlaut" unicode="&#x2dd;" horiz-adv-x="1089" 
d="M594 1399l-254 -301h-248l232 299zM1010 1399l-252 -301h-246l229 299z" />
    <glyph glyph-name="gravecomb" unicode="&#x300;" horiz-adv-x="0" 
d="M-1307 1386l287 -2l221 -297h-254z" />
    <glyph glyph-name="acutecomb" unicode="&#x301;" horiz-adv-x="0" 
d="M-729 1393l-254 -301h-260l233 299z" />
    <glyph glyph-name="uni0302" unicode="&#x302;" horiz-adv-x="0" 
d="M-920 1087l-102 154h-4l-102 -154h-248l211 302h284l207 -302h-246z" />
    <glyph glyph-name="tildecomb" unicode="&#x303;" horiz-adv-x="0" 
d="M-856 1087q-82 0 -180 62q-69 43 -111 43q-72 0 -117 -102l-159 67q34 109 96 173.5t149 64.5q56 0 95.5 -14.5t81.5 -41.5q3 -2 12 -7.5t12.5 -7.5t11.5 -7t12.5 -7t12 -5.5t13 -5.5t12 -4t13 -2.5t13.5 -0.5q69 0 115 103l158 -54q-32 -116 -94.5 -185t-145.5 -69z" />
    <glyph glyph-name="uni0304" unicode="&#x304;" horiz-adv-x="0" 
d="M-713 1145h-624v215h624v-215z" />
    <glyph glyph-name="uni0306" unicode="&#x306;" horiz-adv-x="0" 
d="M-1024 1071q-146 0 -235 82.5t-99 230.5h203q5 -48 40 -82t91 -34q57 0 92.5 34t38.5 82h203q-11 -143 -97.5 -228t-236.5 -85z" />
    <glyph glyph-name="uni0307" unicode="&#x307;" horiz-adv-x="0" 
d="M-1024 1096q-73 0 -121.5 48t-48.5 118q0 68 48.5 115.5t121.5 47.5q72 0 121 -47.5t49 -115.5q0 -69 -49 -117.5t-121 -48.5z" />
    <glyph glyph-name="uni0308" unicode="&#x308;" horiz-adv-x="0" 
d="M-1241 1100q-70 0 -119 48t-49 116q0 66 49 113.5t119 47.5q72 0 121 -47.5t49 -115.5t-49 -115t-121 -47zM-811 1100q-71 0 -119.5 48t-48.5 116q0 67 48.5 114t119.5 47q70 0 120 -47.5t50 -115.5q0 -67 -49.5 -114.5t-120.5 -47.5z" />
    <glyph glyph-name="uni030A" unicode="&#x30a;" horiz-adv-x="0" 
d="M-1024 1063q-92 0 -157.5 61.5t-65.5 153.5q0 91 63 154t160 63q93 0 158 -62t65 -155q0 -90 -62.5 -152.5t-160.5 -62.5zM-1024 1204q32 0 54 23t22 55q0 31 -22 52.5t-54 21.5t-54 -22.5t-22 -53.5q0 -32 22 -54t54 -22z" />
    <glyph glyph-name="uni030B" unicode="&#x30b;" horiz-adv-x="0" 
d="M-854 1399l-254 -301h-248l232 299zM-438 1399l-252 -301h-246l229 299z" />
    <glyph glyph-name="uni030C" unicode="&#x30c;" horiz-adv-x="0" 
d="M-1026 1231h4l102 153h246l-209 -301h-284l-209 301h248z" />
    <glyph glyph-name="uni0312" unicode="&#x312;" horiz-adv-x="0" 
d="M-901 1110h-232q-10 48 -10 90q0 117 77.5 179.5t207.5 70.5l55 -150q-60 -19 -85 -44.5t-25 -69.5q0 -26 12 -76z" />
    <glyph glyph-name="uni0313" unicode="&#x313;" horiz-adv-x="0" 
d="M-1126 1430h231q10 -48 10 -91q0 -117 -77 -179t-207 -70l-56 149q60 19 85.5 45t25.5 70q0 26 -12 76z" />
    <glyph glyph-name="uni0326" unicode="&#x326;" horiz-adv-x="0" 
d="M-1190 -451l-55 152q61 18 86.5 43t25.5 70q0 31 -14 77h232q10 -36 10 -92q0 -115 -78 -178.5t-207 -71.5z" />
    <glyph glyph-name="uni0327" unicode="&#x327;" horiz-adv-x="0" 
d="M-1094 -391q-63 0 -125 12v121q44 -14 99 -14q40 0 69 13.5t29 43.5q0 28 -43.5 46.5t-118.5 18.5v76l41 86h148l-37 -71v-4q99 -3 150 -46t51 -120q0 -73 -66 -117.5t-197 -44.5z" />
    <glyph glyph-name="uni0328" unicode="&#x328;" horiz-adv-x="0" 
d="M-1186 -387q-106 0 -169.5 51t-63.5 133q0 61 45.5 126t128.5 106l211 -27q-81 -10 -130.5 -53.5t-49.5 -95.5q0 -39 22.5 -61.5t61.5 -22.5q44 0 79 14l15 -148q-56 -22 -150 -22z" />
    <glyph glyph-name="uni0335" unicode="&#x335;" horiz-adv-x="0" 
d="M-723 440h-592v193h592v-193z" />
    <glyph glyph-name="Wgrave" unicode="&#x1e80;" horiz-adv-x="2111" 
d="M969 1851l227 -276h-256l-258 276h287zM768 0h-258l-459 1454h299l291 -987h4l260 987h303l256 -985h6l293 985h297l-458 -1454h-259l-282 1036h-4z" />
    <glyph glyph-name="wgrave" unicode="&#x1e81;" horiz-adv-x="1742" 
d="M731 1130l-254 300l287 -3l221 -297h-254zM1610 999v-999h-1225l-272 256v743h272v-743h340v743h272v-743h340v743h273z" />
    <glyph glyph-name="Wacute" unicode="&#x1e82;" horiz-adv-x="2111" 
d="M1446 1851l-258 -276h-254l227 276h285zM768 0h-258l-459 1454h299l291 -987h4l260 987h303l256 -985h6l293 985h297l-458 -1454h-259l-282 1036h-4z" />
    <glyph glyph-name="wacute" unicode="&#x1e83;" horiz-adv-x="1742" 
d="M891 1434l280 2l-253 -301h-261zM1610 0h-1225l-272 256v743h272v-743h340v743h272v-743h340v743h273v-999z" />
    <glyph glyph-name="Wdieresis" unicode="&#x1e84;" horiz-adv-x="2111" 
d="M842 1571q-70 0 -119 48t-49 116q0 66 49 113.5t119 47.5q72 0 121 -47.5t49 -115.5t-49 -115t-121 -47zM1272 1571q-71 0 -119.5 48t-48.5 116q0 67 48.5 114t119.5 47q70 0 120 -47.5t50 -115.5q0 -67 -49.5 -114.5t-120.5 -47.5zM768 0h-258l-459 1454h299l291 -987h4
l260 987h303l256 -985h6l293 985h297l-458 -1454h-259l-282 1036h-4z" />
    <glyph glyph-name="wdieresis" unicode="&#x1e85;" horiz-adv-x="1742" 
d="M645 1141q-70 0 -119 48t-49 116q0 66 49 113.5t119 47.5q72 0 121 -47.5t49 -115.5t-49 -115t-121 -47zM1075 1141q-71 0 -119.5 48t-48.5 116q0 67 48.5 114t119.5 47q70 0 120 -47.5t50 -115.5q0 -67 -49.5 -114.5t-120.5 -47.5zM1610 999v-999h-1225l-272 256v743
h272v-743h340v743h272v-743h340v743h273z" />
    <glyph glyph-name="uni1E9E" unicode="&#x1e9e;" horiz-adv-x="1574" 
d="M1364 1374l-268 -504q177 -70 240 -107q133 -77 172 -194q20 -60 20 -137q0 -92 -31 -169t-81 -128t-114.5 -86.5t-131 -51t-132.5 -15.5q-111 0 -228 43.5t-220 128.5l133 247q74 -77 160.5 -117t158.5 -40q87 0 136 42t49 111q0 78 -55.5 119.5t-198.5 87.5
q-122 42 -244 109l248 475l-4 8q-178 21 -262 21q-147 0 -222 -62t-75 -203v-952h-285v965q0 508 555 508q128 0 314.5 -27.5t365.5 -71.5z" />
    <glyph glyph-name="Ygrave" unicode="&#x1ef2;" horiz-adv-x="1288" 
d="M309 1851h287l227 -276h-256zM788 0h-290v639l-482 815h330l297 -528h4l291 528h334l-484 -815v-639z" />
    <glyph glyph-name="ygrave" unicode="&#x1ef3;" horiz-adv-x="1187" 
d="M457 1130l-254 300l286 -3l222 -297h-254zM1055 -154l-262 -249h-586v249h581v179h-403l-272 254v720h272v-725h397v725h273v-1153z" />
    <glyph glyph-name="uni2002" unicode="&#x2002;" horiz-adv-x="956" 
 />
    <glyph glyph-name="uni2003" unicode="&#x2003;" horiz-adv-x="1912" 
 />
    <glyph glyph-name="uni2007" unicode="&#x2007;" 
 />
    <glyph glyph-name="uni2009" unicode="&#x2009;" horiz-adv-x="51" 
 />
    <glyph glyph-name="uni2010" unicode="&#x2010;" horiz-adv-x="813" 
d="M717 506h-621v252h621v-252z" />
    <glyph glyph-name="figuredash" unicode="&#x2012;" 
d="M1104 496h-1008v231h1008v-231z" />
    <glyph glyph-name="endash" unicode="&#x2013;" horiz-adv-x="1148" 
d="M1053 727v-231h-957v231h957z" />
    <glyph glyph-name="emdash" unicode="&#x2014;" horiz-adv-x="2105" 
d="M2009 496h-1913v231h1913v-231z" />
    <glyph glyph-name="uni2015" unicode="&#x2015;" horiz-adv-x="2437" 
d="M2341 496h-2245v231h2245v-231z" />
    <glyph glyph-name="quoteleft" unicode="&#x2018;" horiz-adv-x="456" 
d="M186 1452h209l-63 -532h-277z" />
    <glyph glyph-name="quoteright" unicode="&#x2019;" horiz-adv-x="456" 
d="M270 922h-209l64 532h276z" />
    <glyph glyph-name="quotesinglbase" unicode="&#x201a;" horiz-adv-x="493" 
d="M242 -162h-195l64 535h276z" />
    <glyph glyph-name="quotedblleft" unicode="&#x201c;" horiz-adv-x="841" 
d="M186 1454h209l-63 -532h-277zM571 1454h209l-63 -532h-277z" />
    <glyph glyph-name="quotedblright" unicode="&#x201d;" horiz-adv-x="841" 
d="M270 922h-209l64 532h276zM655 922h-209l64 532h276z" />
    <glyph glyph-name="quotedblbase" unicode="&#x201e;" horiz-adv-x="878" 
d="M256 -160h-209l64 533h276zM641 -160h-209l64 533h276z" />
    <glyph glyph-name="dagger" unicode="&#x2020;" horiz-adv-x="798" 
d="M479 594l-78 -129l-77 129l8 260l-2 221h-37l-195 -10v154l195 -11h37l-6 197h155l-10 -197h39l192 13v-156l-192 10h-41v-221z" />
    <glyph glyph-name="daggerdbl" unicode="&#x2021;" horiz-adv-x="798" 
d="M477 111h-153l8 192h-39l-195 -10v153l193 -8h41v121l-8 199l8 198v119h-39l-195 -8v150l193 -11h39l-8 199h155l-10 -199h39l194 13v-152l-194 8h-39v-119l10 -198l-12 -199l2 -121h39l194 8v-151l-194 8h-39z" />
    <glyph glyph-name="bullet" unicode="&#x2022;" horiz-adv-x="864" 
d="M432 408q-100 0 -171 70t-71 169q0 100 71 171t171 71t171 -71t71 -171q0 -99 -71 -169t-171 -70z" />
    <glyph glyph-name="ellipsis" unicode="&#x2026;" horiz-adv-x="2048" 
d="M338 -18q-71 0 -120.5 48t-49.5 117q0 68 50 116t120 48q68 0 117 -48.5t49 -115.5q0 -69 -49 -117t-117 -48zM1022 -18q-71 0 -120.5 48t-49.5 117q0 68 50 116t120 48q68 0 117 -48.5t49 -115.5q0 -69 -49 -117t-117 -48zM1706 -18q-71 0 -120.5 48t-49.5 117
q0 68 50 116t120 48q68 0 117 -48.5t49 -115.5q0 -69 -49 -117t-117 -48z" />
    <glyph glyph-name="perthousand" unicode="&#x2030;" horiz-adv-x="3006" 
d="M1468 1399l-645 -1448l-202 88l645 1448zM492 655q-174 0 -294 114.5t-120 295.5q0 172 115.5 290t298.5 118q173 0 293 -114t120 -294q0 -172 -116 -291t-297 -119zM492 846q90 0 145 62.5t55 154.5q0 95 -57 155t-143 60q-88 0 -143.5 -62t-55.5 -153q0 -95 58 -156
t141 -61zM1593 -18q-174 0 -293.5 114.5t-119.5 294.5q0 172 115 290t298 118q174 0 294 -113.5t120 -294.5q0 -171 -116 -290t-298 -119zM2515 -18q-174 0 -295 115t-121 294q0 172 116 290t300 118q173 0 293.5 -114t120.5 -294q0 -171 -116.5 -290t-297.5 -119zM1595 174
q89 0 145 62t56 153q0 94 -58 153.5t-143 59.5q-89 0 -144.5 -61t-55.5 -152q0 -94 57.5 -154.5t142.5 -60.5zM2515 174q89 0 145 62t56 153q0 94 -58 153.5t-143 59.5q-89 0 -144 -61t-55 -152q0 -94 57.5 -154.5t141.5 -60.5z" />
    <glyph glyph-name="minute" unicode="&#x2032;" horiz-adv-x="548" 
d="M268 922h-209l158 532h277z" />
    <glyph glyph-name="second" unicode="&#x2033;" horiz-adv-x="948" 
d="M268 922h-209l158 532h277zM668 922h-209l157 532h277z" />
    <glyph glyph-name="guilsinglleft" unicode="&#x2039;" horiz-adv-x="628" 
d="M315 938h258l-243 -426l245 -432h-258l-245 432z" />
    <glyph glyph-name="guilsinglright" unicode="&#x203a;" horiz-adv-x="628" 
d="M313 80h-258l244 426l-246 432h258l246 -432z" />
    <glyph glyph-name="uni203D" unicode="&#x203d;" horiz-adv-x="952" 
d="M442 1526q187 0 311 -105t124 -291q0 -113 -48 -194t-135 -164q-13 -12 -47 -43.5t-48 -45.5t-34.5 -37.5t-29 -43.5t-9.5 -41l-8 -88h-219l-47 651h272l-6 -186l4 -2q76 86 76 170q0 85 -45.5 129.5t-126.5 44.5q-59 0 -119.5 -30t-101.5 -81l-182 168q71 87 182 138
t237 51zM406 311q68 0 116.5 -48.5t48.5 -115.5q0 -69 -48.5 -117t-116.5 -48q-71 0 -120.5 48t-49.5 117q0 68 50 116t120 48z" />
    <glyph glyph-name="uni2042" unicode="&#x2042;" horiz-adv-x="1701" 
d="M924 784h-164l10 209l-176 -110l-82 141l184 94l-186 99l84 141l176 -113l-10 209h164l-13 -209l179 111l81 -139l-184 -97l184 -96l-81 -141l-172 110zM492 98h-164l10 209l-176 -110l-82 141l184 94l-186 98l84 142l176 -113l-10 209h164l-13 -209l178 111l82 -140
l-184 -96l184 -96l-82 -141l-172 110zM1374 98h-164l11 209l-177 -110l-81 141l184 94l-186 98l83 142l177 -113l-11 209h164l-12 -209l178 111l82 -140l-184 -96l184 -96l-82 -141l-172 110z" />
    <glyph glyph-name="fraction" unicode="&#x2044;" horiz-adv-x="468" 
d="M690 1399l-645 -1448l-203 88l643 1448z" />
    <glyph glyph-name="uni2051" unicode="&#x2051;" horiz-adv-x="819" 
d="M492 784h-164l10 209l-176 -110l-82 141l184 94l-186 99l84 141l176 -113l-10 209h164l-13 -209l178 111l82 -139l-184 -97l184 -96l-82 -141l-172 110zM492 45h-164l10 211l-176 -111l-82 140l184 94l-186 98l84 141l176 -110l-10 207h164l-13 -207l178 108l82 -139
l-184 -96l184 -96l-82 -142l-172 113z" />
    <glyph glyph-name="uni2070" unicode="&#x2070;" horiz-adv-x="835" 
d="M418 872q-171 0 -270 121t-99 320q0 208 102 324t267 116q170 0 268 -120t98 -320q0 -207 -100.5 -324t-265.5 -117zM418 1069q71 0 112 63t41 181q0 117 -40.5 180t-112.5 63t-113 -62.5t-41 -180.5q0 -116 41.5 -180t112.5 -64z" />
    <glyph glyph-name="uni2074" unicode="&#x2074;" horiz-adv-x="724" 
d="M575 893h-210v129h-342v127l387 588h165v-535h113v-180h-113v-129zM383 1423l-150 -235h150v235z" />
    <glyph glyph-name="uni2075" unicode="&#x2075;" horiz-adv-x="702" 
d="M391 1438q109 0 186.5 -76t77.5 -191q0 -130 -90.5 -211t-228.5 -81q-193 0 -311 129l155 127q53 -66 135 -66q52 0 88.5 28.5t36.5 76.5q0 56 -33.5 83t-84.5 27q-63 0 -115 -49l-113 43l27 459h487v-191h-311l-8 -125q63 17 102 17z" />
    <glyph glyph-name="uni2076" unicode="&#x2076;" horiz-adv-x="733" 
d="M424 1436q104 0 181 -72.5t77 -194.5q0 -127 -91.5 -208.5t-223.5 -81.5q-134 0 -228 98.5t-94 253.5q0 125 54.5 235.5t164 191.5t256.5 109l58 -168q-121 -32 -192 -79.5t-105 -116.5l4 -2q65 35 139 35zM369 1063q50 0 83 31t33 80q0 45 -30.5 73.5t-83.5 28.5
q-75 0 -125 -59v-7q0 -69 35 -108t88 -39z" />
    <glyph glyph-name="uni2077" unicode="&#x2077;" horiz-adv-x="643" 
d="M49 1544v193h547v-140l-277 -727l-210 41l256 633h-316z" />
    <glyph glyph-name="uni2078" unicode="&#x2078;" horiz-adv-x="745" 
d="M373 879q-140 0 -232 67t-92 180q0 80 43 138.5t107 85.5v4q-40 20 -70.5 67.5t-30.5 102.5q0 109 78 167t197 58q118 0 195 -58.5t77 -166.5q0 -56 -30 -103t-72 -67v-4q66 -27 109.5 -85.5t43.5 -138.5q0 -113 -93 -180t-230 -67zM371 1425q40 0 65 22.5t25 57.5
q0 34 -25 57t-65 23q-36 1 -62 -22.5t-26 -57.5q0 -35 25 -57.5t63 -22.5zM373 1055q49 0 80.5 27.5t31.5 70.5q0 42 -31 72t-81 30q-49 -1 -81 -30.5t-32 -71.5t32.5 -70t80.5 -28z" />
    <glyph glyph-name="uni2079" unicode="&#x2079;" horiz-adv-x="729" 
d="M365 1749q134 0 226.5 -97.5t92.5 -252.5q0 -126 -52.5 -237.5t-160.5 -193.5t-254 -106l-55 168q232 55 293 199l-2 2q-67 -37 -146 -37q-106 0 -183 72t-77 194q0 127 92.5 208t225.5 81zM244 1456q0 -45 32 -74.5t84 -29.5q73 0 125 61v4q0 71 -35 110.5t-88 39.5
q-50 0 -84 -31t-34 -80z" />
    <glyph glyph-name="uni207A" unicode="&#x207a;" horiz-adv-x="712" 
d="M446 1384h193v-172h-193v-196h-182v196h-192v172h192v195h182v-195z" />
    <glyph glyph-name="uni207B" unicode="&#x207b;" horiz-adv-x="727" 
d="M645 1204h-565v187h565v-187z" />
    <glyph glyph-name="uni207C" unicode="&#x207c;" horiz-adv-x="763" 
d="M664 1360h-566v164h566v-164zM664 1026h-566v166h566v-166z" />
    <glyph glyph-name="uni207D" unicode="&#x207d;" horiz-adv-x="456" 
d="M410 811l-162 -59q-152 269 -152 559q0 155 43.5 302.5t118.5 258.5l156 -66q-49 -71 -89 -212.5t-40 -282.5q0 -147 37 -278t88 -222z" />
    <glyph glyph-name="uni207E" unicode="&#x207e;" horiz-adv-x="456" 
d="M209 752l-162 59q51 91 88 222t37 278q0 141 -40 282.5t-89 212.5l156 66q75 -111 118 -258t43 -303q0 -292 -151 -559z" />
    <glyph glyph-name="uni2080" unicode="&#x2080;" horiz-adv-x="835" 
d="M418 -156q-171 0 -270 121t-99 320q0 208 102 324t267 116q170 0 268 -120t98 -320q0 -207 -100.5 -324t-265.5 -117zM418 41q71 0 112 63t41 181q0 117 -40.5 180t-112.5 63t-113 -62.5t-41 -180.5q0 -116 41.5 -180t112.5 -64z" />
    <glyph glyph-name="uni2081" unicode="&#x2081;" horiz-adv-x="575" 
d="M469 -135h-211v581l-129 -88l-102 162l278 189h164v-844z" />
    <glyph glyph-name="uni2082" unicode="&#x2082;" horiz-adv-x="692" 
d="M641 -135h-594l-4 141l262 262q59 58 85 96t26 76t-25 62t-65 24q-33 0 -69 -19t-62 -58l-158 114q43 70 122.5 115t182.5 45q121 0 207 -70.5t86 -187.5q0 -77 -31 -139t-121 -144l-135 -123l2 -4h291v-190z" />
    <glyph glyph-name="uni2083" unicode="&#x2083;" horiz-adv-x="706" 
d="M354 -150q-119 0 -207 56.5t-120 144.5l188 76q30 -92 123 -92q47 0 75.5 25t28.5 65q0 42 -32.5 67t-90.5 25h-57v156h72q44 0 71 22t27 56q0 37 -26 61.5t-68 24.5q-74 0 -102 -74l-177 94q30 72 106.5 119t174.5 47q126 0 209.5 -62t83.5 -169q0 -126 -105 -189v-4
q134 -62 134 -201q0 -114 -85.5 -181t-222.5 -67z" />
    <glyph glyph-name="uni2084" unicode="&#x2084;" horiz-adv-x="724" 
d="M575 -135h-210v129h-342v127l387 588h165v-535h113v-180h-113v-129zM383 395l-150 -235h150v235z" />
    <glyph glyph-name="uni2085" unicode="&#x2085;" horiz-adv-x="702" 
d="M391 410q109 0 186.5 -76t77.5 -191q0 -130 -90.5 -211.5t-228.5 -81.5q-192 0 -311 130l155 126q52 -65 135 -65q52 0 88.5 28t36.5 76q0 56 -34 83.5t-84 27.5q-63 0 -115 -49l-113 43l27 459h487v-191h-311l-8 -125q63 17 102 17z" />
    <glyph glyph-name="uni2086" unicode="&#x2086;" horiz-adv-x="733" 
d="M424 408q104 0 181 -72.5t77 -194.5q0 -127 -91.5 -209t-223.5 -82q-134 0 -228 99t-94 254q0 125 54.5 235.5t164 191.5t256.5 109l58 -168q-121 -32 -192 -79.5t-105 -116.5l4 -2q65 35 139 35zM369 35q50 0 83 30.5t33 79.5q0 45 -30.5 74t-83.5 29q-74 0 -125 -60v-6
q0 -69 35 -108t88 -39z" />
    <glyph glyph-name="uni2087" unicode="&#x2087;" horiz-adv-x="643" 
d="M49 516v193h547v-140l-277 -727l-210 41l256 633h-316z" />
    <glyph glyph-name="uni2088" unicode="&#x2088;" horiz-adv-x="745" 
d="M373 -150q-140 0 -232 67.5t-92 180.5q0 80 43 138.5t107 85.5v4q-40 20 -70.5 67.5t-30.5 102.5q0 109 78 167t197 58q118 0 195 -58.5t77 -166.5q0 -56 -30 -103t-72 -67v-4q66 -27 109.5 -85.5t43.5 -138.5q0 -113 -93 -180.5t-230 -67.5zM371 397q40 0 65 22.5
t25 57.5q0 34 -25 57t-65 23q-36 1 -62 -22.5t-26 -57.5q0 -35 25 -57.5t63 -22.5zM373 27q49 0 80.5 27.5t31.5 70.5q0 42 -31 72t-81 30q-49 -1 -81 -30.5t-32 -71.5t32.5 -70t80.5 -28z" />
    <glyph glyph-name="uni2089" unicode="&#x2089;" horiz-adv-x="729" 
d="M365 721q134 0 226.5 -97.5t92.5 -252.5q0 -126 -52.5 -237.5t-160.5 -193.5t-254 -106l-55 168q232 55 293 199l-2 2q-67 -37 -146 -37q-106 0 -183 72t-77 194q0 127 92.5 208t225.5 81zM244 428q0 -45 32 -74.5t84 -29.5q73 0 125 61v4q0 71 -35 110.5t-88 39.5
q-50 0 -84 -31t-34 -80z" />
    <glyph glyph-name="uni208A" unicode="&#x208a;" horiz-adv-x="712" 
d="M446 344h193v-172h-193v-197h-182v197h-192v172h192v195h182v-195z" />
    <glyph glyph-name="uni208B" unicode="&#x208b;" horiz-adv-x="729" 
d="M647 162h-565v186h565v-186z" />
    <glyph glyph-name="uni208C" unicode="&#x208c;" horiz-adv-x="759" 
d="M662 354h-566v164h566v-164zM662 20h-566v166h566v-166z" />
    <glyph glyph-name="uni208D" unicode="&#x208d;" horiz-adv-x="468" 
d="M418 -225l-170 -60q-150 275 -150 559q0 155 43.5 303t118.5 259l160 -70q-47 -70 -87 -212t-40 -280q0 -146 37.5 -276.5t87.5 -222.5z" />
    <glyph glyph-name="uni208E" unicode="&#x208e;" horiz-adv-x="468" 
d="M221 -285l-170 60q50 92 87.5 222.5t37.5 276.5q0 138 -40 280t-87 212l160 70q75 -111 118.5 -259t43.5 -303q0 -284 -150 -559z" />
    <glyph glyph-name="colonmonetary" unicode="&#x20a1;" horiz-adv-x="1198" 
d="M997 313l154 -207q-176 -122 -401 -122q-112 0 -207 26l-74 -174l-125 49l74 174q-18 9 -80 50l-113 -273l-125 49l136 324q-146 187 -146 487q0 333 170.5 526.5t480.5 196.5l39 94l125 -47l-24 -59q47 -9 90 -23l53 129l125 -47l-57 -135l49 -31l-148 -210h-2
l-348 -836q49 -12 107 -12q144 0 247 71zM778 1161l-323 -774q31 -46 67 -74l348 832q-39 13 -92 16zM381 696q0 -71 8 -118l238 567q-115 -35 -180.5 -146.5t-65.5 -302.5z" />
    <glyph glyph-name="lira" unicode="&#x20a4;" horiz-adv-x="1155" 
d="M512 453v-197h590v-256h-1016v256h137v197h-114v163h114v127h-114v166h114v21q0 130 34.5 227t95 153.5t135 83.5t163.5 27q120 0 228.5 -52t181.5 -146l-143 -187q-47 59 -108 92t-120 33q-39 0 -69.5 -11t-57 -37.5t-41 -78t-14.5 -125.5h315v-166h-315v-127h315v-163
h-311z" />
    <glyph glyph-name="uni20A6" unicode="&#x20a6;" horiz-adv-x="1355" 
d="M1317 913v-159h-115v-121h115v-160h-115v-473h-297l-227 473h-248v-473h-276v473h-115v160h115v121h-115v159h115v494h292l238 -494h242v494h276v-494h115zM434 1032h-4v-119h51zM430 754v-121h170l-53 112l-6 17v-8h-111zM819 633h107v121h-164l55 -117zM922 371h4v102
h-45z" />
    <glyph glyph-name="peseta" unicode="&#x20a7;" horiz-adv-x="1329" 
d="M1153 1020h135v-166h-137q-24 -191 -151 -279t-330 -88h-199v-487h-285v854h-145v166h145v387h494q216 0 334 -102.5t139 -284.5zM664 1165h-197v-145h403q-39 145 -206 145zM467 715h201q168 0 204 139h-405v-139z" />
    <glyph glyph-name="dong" unicode="&#x20ab;" horiz-adv-x="1249" 
d="M1124 1321h119v-193h-119v-1128h-256v123h-2q-110 -141 -309 -141q-209 0 -344 143t-135 373q0 226 135 372t338 146q193 0 297 -131h4v243h-358v193h358v186h272v-186zM606 223q112 0 187 76t75 197q0 122 -73.5 201t-188.5 79q-110 0 -183 -77t-73 -203
q0 -120 71.5 -196.5t184.5 -76.5zM1118 -342h-973v233h973v-233z" />
    <glyph glyph-name="Euro" unicode="&#x20ac;" horiz-adv-x="1230" 
d="M1030 313l156 -207q-176 -122 -391 -122q-111 0 -210 28t-185.5 85.5t-149.5 154t-92 223.5h-135v164h114q-2 18 -2 57q0 47 2 70h-114v166h139q56 233 220.5 360t412.5 127q208 0 381 -119l-162 -204q-103 67 -219 67q-113 0 -200.5 -57t-129.5 -174h467v-166h-502
q-2 -23 -2 -70q0 -39 2 -57h502v-164h-469q41 -117 129.5 -175t202.5 -58q132 0 235 71z" />
    <glyph glyph-name="uni20AE" unicode="&#x20ae;" horiz-adv-x="1150" 
d="M1087 1407v-256h-370v-260l233 96l72 -147l-305 -127v-129l229 94l74 -150l-303 -125v-403h-289v283l-225 -93l-76 148l301 125v131l-221 -92l-76 147l297 123v379h-365v256h1024z" />
    <glyph glyph-name="uni20B1" unicode="&#x20b1;" horiz-adv-x="1329" 
d="M1128 1130h158v-153h-129v-35v-31h129v-153h-156q-87 -271 -460 -271h-199v-487h-285v758h-145v153h145v66h-145v153h145v277h494q181 0 293 -72.5t155 -204.5zM684 1178h-217v-68h385q-53 68 -168 68zM893 977h-426v-66h428v23q0 29 -2 43zM467 702h221q128 0 174 76
h-395v-76z" />
    <glyph glyph-name="uni20B2" unicode="&#x20b2;" horiz-adv-x="1347" 
d="M825 786h400v-647q-69 -68 -172.5 -106.5t-216.5 -46.5v-232h-197v242q-110 19 -201 69t-163 133.5t-112 210.5t-40 287q0 293 135.5 480t380.5 231v205h197v-195q202 -12 366 -145l-164 -205q-95 83 -213 94v-375zM414 696q0 -179 64 -287t173 -147v879
q-110 -42 -173.5 -153.5t-63.5 -291.5zM971 295v250h-146v-301q89 12 146 51z" />
    <glyph glyph-name="uni20B4" unicode="&#x20b4;" horiz-adv-x="1177" 
d="M938 385l162 -211q-204 -192 -529 -192q-214 0 -337 82.5t-123 209.5q0 121 104 199h-131v160h227q24 10 101 45t118 53h-446v158h573q99 83 99 151q0 58 -43.5 84.5t-112.5 26.5q-158 0 -315 -129l-162 217q106 81 235 126.5t256 45.5q202 0 326.5 -91.5t124.5 -225.5
q0 -131 -123 -205h129v-158h-184q-32 -13 -69.5 -29.5t-83.5 -37t-72 -31.5h409v-160h-622q-54 -51 -54 -108q0 -54 52 -89.5t155 -35.5q194 0 336 145z" />
    <glyph glyph-name="uni20B5" unicode="&#x20b5;" horiz-adv-x="1243" 
d="M1047 334l153 -209q-158 -125 -362 -139v-232h-197v242q-111 20 -202.5 70.5t-163.5 133.5t-112 210t-40 286q0 294 136 481t382 230v205h197v-195q191 -12 356 -137l-164 -205q-89 74 -205 86v-917q125 9 222 90zM414 696q0 -178 64 -286t175 -148v879
q-110 -40 -174.5 -152t-64.5 -293z" />
    <glyph glyph-name="uni20B8" unicode="&#x20b8;" horiz-adv-x="1146" 
d="M63 1206v201h1020v-201h-1020zM428 889h-365v198h1020v-198h-368v-889h-287v889z" />
    <glyph glyph-name="uni20B9" unicode="&#x20b9;" horiz-adv-x="1212" 
d="M1116 1407v-201h-287v-4q54 -57 76 -125h211v-194h-192q-18 -152 -124 -242t-282 -117v-2l559 -522h-360l-578 543v207h250q187 0 229 141h-479v182h477q-45 137 -215 137h-262v197h977z" />
    <glyph glyph-name="uni20BA" unicode="&#x20ba;" horiz-adv-x="1167" 
d="M909 547l224 -82q-80 -253 -215 -359t-340 -106h-402v379l-135 -66l-68 148l203 98v131l-135 -65l-66 147l201 98v537h291v-395l317 153l66 -147l-383 -187v-131l317 156l66 -149l-383 -187v-293h90q134 0 213 72t139 248z" />
    <glyph glyph-name="uni20BC" unicode="&#x20bc;" horiz-adv-x="1503" 
d="M854 1612v-199q258 -27 393 -186t135 -422v-805h-274v791q0 303 -238 360v-954h-239v956q-122 -31 -180 -126t-58 -236v-791h-272v805q0 269 138 426t388 184v197h207z" />
    <glyph glyph-name="uni20BD" unicode="&#x20bd;" horiz-adv-x="1206" 
d="M670 541h-199v-115h465v-168h-465v-258h-285v258h-145v168h145v115h-145v176h145v690h494q121 0 213.5 -33t149.5 -93t85.5 -139t28.5 -175q0 -113 -36 -196.5t-102.5 -133t-153 -73t-195.5 -23.5zM643 1151h-176v-401h176q107 0 162 54.5t55 141.5q0 95 -56 150t-161 55
z" />
    <glyph glyph-name="uni2113" unicode="&#x2113;" horiz-adv-x="942" 
d="M817 254l82 -57q-65 -106 -157 -160.5t-201 -54.5q-162 0 -251 77.5t-108 219.5q-14 -11 -52 -42t-60 -47l-52 70q20 17 77 61t83 68l4 535q1 125 26.5 216.5t72.5 145.5t107 79.5t136 25.5q114 0 176 -83.5t62 -215.5q0 -161 -95 -319t-274 -327v-43q0 -88 17.5 -150
t48 -92t62 -42.5t67.5 -12.5q65 0 125 43t104 105zM551 1260q-64 0 -112 -78.5t-48 -249.5l2 -365q279 292 279 508q0 185 -121 185z" />
    <glyph glyph-name="uni2116" unicode="&#x2116;" horiz-adv-x="2285" 
d="M1843 838q-145 0 -236 87.5t-91 225.5q0 137 91.5 224t235.5 87q143 0 236.5 -87t93.5 -224q0 -138 -93 -225.5t-237 -87.5zM444 0h-286v1454h282l654 -981h4v981h284v-1454h-288l-645 961h-5v-961zM1843 1010q56 0 93.5 40t37.5 101t-37 101t-94 40q-58 0 -94.5 -39.5
t-36.5 -101.5q0 -61 36.5 -101t94.5 -40zM2167 737v-184h-631v184h631z" />
    <glyph glyph-name="uni2117" unicode="&#x2117;" horiz-adv-x="1474" 
d="M735 -2q-133 0 -253.5 52.5t-207 140.5t-137.5 209t-51 253q0 131 51 251.5t137.5 209.5t207.5 142t255 53q180 0 329.5 -89.5t234.5 -240t85 -326.5t-85.5 -326.5t-235.5 -239.5t-330 -89zM735 170q132 0 242 65.5t172.5 176t62.5 241.5q0 201 -137 341.5t-338 140.5
q-202 0 -339.5 -142.5t-137.5 -343.5q0 -199 137 -339t338 -140zM651 326h-147v663h256q116 0 174.5 -62.5t58.5 -164.5q0 -108 -65 -164.5t-180 -56.5h-97v-215zM653 852v-176h72q53 0 82 23.5t29 64.5q0 38 -28 63t-79 25h-76z" />
    <glyph glyph-name="uni2120" unicode="&#x2120;" horiz-adv-x="1431" 
d="M322 784q-160 0 -267 101l92 116q77 -77 168 -77q37 0 60.5 14.5t23.5 38.5q0 25 -20 38.5t-76 33.5q-2 1 -3.5 1.5t-4 1t-4.5 1.5q-30 10 -44.5 15.5t-41.5 17t-41 21.5t-33 26.5t-28.5 34t-16 42.5t-6.5 54q2 88 60.5 141.5t166.5 54.5q131 0 242 -80l-82 -125
q-85 64 -152 64q-27 0 -49 -12.5t-22 -36.5q0 -21 25.5 -35.5t103.5 -42.5q95 -34 144.5 -77.5t49.5 -121.5q0 -56 -20.5 -97.5t-55.5 -65t-77.5 -35t-91.5 -11.5zM823 793h-157v661h165l179 -346l174 346h166v-661h-162v360l-129 -235h-105l-131 235v-360z" />
    <glyph glyph-name="trademark" unicode="&#x2122;" horiz-adv-x="1402" 
d="M377 793h-166v516h-170v145h506v-145h-170v-516zM795 793h-158v661h166l176 -346l176 346h166v-661h-162v360l-129 -235h-104l-131 235v-360z" />
    <glyph glyph-name="uni2126" unicode="&#x2126;" horiz-adv-x="1556" 
d="M682 0h-567v256h231l2 4q-121 102 -187.5 239.5t-66.5 299.5q0 143 49.5 267.5t137.5 214t216.5 141t280.5 51.5t280.5 -51.5t216.5 -141t137.5 -214t49.5 -267.5q0 -162 -66.5 -299.5t-187.5 -239.5l2 -4h234v-256h-570v256q287 227 287 535q0 184 -106 299.5
t-277 115.5q-171 -1 -277 -116.5t-106 -298.5q0 -306 287 -535v-256z" />
    <glyph glyph-name="estimated" unicode="&#x212e;" horiz-adv-x="1619" 
d="M809 -20q-197 0 -360 88.5t-256 239t-93 329.5q0 137 56 259.5t151.5 209.5t226 137.5t275.5 50.5q198 0 362 -88.5t257.5 -239t93.5 -329.5v-19h-1045v-471q70 -45 159 -70.5t175 -25.5q272 0 430 172h121q-94 -113 -241.5 -178t-311.5 -65zM477 1124v-422h666v428
q-66 44 -154.5 67.5t-177.5 23.5q-91 0 -179.5 -25t-154.5 -72z" />
    <glyph glyph-name="oneeighth" unicode="&#x215b;" horiz-adv-x="1736" 
d="M1266 1399l-645 -1448l-203 88l643 1448zM469 612h-211v582l-129 -88l-102 162l278 188h164v-844zM1364 -14q-140 0 -232 67t-92 180q0 80 43 138.5t107 85.5v4q-40 20 -70 67.5t-30 102.5q0 109 77.5 167t196.5 58q118 0 195 -58.5t77 -166.5q0 -56 -30 -103t-72 -67v-4
q66 -27 110 -85.5t44 -138.5q0 -113 -93.5 -180t-230.5 -67zM1362 532q40 0 65 22.5t25 57.5q0 34 -25 57t-65 23q-36 1 -62 -22.5t-26 -57.5q0 -35 25 -57.5t63 -22.5zM1364 162q49 0 81 27.5t32 70.5q0 42 -31.5 72t-81.5 30q-49 -1 -81 -30.5t-32 -71.5t32.5 -70
t80.5 -28z" />
    <glyph glyph-name="threeeighths" unicode="&#x215c;" horiz-adv-x="1806" 
d="M1335 1399l-645 -1448l-203 88l643 1448zM354 598q-119 0 -207 56.5t-120 144.5l188 75q30 -92 123 -92q47 0 75.5 25t28.5 65q0 42 -32.5 67.5t-90.5 25.5h-57v155h72q44 0 71 22t27 56q0 37 -26 61.5t-68 24.5q-74 0 -102 -74l-177 95q30 72 106.5 118.5t174.5 46.5
q126 0 209.5 -62t83.5 -169q0 -125 -105 -188v-4q134 -62 134 -201q0 -114 -85.5 -181t-222.5 -67zM1434 -14q-140 0 -232 67t-92 180q0 80 43 138.5t107 85.5v4q-40 20 -70.5 67.5t-30.5 102.5q0 109 78 167t197 58q118 0 195 -58.5t77 -166.5q0 -56 -30 -103t-72 -67v-4
q66 -27 109.5 -85.5t43.5 -138.5q0 -113 -93 -180t-230 -67zM1432 532q40 0 65 22.5t25 57.5q0 34 -25 57t-65 23q-37 1 -63 -22.5t-26 -57.5q0 -35 25.5 -57.5t63.5 -22.5zM1434 162q49 0 80.5 27.5t31.5 70.5q0 42 -31 72t-81 30q-49 -1 -81 -30.5t-32 -71.5t32.5 -70
t80.5 -28z" />
    <glyph glyph-name="fiveeighths" unicode="&#x215d;" horiz-adv-x="1792" 
d="M473 39l643 1448l205 -88l-645 -1448zM655 891q0 -130 -90.5 -211.5t-228.5 -81.5q-193 0 -311 129l155 127q53 -66 135 -66q52 0 88.5 28.5t36.5 76.5q0 56 -34 83.5t-84 27.5q-62 0 -115 -50l-113 43l27 459h487v-190h-311l-8 -125q59 16 102 16q109 0 186.5 -75.5
t77.5 -190.5zM1589 461v-4q66 -27 110 -85.5t44 -138.5q0 -113 -93.5 -180t-230.5 -67q-140 0 -231.5 67t-91.5 180q0 80 42.5 138.5t106.5 85.5v4q-40 20 -70 67.5t-30 102.5q0 109 77.5 167t196.5 58t196 -58.5t77 -166.5q0 -56 -30.5 -103t-72.5 -67zM1417 692
q-36 1 -62 -22.5t-26 -57.5q0 -35 25 -57.5t63 -22.5q40 0 65 22.5t25 57.5q0 34 -25 57t-65 23zM1419 162q49 0 81 27.5t32 70.5q0 42 -31.5 72t-81.5 30q-49 -1 -80.5 -30.5t-31.5 -71.5t32 -70t80 -28z" />
    <glyph glyph-name="seveneighths" unicode="&#x215e;" horiz-adv-x="1656" 
d="M338 39l643 1448l205 -88l-645 -1448zM49 1456h547v-139l-277 -727l-210 41l256 633h-316v192zM1454 461v-4q66 -27 110 -85.5t44 -138.5q0 -113 -93.5 -180t-230.5 -67q-140 0 -231.5 67t-91.5 180q0 80 42.5 138.5t106.5 85.5v4q-40 20 -70 67.5t-30 102.5
q0 109 77.5 167t196.5 58q118 0 195 -58.5t77 -166.5q0 -56 -30 -103t-72 -67zM1282 692q-36 1 -62 -22.5t-26 -57.5q0 -35 25 -57.5t63 -22.5q40 0 65 22.5t25 57.5q0 34 -25 57t-65 23zM1284 162q49 0 81 27.5t32 70.5q0 42 -31.5 72t-81.5 30q-49 -1 -81 -30.5t-32 -71.5
t32.5 -70t80.5 -28z" />
    <glyph glyph-name="arrowleft" unicode="&#x2190;" horiz-adv-x="1280" 
d="M545 424l2 -274l-547 397l547 399l-2 -276h641v-246h-641z" />
    <glyph glyph-name="arrowup" unicode="&#x2191;" horiz-adv-x="1159" 
d="M580 1186l397 -547l-275 2v-641h-245v641l-277 -2z" />
    <glyph glyph-name="arrowright" unicode="&#x2192;" horiz-adv-x="1280" 
d="M1280 547l-547 -397l2 274h-641v246h641l-2 276z" />
    <glyph glyph-name="arrowdown" unicode="&#x2193;" horiz-adv-x="1159" 
d="M702 545l275 2l-397 -547l-400 547l277 -2v641h245v-641z" />
    <glyph glyph-name="arrowboth" unicode="&#x2194;" horiz-adv-x="1724" 
d="M1178 946l546 -399l-546 -397l2 274h-635l2 -274l-547 397l547 399l-2 -276h635z" />
    <glyph glyph-name="arrowupdn" unicode="&#x2195;" horiz-adv-x="1157" 
d="M977 864l-277 2v-637l277 2l-399 -546l-398 546l275 -2v637l-275 -2l398 547z" />
    <glyph glyph-name="uni2196" unicode="&#x2196;" horiz-adv-x="1171" 
d="M440 539l-192 -195l-107 668l670 -105l-199 -194l455 -453l-174 -174z" />
    <glyph glyph-name="uni2197" unicode="&#x2197;" horiz-adv-x="1171" 
d="M1032 1012l-106 -668l-193 195l-452 -453l-175 174l455 453l-199 194z" />
    <glyph glyph-name="uni2198" unicode="&#x2198;" horiz-adv-x="1171" 
d="M1032 147l-667 107l194 192l-453 453l175 174l452 -455l195 199z" />
    <glyph glyph-name="uni2199" unicode="&#x2199;" horiz-adv-x="1171" 
d="M612 446l195 -192l-668 -107l105 670l194 -199l453 455l174 -174z" />
    <glyph glyph-name="partialdiff" unicode="&#x2202;" 
d="M571 1421q95 0 173.5 -30t132.5 -79.5t95.5 -119t66 -141.5t39.5 -155t20.5 -151.5t5.5 -138.5q0 -154 -40 -275t-110 -196t-161.5 -114t-198.5 -39q-138 0 -251.5 58t-181 165.5t-67.5 243.5q0 108 36 196.5t97 144.5t139.5 86.5t165.5 30.5q167 0 285 -86l6 4
q-12 79 -31.5 140t-52.5 112t-84.5 78.5t-119.5 28.5q-21 0 -46.5 -3.5t-43 -7t-51 -13.5t-44.5 -13t-50.5 -16.5t-43.5 -14.5l-76 221q212 84 391 84zM598 240q102 0 170.5 82.5t69.5 220.5q-45 59 -110 96t-136 37q-100 0 -159.5 -58t-59.5 -159q0 -91 63 -155t162 -64z
" />
    <glyph glyph-name="emptyset" unicode="&#x2205;" horiz-adv-x="1480" 
d="M1346 1137l-95 -95q129 -171 129 -391q0 -173 -84.5 -321.5t-233 -237t-325.5 -88.5q-221 0 -391 135l-102 -102l-109 108l103 103q-140 177 -140 403q0 173 84.5 321t233 236t325.5 88q229 0 402 -143l94 94zM311 649q0 -139 78 -250l602 602q-113 82 -252 82
q-181 0 -304.5 -127t-123.5 -307zM737 217q180 0 305 128t125 306q0 134 -69 238l-600 -598q107 -74 239 -74z" />
    <glyph glyph-name="uni2206" unicode="&#x2206;" horiz-adv-x="1398" 
d="M1329 0h-1259v221l485 1233h287l487 -1233v-221zM698 1098l-307 -842h613l-302 842h-4z" />
    <glyph glyph-name="product" unicode="&#x220f;" horiz-adv-x="1429" 
d="M446 -215h-288v1669h1114v-1669h-289v1413h-537v-1413z" />
    <glyph glyph-name="summation" unicode="&#x2211;" horiz-adv-x="1253" 
d="M1163 -158h-1065v203l449 604l-449 596v209h1065v-256h-680l-2 -8l387 -541l-387 -540l2 -7h680v-260z" />
    <glyph glyph-name="minus" unicode="&#x2212;" horiz-adv-x="1161" 
d="M94 684h973v-233h-973v233z" />
    <glyph glyph-name="radical" unicode="&#x221a;" horiz-adv-x="1495" 
d="M815 0h-178l-342 1024h-234v225h449l285 -884h4l620 1318h195z" />
    <glyph glyph-name="infinity" unicode="&#x221e;" horiz-adv-x="1576" 
d="M1128 922q145 0 243.5 -101.5t98.5 -251.5q0 -156 -100 -253t-242 -97q-188 0 -342 193q-150 -193 -337 -193q-146 0 -244.5 100.5t-98.5 249.5q0 158 100.5 255.5t242.5 97.5q189 0 337 -193q159 193 342 193zM463 424q53 0 101 36t104 109q-54 72 -100.5 110t-104.5 38
q-61 0 -101 -40t-40 -108q0 -67 40 -106t101 -39zM1118 424q56 0 95.5 39t39.5 106q0 68 -39 108t-96 40q-101 0 -211 -148q111 -145 211 -145z" />
    <glyph glyph-name="integral" unicode="&#x222b;" horiz-adv-x="854" 
d="M106 -354q-82 -2 -163 12l30 205h17q26 0 45 1.5t35 8.5t26 13t19.5 22t14.5 28t11 40t9.5 47.5t9.5 60.5l157 1051q24 145 106.5 221.5t197.5 81.5q118 2 215 -27l-29 -190q-17 0 -41 1t-33 1q-34 0 -56.5 -3.5t-39.5 -14.5t-27 -24.5t-18 -42.5t-13.5 -58.5
t-13.5 -81.5v-1l-157 -1050q-22 -141 -105 -218t-197 -83z" />
    <glyph glyph-name="uni2236" unicode="&#x2236;" horiz-adv-x="561" 
d="M272 805q-71 0 -120.5 48.5t-49.5 117.5q0 68 50 116t120 48q68 0 117 -48.5t49 -115.5q0 -69 -49 -117.5t-117 -48.5zM272 100q-71 0 -120.5 48.5t-49.5 117.5q0 68 50 116t120 48q68 0 117 -48.5t49 -115.5q0 -69 -49 -117.5t-117 -48.5z" />
    <glyph glyph-name="approxequal" unicode="&#x2248;" horiz-adv-x="1206" 
d="M838 633q-58 0 -129.5 25t-146 50t-140.5 25q-114 0 -242 -80l-74 178q38 40 120 86t169 46q54 0 113 -16t101.5 -35.5t97 -35.5t100.5 -16q112 0 213 90l78 -182q-44 -53 -112 -94t-148 -41zM838 180q-47 0 -102.5 16t-99 34.5t-102.5 34.5t-112 16q-114 0 -242 -80
l-74 176q36 40 119 86.5t170 46.5q69 0 143 -25.5t143 -51t126 -25.5q116 0 213 90l78 -183q-43 -54 -111 -94.5t-149 -40.5z" />
    <glyph glyph-name="notequal" unicode="&#x2260;" horiz-adv-x="1202" 
d="M1087 920v-234h-329l-111 -237h440v-234h-548l-103 -217l-170 65l72 152h-223v234h331l111 237h-442v234h551l110 237l170 -67l-80 -170h221z" />
    <glyph glyph-name="lessequal" unicode="&#x2264;" horiz-adv-x="1193" 
d="M1071 592v-254l-950 407v195l950 418v-260l-604 -252zM117 0v233h958v-233h-958z" />
    <glyph glyph-name="greaterequal" unicode="&#x2265;" horiz-adv-x="1191" 
d="M1079 745l-950 -407v254l604 254l-604 252v260l950 -418v-195zM125 233h958v-233h-958v233z" />
    <glyph glyph-name="filledbox" unicode="&#x25a0;" horiz-adv-x="1316" 
d="M1223 0h-1131v1128h1131v-1128z" />
    <glyph glyph-name="uni25A1" unicode="&#x25a1;" horiz-adv-x="1316" 
d="M1223 0h-1131v1128h1131v-1128zM299 922v-715h717v715h-717z" />
    <glyph glyph-name="triagup" unicode="&#x25b2;" horiz-adv-x="1314" 
d="M1298 0h-1284l643 1188z" />
    <glyph glyph-name="uni25B3" unicode="&#x25b3;" horiz-adv-x="1314" 
d="M1298 0h-1284l643 1188zM657 766l-307 -567h613z" />
    <glyph glyph-name="uni25B6" unicode="&#x25b6;" horiz-adv-x="1304" 
d="M1288 563l-1186 -641v1284z" />
    <glyph glyph-name="uni25B7" unicode="&#x25b7;" horiz-adv-x="1304" 
d="M1288 563l-1186 -641v1284zM303 870v-612l563 305z" />
    <glyph glyph-name="triagdn" unicode="&#x25bc;" horiz-adv-x="1314" 
d="M1298 1128l-641 -1185l-643 1185h1284z" />
    <glyph glyph-name="uni25BD" unicode="&#x25bd;" horiz-adv-x="1314" 
d="M1298 1128l-641 -1185l-643 1185h1284zM350 930l307 -565l306 565h-613z" />
    <glyph glyph-name="uni25C0" unicode="&#x25c0;" horiz-adv-x="1304" 
d="M1202 1206v-1284l-1188 641z" />
    <glyph glyph-name="uni25C1" unicode="&#x25c1;" horiz-adv-x="1304" 
d="M1202 1206v-1284l-1188 641zM436 563l565 -305v612z" />
    <glyph glyph-name="uni25C6" unicode="&#x25c6;" horiz-adv-x="1419" 
d="M1405 563l-694 -694l-697 694l697 697z" />
    <glyph glyph-name="uni25C7" unicode="&#x25c7;" horiz-adv-x="1419" 
d="M1405 563l-694 -694l-697 694l697 697zM299 563l412 -409l409 409l-409 412z" />
    <glyph glyph-name="lozenge" unicode="&#x25ca;" horiz-adv-x="1019" 
d="M944 692l-442 -692l-426 692l426 694zM338 692l166 -295l170 295l-170 301z" />
    <glyph glyph-name="circle" unicode="&#x25cb;" horiz-adv-x="1327" 
d="M664 -18q-157 0 -290.5 77.5t-211.5 211.5t-78 292q0 159 78 293.5t211.5 212.5t290.5 78t290.5 -78t211 -212.5t77.5 -293.5q0 -119 -46 -226.5t-123.5 -185t-184.5 -123.5t-225 -46zM664 190q154 0 263 109.5t109 263.5q0 155 -109 265t-263 110t-263.5 -110
t-109.5 -265q0 -154 109.5 -263.5t263.5 -109.5z" />
    <glyph glyph-name="uni25CF" unicode="&#x25cf;" horiz-adv-x="1327" 
d="M664 -18q-157 0 -290.5 77.5t-211.5 211.5t-78 292q0 159 78 293.5t211.5 212.5t290.5 78t290.5 -78t211 -212.5t77.5 -293.5q0 -119 -46 -226.5t-123.5 -185t-184.5 -123.5t-225 -46z" />
    <glyph glyph-name="uni2605" unicode="&#x2605;" horiz-adv-x="1548" 
d="M772 262l-465 -338l178 547l-467 342h578l176 549l180 -549h578l-469 -342l180 -547z" />
    <glyph glyph-name="uni2606" unicode="&#x2606;" horiz-adv-x="1548" 
d="M772 262l-465 -338l178 547l-467 342h578l176 549l180 -549h578l-469 -342l180 -547zM662 518l-68 -209l178 131l182 -131l-69 209l186 135h-227l-70 211l-67 -211h-230z" />
    <glyph glyph-name="uni2610" unicode="&#x2610;" horiz-adv-x="1316" 
d="M1223 0h-1131v1128h1131v-1128zM299 922v-715h717v715h-717z" />
    <glyph glyph-name="uni2611" unicode="&#x2611;" horiz-adv-x="1513" 
d="M1370 1626l178 -110l-325 -533v-983h-1131v1128h975zM299 207h717v438l-250 -409l-397 409l149 143l209 -217l213 351h-641v-715z" />
    <glyph glyph-name="uni2612" unicode="&#x2612;" horiz-adv-x="1316" 
d="M1223 0h-1131v1128h1131v-1128zM299 922v-715h717v715h-717zM659 420l-182 -178l-147 147l180 180l-180 179l147 147l178 -178l183 180l147 -149l-180 -181l180 -182l-145 -143z" />
    <glyph glyph-name="uni261A" unicode="&#x261a;" horiz-adv-x="2080" 
d="M860 174q-24 0 -143 111q-12 -2 -33 -2q-111 0 -111 82q0 39 17.5 64.5t56.5 53.5l-12 121q-6 51 43.5 76.5t175.5 50.5q-266 -4 -545 -4q-134 0 -200 80q-8 10 -12.5 20.5t-5.5 19.5t0.5 19t4 18t5.5 15.5t6 12t5 8.5l3 4q13 16 30 16l234 -8q37 -2 93.5 1.5t117 10
t125 15t122.5 17t103.5 16t73.5 12.5l28 4q6 3 13 0q127 -22 186 -31q41 -7 153 -20.5t148 -18.5v61q0 13 13.5 24t21.5 11h141l-4 25q-6 15 4.5 29t28.5 14h209q14 0 24.5 -10t10.5 -25v-852q0 -13 -10.5 -24t-24.5 -11h-209q-18 0 -28.5 13.5t-4.5 31.5l6 23h-141
q-13 0 -23 10t-10 23v43q-114 -15 -268 -15q10 -30 -23 -53t-69 -23q-5 0 -8.5 1.5l-7 3t-9 7t-10 10.5t-14.5 16t-19 20q11 -31 -24 -57.5t-66 -26.5q-13 0 -23.5 9t-46.5 48q-4 -40 -35.5 -65t-62.5 -25z" />
    <glyph glyph-name="uni261B" unicode="&#x261b;" horiz-adv-x="2082" 
d="M1221 174q-31 0 -63 25t-36 65q-3 -3 -9 -10q-38 -41 -49 -45q-4 -2 -11 -2q-31 0 -66 26.5t-24 57.5q-9 -9 -19 -20t-14.5 -16t-10 -10.5t-9 -7l-7 -3t-8.5 -1.5q-36 0 -69 23t-23 53q-154 0 -268 15v-43q0 -13 -9.5 -23t-23.5 -10h-142l7 -23q6 -18 -4.5 -31.5
t-28.5 -13.5h-209q-13 0 -24 11t-11 24v852q0 15 10.5 25t24.5 10h209q18 0 28.5 -14t4.5 -29l-5 -25h142q8 0 21.5 -11t13.5 -24v-61q36 5 148 18.5t153 20.5q59 9 186 31q6 3 12 0l28 -4q28 -5 74 -12.5t103.5 -16t122 -17t125.5 -15t117.5 -10t93.5 -1.5l233 8
q18 0 31 -16l2 -4q3 -4 6 -8.5t6 -12t5.5 -15.5t4 -18t0.5 -19t-5.5 -19.5t-12.5 -20.5q-66 -80 -200 -80q-279 0 -545 4q126 -25 175.5 -50.5t43.5 -76.5l-12 -121q38 -28 55.5 -53t17.5 -65q0 -82 -110 -82q-21 0 -33 2q-119 -111 -143 -111z" />
    <glyph glyph-name="uni261C" unicode="&#x261c;" horiz-adv-x="2080" 
d="M1956 180h-209q-17 0 -27 13t-6 32q43 159 55.5 230.5t12.5 185.5q0 66 -14 148t-54 270q-5 16 5 29.5t28 13.5h209q15 0 25 -10t10 -25v-852q0 -14 -10 -24.5t-25 -10.5zM1647 248h-66q-14 0 -24.5 10t-10.5 23l-2 718q0 13 12.5 24t20.5 11l59 2q54 -228 54 -393
q0 -166 -43 -395zM860 174q-24 0 -143 111q-10 -2 -31 -2q-113 0 -113 82q0 39 17.5 64.5t56.5 53.5l-12 121q-4 51 45.5 76.5t175.5 50.5q-266 -4 -545 -4q-136 0 -202 80q-38 47 8 117q10 16 30 16l232 -8q82 -4 248.5 15.5t283.5 38t131 22.5q13 0 25 -2q123 -22 174 -29
q151 -25 227 -51v-592q-73 -25 -190 -25q10 -30 -23 -53t-69 -23q-2 0 -4.5 0.5t-4.5 1t-4.5 2t-4.5 3t-5 5t-5.5 6t-7 7.5t-8.5 9t-10.5 11t-11.5 13q10 -31 -25.5 -57.5t-66.5 -26.5h-5.5t-5 1.5t-4.5 2.5t-5.5 4t-6 5t-7.5 7.5t-8.5 9.5t-11 12t-13.5 15q-4 -40 -36 -65
t-65 -25zM123 893q44 -47 121 -47q43 0 73 18t31 49q-66 -41 -117 -41q-29 0 -108 21zM657 463q70 23 125 27q81 5 211 -11q53 -5 84 16.5t35 71t-31 129.5q2 -45 -2 -76t-10 -47t-21 -23.5t-25.5 -9t-31.5 -1.5q-23 0 -29.5 11.5t-9.5 55.5q-13 -42 -22.5 -53.5
t-30.5 -11.5q-25 0 -38.5 15.5t-26.5 47.5q-4 -62 -43 -74q-89 -27 -134 -67zM840 356q3 55 -41 74q-46 18 -123 -4q63 0 108 -20q19 -9 33 -21.5t19 -20.5z" />
    <glyph glyph-name="uni261D" unicode="&#x261d;" horiz-adv-x="1292" 
d="M1077 848q0 -33 -25 -64.5t-65 -35.5q49 -45 54 -53q3 -7 3 -15q0 -31 -26 -66.5t-57 -25.5q49 -45 54 -53q3 -6 3 -13q0 -36 -23 -69t-53 -23q0 -120 -24 -190h-592q-28 82 -52 227q-12 84 -28 174q-2 12 -2 25q4 14 22.5 131t37.5 283.5t15 248.5l-8 232q0 20 17 30
q69 46 116 8q80 -66 80 -202q0 -279 -4 -545q25 126 50.5 175.5t76.5 45.5l121 -12q28 38 53.5 56t65.5 18q82 0 82 -113q0 -21 -2 -31q110 -118 110 -143zM358 1585q21 -79 21 -108q0 -51 -41 -117q31 1 49.5 31t18.5 73q0 76 -48 121zM788 1051q-41 -46 -67 -133
q-12 -40 -74 -44q21 -8 33 -15t21.5 -20t9.5 -30q0 -20 -12 -30t-54 -23q44 -3 56 -9.5t12 -29.5q0 -26 -3 -39t-17 -28.5t-48 -20.5t-90 -2q80 -35 129.5 -31t71 35t16.5 84q-12 98 -11 168t6.5 96.5t17.5 62.5zM895 868q-29 13 -49 56q-21 47 -21 108q-22 -77 -4 -123
q19 -44 74 -41zM1004 127v-66q-229 -43 -396 -43q-165 0 -393 54l2 59q0 8 11 20.5t24 12.5l719 -2q13 0 23 -10.5t10 -24.5zM1071 -39v-209q0 -15 -10.5 -25t-24.5 -10h-852q-15 0 -24.5 10t-9.5 25v209q0 18 13.5 28t29.5 5q189 -40 270 -54t147 -14q114 0 185.5 12.5
t230.5 55.5q19 4 32 -6t13 -27z" />
    <glyph glyph-name="uni261E" unicode="&#x261e;" horiz-adv-x="2080" 
d="M334 180h-209q-15 0 -25 10.5t-10 24.5v852q0 15 10 25t25 10h209q18 0 28 -13.5t5 -29.5q-40 -188 -54 -270t-14 -148q0 -114 12.5 -185.5t55.5 -230.5q4 -19 -6 -32t-27 -13zM500 248h-66q-43 229 -43 395q0 169 53 393l60 -2q8 0 20.5 -11t12.5 -24l-2 -718
q0 -13 -10.5 -23t-24.5 -10zM1221 174q-33 0 -65 25t-36 65q-6 -7 -13.5 -15t-11 -12t-8.5 -9.5t-7.5 -7.5t-6 -5t-5.5 -4t-4.5 -2.5t-5 -1.5h-5.5q-31 0 -66.5 26.5t-25.5 57.5q-5 -6 -11.5 -13t-10.5 -11t-8.5 -9t-7 -7.5t-5.5 -6t-5 -5t-4.5 -3t-4.5 -2t-4.5 -1
t-4.5 -0.5q-36 0 -69 23t-23 53q-118 0 -191 25v592q75 26 228 51q51 7 174 29q12 2 24 2q14 -4 131 -22.5t284 -38t249 -15.5l231 8q21 0 31 -16q46 -70 8 -117q-66 -80 -203 -80q-278 0 -544 4q126 -25 175.5 -50.5t45.5 -76.5l-12 -121q38 -28 55.5 -53t17.5 -65
q0 -82 -112 -82q-21 0 -31 2q-119 -111 -143 -111zM1958 893q-79 -21 -109 -21q-50 0 -116 41q1 -31 31 -49t73 -18q77 0 121 47zM1423 463q-46 41 -133 67q-39 12 -43 74q-6 -15 -11 -25t-12.5 -19.5t-18 -14t-23.5 -4.5q-21 0 -31 11.5t-23 53.5q-3 -44 -9 -55.5
t-29 -11.5q-21 0 -32 1.5t-25.5 9t-21 23.5t-10.5 47t-2 76q-35 -80 -31 -129.5t35 -71t84 -16.5q98 12 168 11t96.5 -6.5t62.5 -17.5zM1241 356q12 30 55 50q45 20 109 20q-77 22 -123 4q-44 -19 -41 -74z" />
    <glyph glyph-name="uni261F" unicode="&#x261f;" horiz-adv-x="1292" 
d="M1071 1583v-209q0 -17 -13 -27t-32 -6q-159 43 -230.5 55.5t-185.5 12.5q-66 0 -147 -14t-270 -54q-16 -5 -29.5 5t-13.5 28v209q0 15 9.5 25t24.5 10h852q14 0 24.5 -10t10.5 -25zM1004 1274v-66q0 -14 -10 -24t-23 -10l-719 -3q-13 0 -24 12.5t-11 20.5l-2 60
q224 53 393 53q167 0 396 -43zM1077 487q0 -25 -110 -143q2 -10 2 -31q0 -112 -82 -112q-40 0 -65.5 17.5t-53.5 55.5l-121 -12q-51 -4 -76.5 45.5t-50.5 175.5q4 -266 4 -544q0 -137 -80 -203q-47 -38 -116 8q-17 10 -17 31l8 231q4 82 -15 248.5t-37.5 284t-22.5 131.5
q0 12 2 24q16 90 28 174q24 147 52 228h592q24 -71 24 -191q30 10 53 -23t23 -69q0 -3 -0.5 -5t-1.5 -4.5t-2 -4.5t-4 -5.5t-5.5 -6t-8 -7t-9.5 -8.5t-12 -11t-14 -13q31 10 57 -26t26 -67v-5.5t-1.5 -5t-2.5 -4.5t-4 -5.5t-5 -6t-7.5 -7.5t-9.5 -8.5t-12 -11t-15 -13.5
q40 -4 65 -36t25 -65zM788 285q-23 70 -27 125q-5 81 11 211q5 53 -16.5 84t-71 35t-129.5 -31q56 3 90 -2t48 -20.5t17 -29t3 -39.5q0 -23 -12 -29t-56 -9q42 -13 54 -23t12 -31q0 -25 -16 -38.5t-48 -26.5q62 -4 74 -43q26 -87 67 -133zM895 467q-55 3 -74 -41
q-18 -46 4 -123q0 62 21 109q9 19 21 33t20 18zM358 -250q48 45 48 121q0 43 -18.5 73t-49.5 31q41 -66 41 -116q0 -30 -21 -109z" />
    <glyph glyph-name="uni2713" unicode="&#x2713;" horiz-adv-x="1175" 
d="M1217 1516l-785 -1280l-395 409l147 143l209 -217l645 1055z" />
    <glyph glyph-name="uni2715" unicode="&#x2715;" horiz-adv-x="741" 
d="M373 420l-191 -187l-147 148l188 188l-188 187l147 147l187 -186l188 188l148 -149l-187 -189l187 -188l-146 -146z" />
    <glyph glyph-name="uni2766" unicode="&#x2766;" horiz-adv-x="1351" 
d="M1092 1352q90 -1 144 -48t54 -122q0 -82 -50.5 -135.5t-127.5 -53.5q-42 0 -71 19.5t-35 52.5q-3 9 2.5 16.5t13.5 5.5q111 -20 111 48q0 28 -22 46.5t-56 18.5q-38 0 -122.5 -13.5t-184.5 -43.5q-18 -65 -15 -135l-94 -70q-39 74 -51 152q-176 -62 -285 -60
q-90 1 -144.5 48t-54.5 122q0 82 51 135.5t128 53.5q41 0 69.5 -20.5t36.5 -53.5q2 -5 -3 -13.5t-11 -7.5q-53 13 -83 0t-30 -47q0 -28 22 -46.5t56 -18.5q64 0 256 63q27 103 104.5 167.5t184.5 64.5q66 0 112 -35t52 -90h43zM911 1374q-73 0 -106 -65q119 29 178 37
q-25 28 -72 28zM918 969q137 0 227 -98t90 -240q0 -105 -29.5 -207t-86 -196.5t-146 -173t-201.5 -133.5t-261 -79.5t-318 -11.5q-21 1 -32 22.5t-11 51.5q0 60 43 63q100 9 146 42t46 102q0 81 -123 184q-112 93 -157.5 175.5t-45.5 195.5q0 123 92.5 211t227.5 88
q82 0 151.5 -35.5t112.5 -98.5q45 65 117 101.5t158 36.5z" />
    <glyph glyph-name="uni2767" unicode="&#x2767;" horiz-adv-x="1935" 
d="M479 795q-126 -80 -181.5 -147.5t-55.5 -141.5q0 -45 21.5 -70.5t53.5 -25.5q34 0 72 41q4 5 13.5 3.5t15.5 -10.5q12 -21 12 -45q0 -54 -54.5 -96.5t-117.5 -42.5q-92 0 -144.5 65t-52.5 158q0 178 183 326q-15 47 -15 90q0 91 60.5 152t163.5 61q89 0 174 -53
q67 57 67 96q0 23 -17.5 39t-37.5 16q-43 0 -76 -61q-3 -4 -12 -1.5t-14 7.5q-13 23 -13 45q0 55 49 94t111 41q79 1 131.5 -51.5t52.5 -120.5q0 -104 -133 -207q50 -69 70 -143l-115 -14q-48 51 -84 71q-21 -13 -64 -37.5t-63 -37.5zM1884 430q48 -52 21 -84
q-179 -202 -374.5 -298.5t-387.5 -94.5q-186 2 -334 63t-230.5 167t-82.5 237q0 96 56 176t145 118.5t182 22.5q-17 94 23.5 182.5t121.5 142.5t178 54q144 0 236.5 -114.5t95.5 -280.5q2 -175 5 -206q10 -112 67 -138q23 -10 53 -10q62 0 149 75q36 31 76 -12zM410 956
q-49 0 -82.5 -34t-28.5 -72q41 30 98 63l58 33q-27 10 -45 10z" />
    <glyph glyph-name="uni2780" unicode="&#x2780;" horiz-adv-x="1564" 
d="M782 -20q-198 0 -367 97.5t-267.5 266t-98.5 367.5q0 148 58.5 284t156.5 234t234 156.5t284 58.5t284 -58.5t234.5 -156.5t157 -234t58.5 -284q0 -199 -99 -367.5t-267.5 -266t-367.5 -97.5zM782 156q113 0 216 44t178 118t119 177t44 216t-44 216t-119 178t-178 119
t-216 44t-216 -44t-178 -119t-119 -178t-44 -216t44 -216t119 -177t178 -118t216 -44zM915 293h-210v581l-130 -88l-102 162l279 189h163v-844z" />
    <glyph glyph-name="uni2781" unicode="&#x2781;" horiz-adv-x="1564" 
d="M782 -20q-198 0 -367 97.5t-267.5 266t-98.5 367.5q0 148 58.5 284t156.5 234t234 156.5t284 58.5t284 -58.5t234.5 -156.5t157 -234t58.5 -284q0 -199 -99 -367.5t-267.5 -266t-367.5 -97.5zM782 156q113 0 216 44t178 118.5t119 177.5t44 215q0 113 -44 216t-119 178
t-178 119t-216 44t-216 -44t-178 -119t-119 -178t-44 -216t44 -216t119 -177t178 -118t216 -44zM1087 293h-593l-5 141l263 262q59 57 84.5 95.5t25.5 76.5t-25 62t-65 24q-33 0 -69 -19t-62 -58l-158 114q43 70 122.5 115t182.5 45q121 0 207 -70.5t86 -187.5
q0 -78 -30.5 -139.5t-120.5 -143.5l-135 -123l2 -4h290v-190z" />
    <glyph glyph-name="uni2782" unicode="&#x2782;" horiz-adv-x="1564" 
d="M782 -20q-198 0 -367 97.5t-267.5 266t-98.5 367.5q0 148 58.5 284t156.5 234t234 156.5t284 58.5t284 -58.5t234.5 -156.5t157 -234t58.5 -284q0 -199 -99 -367.5t-267.5 -266t-367.5 -97.5zM782 156q113 0 216 44t178 118t119 177t44 216t-44 216t-119 178t-178 119
t-216 44t-216 -44t-178 -119t-119 -178t-44 -216t44 -216t119 -177t178 -118t216 -44zM793 279q-120 0 -208 56t-120 144l188 76q30 -92 123 -92q47 0 76 25t29 65q0 42 -32.5 67t-90.5 25h-58v156h72q44 0 71 22t27 56q0 37 -26 61.5t-68 24.5q-74 0 -102 -74l-176 94
q30 72 106.5 119t173.5 47q126 0 209.5 -62t83.5 -169q0 -126 -104 -189v-4q133 -62 133 -201q0 -114 -85 -180.5t-222 -66.5z" />
    <glyph glyph-name="uni2783" unicode="&#x2783;" horiz-adv-x="1564" 
d="M782 -20q-198 0 -367 97.5t-267.5 266t-98.5 367.5q0 148 58.5 284t156.5 234t234 156.5t284 58.5t284 -58.5t234.5 -156.5t157 -234t58.5 -284q0 -199 -99 -367.5t-267.5 -266t-367.5 -97.5zM782 156q113 0 216 44t178 118t119 177t44 216t-44 216t-119 178t-178 119
t-216 44t-216 -44t-178 -119t-119 -178t-44 -216t44 -216t119 -177t178 -118t216 -44zM979 293h-211v129h-342v127l387 588h166v-535h113v-180h-113v-129zM786 823l-149 -235h149v235z" />
    <glyph glyph-name="uni2784" unicode="&#x2784;" horiz-adv-x="1564" 
d="M782 1444q148 0 284 -58.5t234.5 -156.5t157 -234t58.5 -284q0 -199 -99 -367.5t-267.5 -266t-367.5 -97.5q-198 0 -367 97.5t-267.5 266t-98.5 367.5q0 148 58.5 284t156.5 234t234 156.5t284 58.5zM782 156q113 0 216 44t178 118t119 177t44 216t-44 216t-119 178
t-178 119t-216 44t-216 -44t-178 -119t-119 -178t-44 -216t44 -216t119 -177t178 -118t216 -44zM836 838q109 0 186.5 -76t77.5 -191q0 -130 -91 -211t-229 -81q-193 0 -311 129l156 127q53 -66 135 -66q52 0 88.5 28t36.5 76q0 56 -34 83.5t-85 27.5q-63 0 -115 -49
l-112 43l26 459h488v-191h-312l-8 -125q63 17 103 17z" />
    <glyph glyph-name="uni2785" unicode="&#x2785;" horiz-adv-x="1564" 
d="M782 1444q148 0 284 -58.5t234.5 -156.5t157 -234t58.5 -284q0 -199 -99 -367.5t-267.5 -266t-367.5 -97.5q-198 0 -367 97.5t-267.5 266t-98.5 367.5q0 148 58.5 284t156.5 234t234 156.5t284 58.5zM782 156q113 0 216 44t178 118t119 177t44 216t-44 216t-119 178
t-178 119t-216 44t-216 -44t-178 -119t-119 -178t-44 -216t44 -216t119 -177t178 -118t216 -44zM827 834q104 0 181 -72.5t77 -194.5q0 -127 -91.5 -209t-223.5 -82q-134 0 -227.5 99t-93.5 254q0 125 54.5 235.5t164 191.5t256.5 109l57 -168q-121 -32 -192 -79.5
t-105 -116.5l4 -2q65 35 139 35zM772 461q50 0 83.5 30.5t33.5 79.5q0 45 -31 74t-84 29q-74 0 -125 -60v-6q0 -69 35 -108t88 -39z" />
    <glyph glyph-name="uni2786" unicode="&#x2786;" horiz-adv-x="1564" 
d="M782 1444q148 0 284 -58.5t234.5 -156.5t157 -234t58.5 -284q0 -199 -99 -367.5t-267.5 -266t-367.5 -97.5q-198 0 -367 97.5t-267.5 266t-98.5 367.5q0 148 58.5 284t156.5 234t234 156.5t284 58.5zM782 156q113 0 216 44t178 118t119 177t44 216t-44 216t-119 178
t-178 119t-216 44t-216 -44t-178 -119t-119 -178t-44 -216t44 -216t119 -177t178 -118t216 -44zM842 944h-316v193h547v-140l-276 -727l-211 41z" />
    <glyph glyph-name="uni2787" unicode="&#x2787;" horiz-adv-x="1564" 
d="M782 -20q-198 0 -367 97.5t-267.5 266t-98.5 367.5q0 148 58.5 284t156.5 234t234 156.5t284 58.5t284 -58.5t234.5 -156.5t157 -234t58.5 -284q0 -199 -99 -367.5t-267.5 -266t-367.5 -97.5zM782 156q113 0 216 44t178 118t119 177t44 216t-44 216t-119 178t-178 119
t-216 44t-216 -44t-178 -119t-119 -178t-44 -216t44 -216t119 -177t178 -118t216 -44zM788 279q-140 0 -231.5 67t-91.5 180q0 80 42.5 138.5t106.5 85.5v4q-40 20 -70 67.5t-30 102.5q0 109 77.5 167t196.5 58q118 0 195.5 -58.5t77.5 -166.5q0 -56 -30.5 -103t-72.5 -67
v-4q66 -27 110 -85.5t44 -138.5q0 -113 -93.5 -180t-230.5 -67zM786 825q40 0 65.5 22.5t25.5 57.5q0 34 -25 57t-66 23q-36 1 -62 -22.5t-26 -57.5q0 -35 25 -57.5t63 -22.5zM788 455q49 0 81 27.5t32 70.5q0 42 -31.5 72t-81.5 30q-49 -1 -80.5 -30.5t-31.5 -71.5t32 -70
t80 -28z" />
    <glyph glyph-name="uni2788" unicode="&#x2788;" horiz-adv-x="1564" 
d="M782 1444q148 0 284 -58.5t234.5 -156.5t157 -234t58.5 -284q0 -199 -99 -367.5t-267.5 -266t-367.5 -97.5q-198 0 -367 97.5t-267.5 266t-98.5 367.5q0 148 58.5 284t156.5 234t234 156.5t284 58.5zM782 156q113 0 216 44t178 118t119 177t44 216t-44 216t-119 178
t-178 119t-216 44t-216 -44t-178 -119t-119 -178t-44 -216t44 -216t119 -177t178 -118t216 -44zM791 1149q134 0 226.5 -97.5t92.5 -252.5q0 -126 -52.5 -237.5t-160.5 -193.5t-254 -106l-55 168q232 55 293 199l-2 2q-67 -37 -146 -37q-106 0 -183 72t-77 194
q0 127 92.5 208t225.5 81zM670 856q0 -45 32 -74.5t84 -29.5q73 0 125 61v4q0 71 -35 110.5t-88 39.5q-50 0 -84 -31t-34 -80z" />
    <glyph glyph-name="uni278A" unicode="&#x278a;" horiz-adv-x="1564" 
d="M782 -20q-198 0 -367 97.5t-267.5 266t-98.5 367.5q0 148 58.5 284t156.5 234t234 156.5t284 58.5t284 -58.5t234.5 -156.5t157 -234t58.5 -284q0 -199 -99 -367.5t-267.5 -266t-367.5 -97.5zM705 874v-581h210v844h-163l-279 -189l102 -162z" />
    <glyph glyph-name="uni278B" unicode="&#x278b;" horiz-adv-x="1564" 
d="M782 -20q-198 0 -367 97.5t-267.5 266t-98.5 367.5q0 148 58.5 284t156.5 234t234 156.5t284 58.5t284 -58.5t234.5 -156.5t157 -234t58.5 -284q0 -199 -99 -367.5t-267.5 -266t-367.5 -97.5zM489 434l5 -141h593v192h-290v2l133 123q90 83 119.5 144t29.5 141
q0 116 -85 186t-206 70q-103 0 -182.5 -45t-122.5 -115l156 -114q53 77 131 77q41 0 66.5 -24t25.5 -62t-24.5 -75.5t-85.5 -96.5z" />
    <glyph glyph-name="uni278C" unicode="&#x278c;" horiz-adv-x="1564" 
d="M782 -20q-198 0 -367 97.5t-267.5 266t-98.5 367.5q0 148 58.5 284t156.5 234t234 156.5t284 58.5t284 -58.5t234.5 -156.5t157 -234t58.5 -284q0 -199 -99 -367.5t-267.5 -266t-367.5 -97.5zM793 279q137 0 222 66.5t85 180.5q0 142 -133 201v2q102 63 102 191
q0 107 -82.5 169t-208.5 62q-98 0 -175 -47t-105 -119l176 -94q25 74 102 74q42 0 68 -24.5t26 -61.5q0 -34 -26.5 -56t-71.5 -22h-70v-156h58q57 0 88 -25t31 -67q0 -40 -28 -65t-75 -25q-96 0 -123 92l-190 -76q33 -88 122 -144t208 -56z" />
    <glyph glyph-name="uni278D" unicode="&#x278d;" horiz-adv-x="1564" 
d="M782 -20q-198 0 -367 97.5t-267.5 266t-98.5 367.5q0 148 58.5 284t156.5 234t234 156.5t284 58.5t284 -58.5t234.5 -156.5t157 -234t58.5 -284q0 -199 -99 -367.5t-267.5 -266t-367.5 -97.5zM768 422v-129h209v129h115v180h-115v535h-164l-387 -588v-127h342zM784 588
h-149l149 235v-235z" />
    <glyph glyph-name="uni278E" unicode="&#x278e;" horiz-adv-x="1564" 
d="M782 -20q-198 0 -367 97.5t-267.5 266t-98.5 367.5q0 148 58.5 284t156.5 234t234 156.5t284 58.5t284 -58.5t234.5 -156.5t157 -234t58.5 -284q0 -199 -99 -367.5t-267.5 -266t-367.5 -97.5zM780 279q138 0 229 81t91 211q0 115 -77.5 191t-188.5 76q-40 0 -103 -17
l8 125h314v191h-488l-28 -459l114 -43q49 49 111 49q52 0 86.5 -27.5t34.5 -83.5q0 -47 -36.5 -74.5t-86.5 -27.5q-82 0 -137 64l-156 -127q118 -129 313 -129z" />
    <glyph glyph-name="uni278F" unicode="&#x278f;" horiz-adv-x="1564" 
d="M782 -20q-198 0 -367 97.5t-267.5 266t-98.5 367.5q0 148 58.5 284t156.5 234t234 156.5t284 58.5t284 -58.5t234.5 -156.5t157 -234t58.5 -284q0 -199 -99 -367.5t-267.5 -266t-367.5 -97.5zM772 276q132 0 223.5 82t91.5 209q0 122 -77.5 194.5t-182.5 72.5
q-75 0 -137 -35l-2 2q67 137 293 196l-55 168q-148 -28 -258 -109t-164.5 -191.5t-54.5 -235.5q0 -155 94 -254t229 -99zM772 461q-52 0 -86.5 39t-34.5 108v6q48 60 123 60q53 0 85 -29t32 -74q0 -49 -34.5 -79.5t-84.5 -30.5z" />
    <glyph glyph-name="uni2790" unicode="&#x2790;" horiz-adv-x="1564" 
d="M782 -20q-198 0 -367 97.5t-267.5 266t-98.5 367.5q0 148 58.5 284t156.5 234t234 156.5t284 58.5t284 -58.5t234.5 -156.5t157 -234t58.5 -284q0 -199 -99 -367.5t-267.5 -266t-367.5 -97.5zM584 311l211 -41l278 727v140h-549v-193h314z" />
    <glyph glyph-name="uni2791" unicode="&#x2791;" horiz-adv-x="1564" 
d="M782 -20q-198 0 -367 97.5t-267.5 266t-98.5 367.5q0 148 58.5 284t156.5 234t234 156.5t284 58.5t284 -58.5t234.5 -156.5t157 -234t58.5 -284q0 -199 -99 -367.5t-267.5 -266t-367.5 -97.5zM788 279q140 0 233 66.5t93 180.5q0 81 -44 140t-109 84v2q41 20 71.5 67.5
t30.5 104.5q0 108 -77.5 167.5t-197.5 59.5q-119 0 -195.5 -59t-76.5 -168q0 -58 29 -105t71 -65v-4q-64 -25 -107.5 -84t-43.5 -140q0 -113 92 -180t231 -67zM788 825q-40 0 -65 22.5t-25 57.5q0 34 26 57.5t64 22.5q39 0 65 -23t26 -57q0 -35 -25.5 -57.5t-65.5 -22.5z
M788 455q-46 0 -78 28t-32 70q0 41 31.5 71t78.5 31q50 0 82.5 -30t32.5 -72q0 -43 -32 -70.5t-83 -27.5z" />
    <glyph glyph-name="uni2792" unicode="&#x2792;" horiz-adv-x="1564" 
d="M782 -20q-198 0 -367 97.5t-267.5 266t-98.5 367.5q0 148 58.5 284t156.5 234t234 156.5t284 58.5t284 -58.5t234.5 -156.5t157 -234t58.5 -284q0 -199 -99 -367.5t-267.5 -266t-367.5 -97.5zM588 430l55 -168q146 24 254 106t160.5 193.5t52.5 237.5q0 155 -93.5 253.5
t-228.5 98.5q-132 0 -223.5 -82t-91.5 -209q0 -122 77 -194t181 -72q84 0 146 39l2 -2q-31 -74 -101 -123t-190 -78zM786 752q-53 0 -85.5 29.5t-32.5 74.5q0 48 34.5 79.5t83.5 31.5q53 0 88 -39.5t35 -110.5v-6q-49 -59 -123 -59z" />
    <glyph glyph-name="uni2E18" unicode="&#x2e18;" horiz-adv-x="915" 
d="M547 690q-68 0 -117 48.5t-49 115.5q0 69 49 117.5t117 48.5q71 0 120.5 -48.5t49.5 -117.5q0 -68 -50 -116t-120 -48zM748 -168l182 -168q-71 -87 -182.5 -137.5t-237.5 -50.5q-187 0 -310.5 104.5t-123.5 290.5q0 113 48 194.5t134 163.5q13 12 47 43.5t48 45.5
t34.5 37.5t29 43.5t9.5 41l8 88h219l47 -651h-272l6 186l-4 3q-76 -86 -76 -170q0 -85 45.5 -130t126.5 -45q59 0 120 30t102 81z" />
    <glyph glyph-name="NULL" horiz-adv-x="0" 
 />
    <glyph glyph-name="uni004A0301" horiz-adv-x="1034" 
d="M838 1851h284l-258 -276h-254zM446 -14q-117 0 -223 48t-176 138l166 205q41 -51 99 -86t118 -35q174 0 174 248v950h289v-948q0 -253 -106 -386.5t-341 -133.5z" />
    <glyph glyph-name="i.loclTRK" horiz-adv-x="538" 
d="M270 1137q-73 0 -121.5 48t-48.5 118q0 68 48.5 115.5t121.5 47.5q72 0 121 -47.5t49 -115.5q0 -69 -49 -117.5t-121 -48.5zM406 0h-273v999h273v-999z" />
    <glyph glyph-name="uni006A0301" horiz-adv-x="524" 
d="M426 1133h-260l233 299l281 2zM426 999v-1142l-272 -260h-199v260h199v1142h272z" />
    <glyph glyph-name="germandbls.calt" horiz-adv-x="1574" 
d="M1364 1374l-268 -504q177 -70 240 -107q133 -77 172 -194q20 -60 20 -137q0 -92 -31 -169t-81 -128t-114.5 -86.5t-131 -51t-132.5 -15.5q-111 0 -228 43.5t-220 128.5l133 247q74 -77 160.5 -117t158.5 -40q87 0 136 42t49 111q0 78 -55.5 119.5t-198.5 87.5
q-122 42 -244 109l248 475l-4 8q-178 21 -262 21q-147 0 -222 -62t-75 -203v-952h-285v965q0 508 555 508q128 0 314.5 -27.5t365.5 -71.5z" />
    <glyph glyph-name="a.smcp" horiz-adv-x="1218" 
d="M299 0h-281l463 1192h256l465 -1192h-280l-78 213h-469zM606 872l-153 -434h313l-156 434h-4z" />
    <glyph glyph-name="aacute.smcp" horiz-adv-x="1218" 
d="M745 1329h-260l234 299l280 2zM299 0h-281l463 1192h256l465 -1192h-280l-78 213h-469zM606 872l-153 -434h313l-156 434h-4z" />
    <glyph glyph-name="abreve.smcp" horiz-adv-x="1218" 
d="M610 1309q-146 0 -235 82.5t-99 230.5h203q5 -49 40 -83t91 -34q57 0 92.5 34t38.5 83h203q-11 -143 -97.5 -228t-236.5 -85zM299 0h-281l463 1192h256l465 -1192h-280l-78 213h-469zM606 872l-153 -434h313l-156 434h-4z" />
    <glyph glyph-name="acircumflex.smcp" horiz-adv-x="1218" 
d="M754 1626l207 -301h-246l-103 154h-4l-102 -154h-248l211 301h285zM299 0h-281l463 1192h256l465 -1192h-280l-78 213h-469zM606 872l-153 -434h313l-156 434h-4z" />
    <glyph glyph-name="adieresis.smcp" horiz-adv-x="1218" 
d="M393 1337q-70 0 -119 48t-49 116q0 66 49 114t119 48q72 0 121 -48t49 -116t-49 -115t-121 -47zM823 1337q-71 0 -119.5 48t-48.5 116q0 67 48.5 114.5t119.5 47.5q70 0 120 -48t50 -116q0 -67 -49.5 -114.5t-120.5 -47.5zM299 0h-281l463 1192h256l465 -1192h-280
l-78 213h-469zM606 872l-153 -434h313l-156 434h-4z" />
    <glyph glyph-name="agrave.smcp" horiz-adv-x="1218" 
d="M733 1325h-254l-254 299l287 -2zM299 0h-281l463 1192h256l465 -1192h-280l-78 213h-469zM606 872l-153 -434h313l-156 434h-4z" />
    <glyph glyph-name="amacron.smcp" horiz-adv-x="1218" 
d="M922 1382h-625v215h625v-215zM299 0h-281l463 1192h256l465 -1192h-280l-78 213h-469zM606 872l-153 -434h313l-156 434h-4z" />
    <glyph glyph-name="aogonek.smcp" horiz-adv-x="1218" 
d="M1079 -231q45 0 80 14l15 -148q-56 -22 -150 -22q-106 0 -169.5 51t-63.5 133q0 52 33.5 108t95.5 99l-76 209h-469l-76 -213h-281l463 1192h256l465 -1192h-41q-75 -13 -120.5 -55.5t-45.5 -91.5q0 -39 22.5 -61.5t61.5 -22.5zM606 872l-153 -434h313l-156 434h-4z" />
    <glyph glyph-name="aring.smcp" horiz-adv-x="1218" 
d="M610 1300q-92 0 -157.5 62t-65.5 154q0 91 63 154t160 63q93 0 158.5 -62t65.5 -155q0 -90 -63 -153t-161 -63zM610 1442q32 0 54 23t22 55q0 31 -22 52t-54 21t-53.5 -22t-21.5 -53q0 -32 21.5 -54t53.5 -22zM299 0h-281l463 1192h256l465 -1192h-280l-78 213h-469z
M606 872l-153 -434h313l-156 434h-4z" />
    <glyph glyph-name="atilde.smcp" horiz-adv-x="1218" 
d="M778 1325q-84 0 -180 61q-71 44 -111 44q-70 0 -116 -103l-160 68q34 109 96.5 173t149.5 64q39 0 74 -9t55 -19t47 -27q3 -2 12 -7.5t12.5 -7.5t11.5 -7t12.5 -7t12 -5.5t13 -5.5t12 -4t13 -2.5t13.5 -0.5q70 0 115 102l158 -53q-32 -116 -94.5 -185t-145.5 -69zM299 0
h-281l463 1192h256l465 -1192h-280l-78 213h-469zM606 872l-153 -434h313l-156 434h-4z" />
    <glyph glyph-name="ae.smcp" horiz-adv-x="1677" 
d="M1008 467v-229h594v-238h-859v215h-358l-102 -215h-285l600 1192h969v-240h-559v-256h456v-229h-456zM492 438h251v516h-4z" />
    <glyph glyph-name="b.smcp" horiz-adv-x="1148" 
d="M655 0h-518v1192h475q202 0 308 -76t106 -217q0 -82 -41 -152t-135 -110v-2q120 -33 180 -112.5t60 -192.5q0 -156 -108 -243t-327 -87zM403 958v-243h191q166 0 166 123q0 61 -40.5 90.5t-125.5 29.5h-191zM403 500v-267h226q180 0 180 136q0 131 -176 131h-230z" />
    <glyph glyph-name="c.smcp" horiz-adv-x="1257" 
d="M713 -18q-129 0 -243 40t-202 115.5t-139 193.5t-51 263q0 127 43 238t122 194.5t200.5 131.5t269.5 48q134 0 264.5 -56.5t228.5 -172.5l-196 -168q-54 60 -132 99.5t-165 39.5q-153 0 -253 -96t-100 -258q0 -153 98.5 -253.5t254.5 -100.5q87 0 166 38t131 101
l196 -168q-86 -103 -212 -166t-281 -63z" />
    <glyph glyph-name="cacute.smcp" horiz-adv-x="1257" 
d="M1051 1630l-254 -301h-260l233 299zM713 -18q-129 0 -243 40t-202 115.5t-139 193.5t-51 263q0 127 43 238t122 194.5t200.5 131.5t269.5 48q134 0 264.5 -56.5t228.5 -172.5l-196 -168q-54 60 -132 99.5t-165 39.5q-153 0 -253 -96t-100 -258q0 -153 98.5 -253.5
t254.5 -100.5q87 0 166 38t131 101l196 -168q-86 -103 -212 -166t-281 -63z" />
    <glyph glyph-name="ccaron.smcp" horiz-adv-x="1257" 
d="M608 1622l103 -154h4l102 154h246l-209 -301h-285l-209 301h248zM713 -18q-129 0 -243 40t-202 115.5t-139 193.5t-51 263q0 127 43 238t122 194.5t200.5 131.5t269.5 48q134 0 264.5 -56.5t228.5 -172.5l-196 -168q-54 60 -132 99.5t-165 39.5q-153 0 -253 -96
t-100 -258q0 -153 98.5 -253.5t254.5 -100.5q87 0 166 38t131 101l196 -168q-86 -103 -212 -166t-281 -63z" />
    <glyph glyph-name="ccedilla.smcp" horiz-adv-x="1257" 
d="M713 240q87 0 166 38t131 101l196 -168q-83 -98 -201.5 -160.5t-265.5 -68.5l-20 -39v-4q99 -3 150 -46t51 -120q0 -73 -66 -117.5t-197 -44.5q-63 0 -125 12v121q44 -14 99 -14q40 0 69 13.5t29 43.5q0 29 -43.5 47.5t-118.5 18.5v75l29 62q-109 16 -202 63.5t-164 122
t-111.5 182t-40.5 236.5q0 127 43 238t122 194.5t200.5 131.5t269.5 48q134 0 264.5 -56.5t228.5 -172.5l-196 -168q-54 60 -132 99.5t-165 39.5q-153 0 -253 -96t-100 -258q0 -153 98.5 -253.5t254.5 -100.5z" />
    <glyph glyph-name="cdotaccent.smcp" horiz-adv-x="1257" 
d="M713 1333q-73 0 -121.5 48t-48.5 118q0 68 48.5 116t121.5 48q72 0 121 -48t49 -116q0 -69 -49 -117.5t-121 -48.5zM713 -18q-129 0 -243 40t-202 115.5t-139 193.5t-51 263q0 127 43 238t122 194.5t200.5 131.5t269.5 48q134 0 264.5 -56.5t228.5 -172.5l-196 -168
q-54 60 -132 99.5t-165 39.5q-153 0 -253 -96t-100 -258q0 -153 98.5 -253.5t254.5 -100.5q87 0 166 38t131 101l196 -168q-86 -103 -212 -166t-281 -63z" />
    <glyph glyph-name="d.smcp" horiz-adv-x="1292" 
d="M565 0h-428v1192h424q295 0 472 -166.5t177 -431.5q0 -267 -172.5 -430.5t-472.5 -163.5zM401 952v-714h148q170 0 276.5 102t106.5 254q0 154 -104 256t-263 102h-164z" />
    <glyph glyph-name="eth.smcp" horiz-adv-x="1292" 
d="M137 1192h424q295 0 472 -166.5t177 -431.5q0 -267 -172.5 -430.5t-472.5 -163.5h-428v487h-106v207h106v498zM401 238h148q170 0 276.5 102t106.5 254q0 154 -104 256t-263 102h-164v-258h256v-207h-256v-249z" />
    <glyph glyph-name="dcaron.smcp" horiz-adv-x="1292" 
d="M281 1620h247l103 -154h4l102 154h246l-209 -301h-285zM565 0h-428v1192h424q295 0 472 -166.5t177 -431.5q0 -267 -172.5 -430.5t-472.5 -163.5zM401 952v-714h148q170 0 276.5 102t106.5 254q0 154 -104 256t-263 102h-164z" />
    <glyph glyph-name="dcroat.smcp" horiz-adv-x="1292" 
d="M137 1192h424q295 0 472 -166.5t177 -431.5q0 -267 -172.5 -430.5t-472.5 -163.5h-428v487h-106v207h106v498zM401 238h148q170 0 276.5 102t106.5 254q0 154 -104 256t-263 102h-164v-258h256v-207h-256v-249z" />
    <glyph glyph-name="e.smcp" horiz-adv-x="1069" 
d="M993 0h-858v1192h819v-240h-553v-256h443v-227h-443v-231h592v-238z" />
    <glyph glyph-name="eacute.smcp" horiz-adv-x="1069" 
d="M567 1626l281 2l-254 -301h-260zM993 0h-858v1192h819v-240h-553v-256h443v-227h-443v-231h592v-238z" />
    <glyph glyph-name="ecaron.smcp" horiz-adv-x="1069" 
d="M410 1319l-209 301h248l102 -154h4l102 154h246l-209 -301h-284zM993 0h-858v1192h819v-240h-553v-256h443v-227h-443v-231h592v-238z" />
    <glyph glyph-name="ecircumflex.smcp" horiz-adv-x="1069" 
d="M412 1624h284l207 -301h-246l-102 154h-4l-102 -154h-248zM993 0h-858v1192h819v-240h-553v-256h443v-227h-443v-231h592v-238z" />
    <glyph glyph-name="edieresis.smcp" horiz-adv-x="1069" 
d="M336 1335q-70 0 -119 48t-49 116q0 66 49 114t119 48q72 0 121 -48t49 -116t-49 -115t-121 -47zM766 1335q-71 0 -119.5 48t-48.5 116q0 67 48.5 114.5t119.5 47.5q70 0 120 -48t50 -116q0 -67 -49.5 -114.5t-120.5 -47.5zM993 0h-858v1192h819v-240h-553v-256h443v-227
h-443v-231h592v-238z" />
    <glyph glyph-name="edotaccent.smcp" horiz-adv-x="1069" 
d="M553 1331q-73 0 -121.5 48t-48.5 118q0 68 48.5 116t121.5 48q72 0 121 -48t49 -116q0 -69 -49 -117.5t-121 -48.5zM993 0h-858v1192h819v-240h-553v-256h443v-227h-443v-231h592v-238z" />
    <glyph glyph-name="egrave.smcp" horiz-adv-x="1069" 
d="M557 1620l221 -297h-254l-254 299zM993 0h-858v1192h819v-240h-553v-256h443v-227h-443v-231h592v-238z" />
    <glyph glyph-name="emacron.smcp" horiz-adv-x="1069" 
d="M864 1380h-624v215h624v-215zM993 0h-858v1192h819v-240h-553v-256h443v-227h-443v-231h592v-238z" />
    <glyph glyph-name="eogonek.smcp" horiz-adv-x="1069" 
d="M993 0h-30q-75 -13 -120.5 -55.5t-45.5 -91.5q0 -39 22.5 -61.5t61.5 -22.5q45 0 80 14l14 -148q-56 -22 -150 -22q-106 0 -169.5 51t-63.5 133q0 50 32.5 106t92.5 97h-582v1192h819v-240h-553v-256h443v-227h-443v-231h592v-238z" />
    <glyph glyph-name="f.smcp" horiz-adv-x="1038" 
d="M401 0h-264v1192h844v-240h-580v-280h482v-238h-482v-434z" />
    <glyph glyph-name="g.smcp" horiz-adv-x="1308" 
d="M713 -18q-134 0 -249.5 41t-201.5 117.5t-135 193.5t-49 260q0 173 73.5 311t216 219.5t332.5 81.5q137 0 269.5 -54.5t226.5 -156.5l-188 -161q-135 118 -308 118q-144 0 -243 -97.5t-99 -260.5q0 -157 96.5 -261t258.5 -104q121 0 229 58v147h-256v232h514v-537
q-88 -65 -218.5 -106t-268.5 -41z" />
    <glyph glyph-name="gbreve.smcp" horiz-adv-x="1308" 
d="M692 1307q-146 0 -235 82.5t-99 230.5h203q5 -49 40 -83t91 -34q57 0 92.5 34t38.5 83h203q-11 -143 -97.5 -228t-236.5 -85zM713 -18q-134 0 -249.5 41t-201.5 117.5t-135 193.5t-49 260q0 173 73.5 311t216 219.5t332.5 81.5q137 0 269.5 -54.5t226.5 -156.5l-188 -161
q-135 118 -308 118q-144 0 -243 -97.5t-99 -260.5q0 -157 96.5 -261t258.5 -104q121 0 229 58v147h-256v232h514v-537q-88 -65 -218.5 -106t-268.5 -41z" />
    <glyph glyph-name="uni0123.smcp" horiz-adv-x="1308" 
d="M713 -18q-134 0 -249.5 41t-201.5 117.5t-135 193.5t-49 260q0 173 73.5 311t216 219.5t332.5 81.5q137 0 269.5 -54.5t226.5 -156.5l-188 -161q-135 118 -308 118q-144 0 -243 -97.5t-99 -260.5q0 -157 96.5 -261t258.5 -104q121 0 229 58v147h-256v232h514v-537
q-88 -65 -218.5 -106t-268.5 -41zM551 -449l-55 152q61 18 86.5 43t25.5 70q0 32 -14 78h231q11 -40 11 -93q0 -115 -78 -178.5t-207 -71.5z" />
    <glyph glyph-name="gdotaccent.smcp" horiz-adv-x="1308" 
d="M692 1331q-73 0 -121.5 48t-48.5 118q0 68 48.5 116t121.5 48q72 0 121 -48t49 -116q0 -69 -49 -117.5t-121 -48.5zM713 -18q-134 0 -249.5 41t-201.5 117.5t-135 193.5t-49 260q0 173 73.5 311t216 219.5t332.5 81.5q137 0 269.5 -54.5t226.5 -156.5l-188 -161
q-135 118 -308 118q-144 0 -243 -97.5t-99 -260.5q0 -157 96.5 -261t258.5 -104q121 0 229 58v147h-256v232h514v-537q-88 -65 -218.5 -106t-268.5 -41z" />
    <glyph glyph-name="h.smcp" horiz-adv-x="1300" 
d="M406 0h-269v1192h269v-498h489v498h266v-1192h-266v457h-489v-457z" />
    <glyph glyph-name="hbar.smcp" horiz-adv-x="1300" 
d="M1161 1024h80v-197h-80v-827h-266v457h-489v-457h-269v827h-80v197h80v168h269v-168h489v168h266v-168zM406 694h489v133h-489v-133z" />
    <glyph glyph-name="i.smcp" horiz-adv-x="548" 
d="M410 0h-271v1192h271v-1192z" />
    <glyph glyph-name="dotlessi.smcp" horiz-adv-x="548" 
d="M410 0h-271v1192h271v-1192z" />
    <glyph glyph-name="iacute.smcp" horiz-adv-x="548" 
d="M150 1329l233 299l281 2l-254 -301h-260zM410 0h-271v1192h271v-1192z" />
    <glyph glyph-name="icircumflex.smcp" horiz-adv-x="548" 
d="M-80 1323l211 301h285l207 -301h-246l-103 154h-4l-102 -154h-248zM410 0h-271v1192h271v-1192z" />
    <glyph glyph-name="idieresis.smcp" horiz-adv-x="548" 
d="M55 1335q-70 0 -119 48t-49 116q0 66 49 114t119 48q72 0 121 -48t49 -116t-49 -115t-121 -47zM485 1335q-71 0 -119.5 48t-48.5 116q0 67 48.5 114.5t119.5 47.5q70 0 120 -48t50 -116q0 -67 -49.5 -114.5t-120.5 -47.5zM410 0h-271v1192h271v-1192z" />
    <glyph glyph-name="i.loclTRK.smcp" horiz-adv-x="548" 
d="M272 1331q-73 0 -121.5 48t-48.5 118q0 68 48.5 116t121.5 48q72 0 121 -48t49 -116q0 -69 -49 -117.5t-121 -48.5zM410 0h-271v1192h271v-1192z" />
    <glyph glyph-name="igrave.smcp" horiz-adv-x="548" 
d="M-106 1624l286 -2l221 -297h-254zM410 0h-271v1192h271v-1192z" />
    <glyph glyph-name="ij.smcp" horiz-adv-x="1427" 
d="M410 0h-271v1192h271v-1192zM936 -14q-229 0 -365 164l156 188q86 -97 186 -100q59 0 97.5 42.5t38.5 139.5v772h264v-758q0 -216 -89 -332t-288 -116z" />
    <glyph glyph-name="imacron.smcp" horiz-adv-x="548" 
d="M584 1380h-625v215h625v-215zM410 0h-271v1192h271v-1192z" />
    <glyph glyph-name="iogonek.smcp" horiz-adv-x="548" 
d="M410 0h-29q-75 -13 -120.5 -55.5t-45.5 -91.5q0 -39 22.5 -61.5t61.5 -22.5q45 0 80 14l14 -148q-56 -22 -149 -22q-106 0 -170 51t-64 133q0 52 33.5 108t95.5 97v1190h271v-1192z" />
    <glyph glyph-name="j.smcp" horiz-adv-x="878" 
d="M387 -14q-228 0 -364 164l155 188q86 -97 187 -100q59 0 97 42.5t38 139.5v772h264v-758q0 -216 -89 -332t-288 -116z" />
    <glyph glyph-name="uni0237.smcp" horiz-adv-x="878" 
d="M381 -14q-225 0 -358 164l155 186q83 -97 184 -100q59 0 98.5 44.5t39.5 141.5v770h264v-758q0 -448 -383 -448z" />
    <glyph glyph-name="uni006A0301.smcp" horiz-adv-x="878" 
d="M762 1331h-260l233 299l281 2zM387 -14q-228 0 -364 164l155 188q86 -97 187 -100q59 0 97 42.5t38 139.5v772h264v-758q0 -216 -89 -332t-288 -116z" />
    <glyph glyph-name="k.smcp" horiz-adv-x="1198" 
d="M403 0h-266v1192h266v-492l5 -2l405 494h336l-455 -524l475 -668h-329l-330 467l-107 -119v-348z" />
    <glyph glyph-name="uni0137.smcp" horiz-adv-x="1198" 
d="M403 0h-266v1192h266v-492l5 -2l405 494h336l-455 -524l475 -668h-329l-330 467l-107 -119v-348zM444 -449l-55 152q61 18 87 43t26 70q0 28 -15 78h232q10 -36 10 -93q0 -115 -78 -178.5t-207 -71.5z" />
    <glyph glyph-name="l.smcp" horiz-adv-x="999" 
d="M948 0h-811v1192h269v-954h542v-238z" />
    <glyph glyph-name="lacute.smcp" horiz-adv-x="999" 
d="M768 1630l-254 -301h-260l233 299zM948 0h-811v1192h269v-954h542v-238z" />
    <glyph glyph-name="lcaron.smcp" horiz-adv-x="999" 
d="M733 928h-188l63 422h256zM948 0h-811v1192h269v-954h542v-238z" />
    <glyph glyph-name="uni013C.smcp" horiz-adv-x="999" 
d="M948 0h-811v1192h269v-954h542v-238zM360 -449l-55 152q61 18 87 43t26 70q0 28 -15 78h232q10 -36 10 -93q0 -115 -78 -178.5t-207 -71.5z" />
    <glyph glyph-name="lslash.smcp" horiz-adv-x="999" 
d="M406 539v-301h542v-238h-811v426l-114 -49v201l114 49v565h269v-453l190 82v-203z" />
    <glyph glyph-name="m.smcp" horiz-adv-x="1566" 
d="M403 0h-266v1192h275l368 -645h4l369 645h277v-1192h-267v711l-2 2l-291 -486h-172l-290 482h-5v-709z" />
    <glyph glyph-name="n.smcp" horiz-adv-x="1329" 
d="M397 0h-266v1192h268l529 -760l4 4v756h266v-1192h-276l-519 739l-6 -2v-737z" />
    <glyph glyph-name="nacute.smcp" horiz-adv-x="1329" 
d="M698 1628l281 2l-254 -301h-260zM397 0h-266v1192h268l529 -760l4 4v756h266v-1192h-276l-519 739l-6 -2v-737z" />
    <glyph glyph-name="ncaron.smcp" horiz-adv-x="1329" 
d="M825 1321h-284l-209 301h248l102 -154h4l102 154h246zM397 0h-266v1192h268l529 -760l4 4v756h266v-1192h-276l-519 739l-6 -2v-737z" />
    <glyph glyph-name="uni0146.smcp" horiz-adv-x="1329" 
d="M397 0h-266v1192h268l529 -760l4 4v756h266v-1192h-276l-519 739l-6 -2v-737zM500 -451l-56 152q61 18 87 43t26 70q0 31 -14 77h231q10 -36 10 -92q0 -115 -77.5 -178.5t-206.5 -71.5z" />
    <glyph glyph-name="eng.smcp" horiz-adv-x="1329" 
d="M932 440v752h266v-1192q0 -171 -93 -259.5t-271 -88.5q-78 0 -168 22l20 207q55 -14 102 -14q132 0 144 123l-531 747l-4 -2v-735h-266v1192h266l531 -754z" />
    <glyph glyph-name="ntilde.smcp" horiz-adv-x="1329" 
d="M852 1325q-84 0 -180 61q-71 44 -111 44q-71 0 -117 -103l-159 68q34 109 96 173t149 64q89 0 177 -55q3 -2 12 -7.5t12.5 -7.5t11.5 -7t12.5 -7t12 -5.5t13 -5.5t12 -4t13 -2.5t13.5 -0.5q70 0 115 102l158 -53q-32 -116 -94.5 -185t-145.5 -69zM397 0h-266v1192h268
l529 -760l4 4v756h266v-1192h-276l-519 739l-6 -2v-737z" />
    <glyph glyph-name="o.smcp" horiz-adv-x="1421" 
d="M713 -16q-280 0 -457.5 172.5t-177.5 441.5q0 268 177.5 439t457.5 171q181 0 324 -76t223.5 -215t80.5 -319q0 -273 -176 -443.5t-452 -170.5zM711 236q153 0 251.5 103t98.5 259q0 155 -98.5 256.5t-251.5 101.5q-154 0 -253.5 -103t-99.5 -255q0 -154 99.5 -258
t253.5 -104z" />
    <glyph glyph-name="oacute.smcp" horiz-adv-x="1421" 
d="M571 1329l234 299l280 2l-254 -301h-260zM713 -16q-280 0 -457.5 172.5t-177.5 441.5q0 268 177.5 439t457.5 171q181 0 324 -76t223.5 -215t80.5 -319q0 -273 -176 -443.5t-452 -170.5zM711 236q153 0 251.5 103t98.5 259q0 155 -98.5 256.5t-251.5 101.5
q-154 0 -253.5 -103t-99.5 -255q0 -154 99.5 -258t253.5 -104z" />
    <glyph glyph-name="ocircumflex.smcp" horiz-adv-x="1421" 
d="M612 1325h-247l210 301h285l207 -301h-246l-102 154h-4zM713 -16q-280 0 -457.5 172.5t-177.5 441.5q0 268 177.5 439t457.5 171q181 0 324 -76t223.5 -215t80.5 -319q0 -273 -176 -443.5t-452 -170.5zM711 236q153 0 251.5 103t98.5 259q0 155 -98.5 256.5t-251.5 101.5
q-154 0 -253.5 -103t-99.5 -255q0 -154 99.5 -258t253.5 -104z" />
    <glyph glyph-name="odieresis.smcp" horiz-adv-x="1421" 
d="M500 1337q-70 0 -119 48t-49 116q0 66 49 114t119 48q72 0 121 -48t49 -116t-49 -115t-121 -47zM930 1337q-71 0 -119.5 48t-48.5 116q0 67 48.5 114.5t119.5 47.5q70 0 120 -48t50 -116q0 -67 -49.5 -114.5t-120.5 -47.5zM713 -16q-280 0 -457.5 172.5t-177.5 441.5
q0 268 177.5 439t457.5 171q181 0 324 -76t223.5 -215t80.5 -319q0 -273 -176 -443.5t-452 -170.5zM711 236q153 0 251.5 103t98.5 259q0 155 -98.5 256.5t-251.5 101.5q-154 0 -253.5 -103t-99.5 -255q0 -154 99.5 -258t253.5 -104z" />
    <glyph glyph-name="ograve.smcp" horiz-adv-x="1421" 
d="M625 1325l-254 299l286 -2l222 -297h-254zM713 -16q-280 0 -457.5 172.5t-177.5 441.5q0 268 177.5 439t457.5 171q181 0 324 -76t223.5 -215t80.5 -319q0 -273 -176 -443.5t-452 -170.5zM711 236q153 0 251.5 103t98.5 259q0 155 -98.5 256.5t-251.5 101.5
q-154 0 -253.5 -103t-99.5 -255q0 -154 99.5 -258t253.5 -104z" />
    <glyph glyph-name="ohungarumlaut.smcp" horiz-adv-x="1421" 
d="M633 1335h-248l231 299l271 2zM1051 1335h-246l229 299l269 2zM713 -16q-280 0 -457.5 172.5t-177.5 441.5q0 268 177.5 439t457.5 171q181 0 324 -76t223.5 -215t80.5 -319q0 -273 -176 -443.5t-452 -170.5zM711 236q153 0 251.5 103t98.5 259q0 155 -98.5 256.5
t-251.5 101.5q-154 0 -253.5 -103t-99.5 -255q0 -154 99.5 -258t253.5 -104z" />
    <glyph glyph-name="omacron.smcp" horiz-adv-x="1421" 
d="M1028 1382h-625v215h625v-215zM713 -16q-280 0 -457.5 172.5t-177.5 441.5q0 268 177.5 439t457.5 171q181 0 324 -76t223.5 -215t80.5 -319q0 -273 -176 -443.5t-452 -170.5zM711 236q153 0 251.5 103t98.5 259q0 155 -98.5 256.5t-251.5 101.5q-154 0 -253.5 -103
t-99.5 -255q0 -154 99.5 -258t253.5 -104z" />
    <glyph glyph-name="oslash.smcp" horiz-adv-x="1419" 
d="M1335 1118l-123 -131q129 -160 129 -389q0 -273 -176 -443.5t-452 -170.5q-196 0 -351 90l-145 -156l-139 131l139 150q-139 164 -139 399q0 268 177.5 439t457.5 171q202 0 356 -96l127 137zM358 598q0 -105 52 -192l473 507q-73 43 -172 43q-154 0 -253.5 -103
t-99.5 -255zM711 236q153 0 251.5 103t98.5 259q0 101 -43 180l-469 -506q74 -36 162 -36z" />
    <glyph glyph-name="otilde.smcp" horiz-adv-x="1421" 
d="M885 1325q-84 0 -180 61q-71 44 -111 44q-71 0 -117 -103l-160 68q34 109 96.5 173t149.5 64q39 0 74 -9t55 -19t47 -27q3 -2 8 -5q67 -42 105 -42q70 0 115 102l157 -53q-32 -116 -94.5 -185t-144.5 -69zM713 -16q-280 0 -457.5 172.5t-177.5 441.5q0 268 177.5 439
t457.5 171q181 0 324 -76t223.5 -215t80.5 -319q0 -273 -176 -443.5t-452 -170.5zM711 236q153 0 251.5 103t98.5 259q0 155 -98.5 256.5t-251.5 101.5q-154 0 -253.5 -103t-99.5 -255q0 -154 99.5 -258t253.5 -104z" />
    <glyph glyph-name="oe.smcp" horiz-adv-x="1689" 
d="M1030 469v-231h584v-238h-901q-185 0 -330.5 78t-225 214t-79.5 306q0 168 79.5 303t225 213t330.5 78h866v-238h-549v-258h445v-227h-445zM713 244h53v704h-53q-152 -1 -252.5 -101.5t-100.5 -248.5q0 -150 101.5 -252.5t251.5 -101.5z" />
    <glyph glyph-name="p.smcp" horiz-adv-x="1116" 
d="M403 0h-266v1192h477q223 0 335 -111.5t112 -294.5q0 -197 -125 -298t-344 -101h-189v-387zM403 954v-331h185q192 0 192 165q0 166 -184 166h-193z" />
    <glyph glyph-name="thorn.smcp" horiz-adv-x="1148" 
d="M403 0h-266v1192h266v-199h248q221 0 332 -112.5t111 -296.5q0 -190 -125 -289.5t-340 -99.5h-226v-195zM403 758v-330h213q99 0 149 43.5t50 118.5q0 76 -48 122t-142 46h-222z" />
    <glyph glyph-name="q.smcp" horiz-adv-x="1421" 
d="M1341 598q0 -215 -110 -365l104 -94l-145 -182l-129 117q-155 -90 -348 -90q-280 0 -457.5 172.5t-177.5 441.5q0 268 177.5 439t457.5 171q181 0 324 -76t223.5 -215t80.5 -319zM360 598q0 -154 99 -258t254 -104q86 0 155 34l-102 92l125 152l123 -111q49 87 49 195
q0 154 -99 256t-251 102q-155 0 -254 -102.5t-99 -255.5z" />
    <glyph glyph-name="r.smcp" horiz-adv-x="1171" 
d="M403 0h-266v1192h490q224 0 336 -112t112 -296q0 -273 -254 -362l305 -422h-319l-275 391h-129v-391zM403 954v-329h191q199 0 199 168q0 74 -47.5 117.5t-143.5 43.5h-199z" />
    <glyph glyph-name="racute.smcp" horiz-adv-x="1171" 
d="M631 1329h-260l233 299l281 2zM403 0h-266v1192h490q224 0 336 -112t112 -296q0 -273 -254 -362l305 -422h-319l-275 391h-129v-391zM403 954v-329h191q199 0 199 168q0 74 -47.5 117.5t-143.5 43.5h-199z" />
    <glyph glyph-name="rcaron.smcp" horiz-adv-x="1171" 
d="M940 1622l-209 -301h-285l-208 301h247l103 -154h4l102 154h246zM403 0h-266v1192h490q224 0 336 -112t112 -296q0 -273 -254 -362l305 -422h-319l-275 391h-129v-391zM403 954v-329h191q199 0 199 168q0 74 -47.5 117.5t-143.5 43.5h-199z" />
    <glyph glyph-name="uni0157.smcp" horiz-adv-x="1171" 
d="M403 0h-266v1192h490q224 0 336 -112t112 -296q0 -273 -254 -362l305 -422h-319l-275 391h-129v-391zM403 954v-329h191q199 0 199 168q0 74 -47.5 117.5t-143.5 43.5h-199zM430 -449l-55 152q61 18 86.5 43t25.5 70q0 32 -14 78h232q10 -36 10 -93q0 -115 -78 -178.5
t-207 -71.5z" />
    <glyph glyph-name="s.smcp" horiz-adv-x="1032" 
d="M516 -16q-125 0 -243 47.5t-216 142.5l152 188q68 -70 152.5 -105.5t162.5 -37.5q82 0 127 31t45 80q1 52 -44 81t-167 70q-66 20 -115 39.5t-103 52t-88 70.5t-56.5 94.5t-22.5 124.5q0 149 119.5 246.5t288.5 99.5q239 0 428 -153l-148 -191q-147 111 -278 111
q-61 0 -99.5 -26.5t-39.5 -74.5q0 -49 45 -79t162 -72q171 -61 234 -99q125 -73 149 -192q6 -35 6 -74q0 -98 -40.5 -173t-107.5 -117.5t-143.5 -63t-159.5 -20.5z" />
    <glyph glyph-name="sacute.smcp" horiz-adv-x="1032" 
d="M877 1630l-254 -301h-261l234 299zM516 -16q-125 0 -243 47.5t-216 142.5l152 188q68 -70 152.5 -105.5t162.5 -37.5q82 0 127 31t45 80q1 52 -44 81t-167 70q-66 20 -115 39.5t-103 52t-88 70.5t-56.5 94.5t-22.5 124.5q0 149 119.5 246.5t288.5 99.5q239 0 428 -153
l-148 -191q-147 111 -278 111q-61 0 -99.5 -26.5t-39.5 -74.5q0 -49 45 -79t162 -72q171 -61 234 -99q125 -73 149 -192q6 -35 6 -74q0 -98 -40.5 -173t-107.5 -117.5t-143.5 -63t-159.5 -20.5z" />
    <glyph glyph-name="scaron.smcp" horiz-adv-x="1032" 
d="M635 1622h246l-209 -301h-285l-209 301h248l102 -154h4zM516 -16q-125 0 -243 47.5t-216 142.5l152 188q68 -70 152.5 -105.5t162.5 -37.5q82 0 127 31t45 80q1 52 -44 81t-167 70q-66 20 -115 39.5t-103 52t-88 70.5t-56.5 94.5t-22.5 124.5q0 149 119.5 246.5
t288.5 99.5q239 0 428 -153l-148 -191q-147 111 -278 111q-61 0 -99.5 -26.5t-39.5 -74.5q0 -49 45 -79t162 -72q171 -61 234 -99q125 -73 149 -192q6 -35 6 -74q0 -98 -40.5 -173t-107.5 -117.5t-143.5 -63t-159.5 -20.5z" />
    <glyph glyph-name="scedilla.smcp" horiz-adv-x="1032" 
d="M578 723q171 -61 234 -99q125 -73 149 -192q6 -35 6 -74q0 -75 -24.5 -137.5t-64.5 -104t-94.5 -71t-112.5 -44t-120 -17.5l-23 -41v-4q99 -3 150 -46t51 -120q0 -73 -65.5 -117.5t-196.5 -44.5q-63 0 -125 12v121q44 -14 98 -14q40 0 69.5 14t29.5 43t-43.5 47.5
t-118.5 18.5v75l31 66q-200 32 -351 180l152 188q68 -70 152.5 -105.5t162.5 -37.5q82 0 127 31t45 80q1 52 -44 81t-167 70q-66 20 -115 39.5t-103 52t-88 70.5t-56.5 94.5t-22.5 124.5q0 149 119.5 246.5t288.5 99.5q239 0 428 -153l-148 -191q-147 111 -278 111
q-61 0 -99.5 -26.5t-39.5 -74.5q0 -49 45 -79t162 -72z" />
    <glyph glyph-name="uni0219.smcp" horiz-adv-x="1032" 
d="M516 -16q-125 0 -243 47.5t-216 142.5l152 188q68 -70 152.5 -105.5t162.5 -37.5q82 0 127 31t45 80q1 52 -44 81t-167 70q-66 20 -115 39.5t-103 52t-88 70.5t-56.5 94.5t-22.5 124.5q0 149 119.5 246.5t288.5 99.5q239 0 428 -153l-148 -191q-147 111 -278 111
q-61 0 -99.5 -26.5t-39.5 -74.5q0 -49 45 -79t162 -72q171 -61 234 -99q125 -73 149 -192q6 -35 6 -74q0 -98 -40.5 -173t-107.5 -117.5t-143.5 -63t-159.5 -20.5zM371 -449l-56 152q61 18 87 43t26 70q0 32 -14 78h231q10 -36 10 -93q0 -115 -77.5 -178.5t-206.5 -71.5z
" />
    <glyph glyph-name="germandbls.smcp" horiz-adv-x="1353" 
d="M1157 1124l-188 -407q52 -19 83.5 -31.5t73.5 -33t67 -38.5t53 -45t42.5 -56.5t24.5 -69t10 -85.5q-1 -79 -27 -144t-67.5 -106.5t-96 -70.5t-109.5 -41t-110 -12q-81 0 -175 34t-181 99l102 227q64 -62 137.5 -92.5t135.5 -32.5q60 0 89.5 29.5t29.5 79.5
q0 49 -43.5 77.5t-159.5 71.5q-137 46 -197 80l172 387l-2 4q-112 17 -207 17q-223 0 -223 -217v-750h-268v745q0 465 485 465q295 0 549 -84z" />
    <glyph glyph-name="t.smcp" horiz-adv-x="1026" 
d="M645 0h-266v952h-334v240h934v-240h-334v-952z" />
    <glyph glyph-name="tbar.smcp" horiz-adv-x="1026" 
d="M979 1192v-240h-334v-317h186v-195h-186v-440h-266v440h-182v195h182v317h-334v240h934z" />
    <glyph glyph-name="tcaron.smcp" horiz-adv-x="1026" 
d="M512 1468l102 154h246l-209 -301h-284l-209 301h248l102 -154h4zM645 0h-266v952h-334v240h934v-240h-334v-952z" />
    <glyph glyph-name="uni0163.smcp" horiz-adv-x="1026" 
d="M645 0h-106l-29 -57v-4q99 -3 150 -46t51 -120q0 -73 -65.5 -117.5t-196.5 -44.5q-63 0 -125 12v121q44 -14 98 -14q40 0 69 13.5t29 43.5q0 29 -43.5 47.5t-118.5 18.5v75l35 72h-14v952h-334v240h934v-240h-334v-952z" />
    <glyph glyph-name="uni021B.smcp" horiz-adv-x="1026" 
d="M645 0h-266v952h-334v240h934v-240h-334v-952zM352 -449l-55 152q61 18 87 43t26 70q0 28 -15 78h232q10 -36 10 -93q0 -115 -78 -178.5t-207 -71.5z" />
    <glyph glyph-name="u.smcp" horiz-adv-x="1257" 
d="M627 -16q-230 0 -367 134.5t-137 379.5v694h266v-680q0 -119 63 -196.5t175 -77.5q105 0 172 73t67 201v680h269v-694q0 -237 -134.5 -375.5t-373.5 -138.5z" />
    <glyph glyph-name="uacute.smcp" horiz-adv-x="1257" 
d="M700 1628l281 2l-254 -301h-260zM627 -16q-230 0 -367 134.5t-137 379.5v694h266v-680q0 -119 63 -196.5t175 -77.5q105 0 172 73t67 201v680h269v-694q0 -237 -134.5 -375.5t-373.5 -138.5z" />
    <glyph glyph-name="ucircumflex.smcp" horiz-adv-x="1257" 
d="M627 1479l-103 -154h-248l211 301h285l207 -301h-246l-102 154h-4zM627 -16q-230 0 -367 134.5t-137 379.5v694h266v-680q0 -119 63 -196.5t175 -77.5q105 0 172 73t67 201v680h269v-694q0 -237 -134.5 -375.5t-373.5 -138.5z" />
    <glyph glyph-name="udieresis.smcp" horiz-adv-x="1257" 
d="M412 1337q-70 0 -119 48t-49 116q0 66 49 114t119 48q72 0 121 -48t49 -116t-49 -115t-121 -47zM842 1337q-71 0 -119.5 48t-48.5 116q0 67 48.5 114.5t119.5 47.5q70 0 120 -48t50 -116q0 -67 -49.5 -114.5t-120.5 -47.5zM627 -16q-230 0 -367 134.5t-137 379.5v694h266
v-680q0 -119 63 -196.5t175 -77.5q105 0 172 73t67 201v680h269v-694q0 -237 -134.5 -375.5t-373.5 -138.5z" />
    <glyph glyph-name="ugrave.smcp" horiz-adv-x="1257" 
d="M778 1325h-254l-254 299l287 -2zM627 -16q-230 0 -367 134.5t-137 379.5v694h266v-680q0 -119 63 -196.5t175 -77.5q105 0 172 73t67 201v680h269v-694q0 -237 -134.5 -375.5t-373.5 -138.5z" />
    <glyph glyph-name="uhungarumlaut.smcp" horiz-adv-x="1257" 
d="M799 1636l-254 -301h-248l231 299zM1214 1636l-251 -301h-246l229 299zM627 -16q-230 0 -367 134.5t-137 379.5v694h266v-680q0 -119 63 -196.5t175 -77.5q105 0 172 73t67 201v680h269v-694q0 -237 -134.5 -375.5t-373.5 -138.5z" />
    <glyph glyph-name="umacron.smcp" horiz-adv-x="1257" 
d="M940 1382h-625v215h625v-215zM627 -16q-230 0 -367 134.5t-137 379.5v694h266v-680q0 -119 63 -196.5t175 -77.5q105 0 172 73t67 201v680h269v-694q0 -237 -134.5 -375.5t-373.5 -138.5z" />
    <glyph glyph-name="uogonek.smcp" horiz-adv-x="1257" 
d="M866 512v680h269v-694q0 -191 -89 -320.5t-253 -173.5q-77 -30 -120.5 -71t-43.5 -87q0 -41 23.5 -64.5t66.5 -23.5q41 0 84 15l14 -131q-57 -25 -149 -25q-106 0 -170 51.5t-64 134.5q0 106 92 183l-2 6q-187 28 -294 159t-107 347v694h266v-680q0 -119 63 -196.5
t175 -77.5q105 0 172 73t67 201z" />
    <glyph glyph-name="uring.smcp" horiz-adv-x="1257" 
d="M629 1300q-92 0 -157.5 62t-65.5 154q0 91 63 154t160 63q93 0 158 -62t65 -155q0 -90 -62.5 -153t-160.5 -63zM629 1442q32 0 54 23t22 55q0 31 -22 52t-54 21t-54 -22t-22 -53q0 -32 22 -54t54 -22zM627 -16q-230 0 -367 134.5t-137 379.5v694h266v-680
q0 -119 63 -196.5t175 -77.5q105 0 172 73t67 201v680h269v-694q0 -237 -134.5 -375.5t-373.5 -138.5z" />
    <glyph glyph-name="v.smcp" horiz-adv-x="1222" 
d="M731 0h-237l-465 1192h295l284 -811h4l291 811h289z" />
    <glyph glyph-name="w.smcp" horiz-adv-x="1800" 
d="M674 0h-248l-391 1192h287l225 -750h4l207 750h289l200 -750h4l226 750h288l-391 -1192h-250l-219 795h-4z" />
    <glyph glyph-name="wacute.smcp" horiz-adv-x="1800" 
d="M768 1329l233 299l281 2l-254 -301h-260zM674 0h-248l-391 1192h287l225 -750h4l207 750h289l200 -750h4l226 750h288l-391 -1192h-250l-219 795h-4z" />
    <glyph glyph-name="wcircumflex.smcp" horiz-adv-x="1800" 
d="M903 1479h-4l-102 -154h-248l211 301h284l207 -301h-245zM674 0h-248l-391 1192h287l225 -750h4l207 750h289l200 -750h4l226 750h288l-391 -1192h-250l-219 795h-4z" />
    <glyph glyph-name="wdieresis.smcp" horiz-adv-x="1800" 
d="M684 1337q-70 0 -119 48t-49 116q0 66 49 114t119 48q72 0 121 -48t49 -116t-49 -115t-121 -47zM1114 1337q-71 0 -119.5 48t-48.5 116q0 67 48.5 114.5t119.5 47.5q70 0 120 -48t50 -116q0 -67 -49.5 -114.5t-120.5 -47.5zM674 0h-248l-391 1192h287l225 -750h4l207 750
h289l200 -750h4l226 750h288l-391 -1192h-250l-219 795h-4z" />
    <glyph glyph-name="wgrave.smcp" horiz-adv-x="1800" 
d="M803 1622l221 -297h-254l-254 299zM674 0h-248l-391 1192h287l225 -750h4l207 750h289l200 -750h4l226 750h288l-391 -1192h-250l-219 795h-4z" />
    <glyph glyph-name="x.smcp" horiz-adv-x="1226" 
d="M350 0h-315l397 602l-385 590h311l252 -381h4l254 381h310l-385 -590l399 -602h-318l-258 391h-4z" />
    <glyph glyph-name="y.smcp" horiz-adv-x="1091" 
d="M678 0h-266v520l-410 672h313l230 -404h4l229 404h312l-412 -672v-520z" />
    <glyph glyph-name="yacute.smcp" horiz-adv-x="1091" 
d="M649 1329h-260l234 299l280 2zM678 0h-266v520l-410 672h313l230 -404h4l229 404h312l-412 -672v-520z" />
    <glyph glyph-name="ycircumflex.smcp" horiz-adv-x="1091" 
d="M651 1325l-102 154h-4l-103 -154h-247l211 301h284l207 -301h-246zM678 0h-266v520l-410 672h313l230 -404h4l229 404h312l-412 -672v-520z" />
    <glyph glyph-name="ydieresis.smcp" horiz-adv-x="1091" 
d="M330 1337q-70 0 -119 48t-49 116q0 66 49 114t119 48q72 0 121 -48t49 -116t-49 -115t-121 -47zM760 1337q-71 0 -119.5 48t-48.5 116q0 67 48.5 114.5t119.5 47.5q70 0 120 -48t50 -116q0 -67 -49.5 -114.5t-120.5 -47.5zM678 0h-266v520l-410 672h313l230 -404h4
l229 404h312l-412 -672v-520z" />
    <glyph glyph-name="ygrave.smcp" horiz-adv-x="1091" 
d="M197 1624l286 -2l222 -297h-254zM678 0h-266v520l-410 672h313l230 -404h4l229 404h312l-412 -672v-520z" />
    <glyph glyph-name="z.smcp" horiz-adv-x="1075" 
d="M995 0h-913v213l557 733l-2 6h-533v240h889v-207l-571 -743l2 -4h571v-238z" />
    <glyph glyph-name="zacute.smcp" horiz-adv-x="1075" 
d="M838 1630l-254 -301h-260l233 299zM995 0h-913v213l557 733l-2 6h-533v240h889v-207l-571 -743l2 -4h571v-238z" />
    <glyph glyph-name="zcaron.smcp" horiz-adv-x="1075" 
d="M541 1468h4l102 154h246l-209 -301h-285l-209 301h248zM995 0h-913v213l557 733l-2 6h-533v240h889v-207l-571 -743l2 -4h571v-238z" />
    <glyph glyph-name="zdotaccent.smcp" horiz-adv-x="1075" 
d="M543 1333q-73 0 -121.5 48t-48.5 118q0 68 48.5 116t121.5 48q72 0 121 -48t49 -116q0 -69 -49 -117.5t-121 -48.5zM995 0h-913v213l557 733l-2 6h-533v240h889v-207l-571 -743l2 -4h571v-238z" />
    <glyph glyph-name="zero.zero" horiz-adv-x="1286" 
d="M643 -18q-248 0 -398.5 192t-150.5 528q0 325 148 523t401 198q249 0 399 -191.5t150 -529.5q0 -326 -147.5 -523t-401.5 -197zM643 242q124 0 194 119t70 341q0 217 -69.5 340t-194.5 123q-123 0 -193.5 -120.5t-70.5 -342.5q0 -213 70.5 -336.5t193.5 -123.5zM647 557
q-57 0 -96 38.5t-39 94.5q0 54 39 92.5t96 38.5q54 0 93.5 -38.5t39.5 -92.5q0 -55 -39.5 -94t-93.5 -39z" />
    <glyph glyph-name="zero.osf" horiz-adv-x="1265" 
d="M633 -16q-243 0 -398 154.5t-155 393.5q0 240 157 392.5t400 152.5q242 0 396.5 -154.5t154.5 -394.5q0 -239 -156.5 -391.5t-398.5 -152.5zM635 236q124 0 201 84t77 212q0 132 -79 213.5t-199 81.5q-125 0 -203 -85t-78 -212q0 -131 80 -212.5t201 -81.5z" />
    <glyph glyph-name="one.osf" horiz-adv-x="800" 
d="M35 795l393 268h219v-1063h-274v748l-207 -138z" />
    <glyph glyph-name="two.osf" horiz-adv-x="1019" 
d="M952 0h-897l-4 184l387 295q47 36 62.5 48.5t49 40.5t44.5 41.5t28 35t22 39t5 37.5q0 52 -48 86.5t-122 34.5q-67 0 -136 -32.5t-116 -86.5l-176 154q75 89 194.5 144.5t256.5 55.5q183 0 300.5 -93t117.5 -257q0 -43 -10.5 -81.5t-37.5 -85.5t-82 -101t-137 -113
l-143 -102v-6h442v-238z" />
    <glyph glyph-name="three.osf" horiz-adv-x="1015" 
d="M502 -313q-181 0 -310.5 82.5t-181.5 212.5l232 104q72 -154 233 -154q87 0 146 49t59 125q0 79 -56.5 130t-164.5 51h-99v225h119q79 0 126.5 46.5t47.5 113.5q0 69 -52.5 114t-127.5 45q-129 0 -201 -120l-211 127q51 109 162 174t264 65q118 0 215 -41t156.5 -124
t59.5 -195q0 -100 -43 -179.5t-121 -129.5v-5q97 -44 150.5 -128.5t53.5 -202.5q0 -172 -129.5 -278.5t-326.5 -106.5z" />
    <glyph glyph-name="four.osf" horiz-adv-x="1046" 
d="M866 -297h-266v297h-577v178l612 885h231v-823h172v-240h-172v-297zM629 678l-312 -453h312v453z" />
    <glyph glyph-name="five.osf" horiz-adv-x="1021" 
d="M555 596q84 0 159 -31t132.5 -87.5t91 -144t33.5 -192.5q0 -200 -139 -327t-349 -127q-144 0 -263 54t-202 159l187 161q103 -124 258 -124q103 0 168 59.5t65 153.5q0 103 -65.5 161t-163.5 58q-125 0 -201 -66l-143 51l43 709h731v-246h-496l-18 -252q105 31 172 31z
" />
    <glyph glyph-name="six.osf" horiz-adv-x="1128" 
d="M641 885q80 0 153.5 -29t131.5 -82.5t92.5 -138.5t34.5 -189q0 -198 -137.5 -328t-344.5 -130q-101 0 -190 38t-157.5 109t-106 183t-33.5 249q9 319 203.5 545.5t519.5 292.5l78 -217q-172 -35 -298.5 -130t-189.5 -235l2 -2q113 64 242 64zM575 231q95 0 155.5 65.5
t60.5 156.5t-58.5 150.5t-146.5 58.5q-76 0 -140.5 -35.5t-107.5 -94.5q1 -146 67 -223.5t170 -77.5z" />
    <glyph glyph-name="seven.osf" horiz-adv-x="927" 
d="M27 813v250h854v-178l-478 -1213l-274 52l449 1089h-551z" />
    <glyph glyph-name="eight.osf" horiz-adv-x="1124" 
d="M561 -16q-215 0 -353 105t-138 282q0 237 235 350v2q-77 38 -119.5 110.5t-42.5 167.5q0 159 118.5 250.5t299.5 91.5q183 0 301.5 -92t118.5 -250q0 -95 -43.5 -167.5t-118.5 -110.5v-2q115 -49 176.5 -140.5t61.5 -209.5t-66.5 -207t-178.5 -134.5t-251 -45.5zM561 825
q71 0 118.5 40t47.5 100q0 66 -47.5 108.5t-118.5 42.5t-118.5 -43.5t-47.5 -107.5q0 -60 47 -100t119 -40zM561 223q97 0 156 53.5t59 131.5q0 77 -59 126.5t-156 49.5t-155 -49t-58 -127q0 -79 60 -132t153 -53z" />
    <glyph glyph-name="nine.osf" horiz-adv-x="1120" 
d="M541 1077q103 0 193.5 -38t159.5 -109t106.5 -182t33.5 -248q-9 -331 -201.5 -551.5t-521.5 -286.5l-78 217q368 81 488 361l-4 4q-112 -62 -238 -62q-81 0 -154.5 29t-131.5 82.5t-92.5 138.5t-34.5 189q0 194 138 325t337 131zM328 614q0 -91 59 -151t148 -60
q72 0 134.5 33t104.5 90v2q0 148 -64.5 227t-166.5 79q-88 0 -151.5 -65.5t-63.5 -154.5z" />
    <glyph glyph-name="zero.osf.zero" horiz-adv-x="1265" 
d="M633 -16q-243 0 -398 154.5t-155 393.5q0 240 157 392.5t400 152.5q242 0 396.5 -154.5t154.5 -394.5q0 -239 -156.5 -391.5t-398.5 -152.5zM635 236q124 0 201 84t77 212q0 132 -79 213.5t-199 81.5q-125 0 -203 -85t-78 -212q0 -131 80 -212.5t201 -81.5zM637 403
q-54 0 -91.5 36.5t-37.5 88.5q0 53 37.5 90t91.5 37q53 0 90 -37.5t37 -89.5t-37 -88.5t-90 -36.5z" />
    <glyph glyph-name="zero.tf" 
d="M600 -18q-248 0 -398.5 192t-150.5 528q0 325 148 523t401 198q249 0 399 -191.5t150 -529.5q0 -326 -147.5 -523t-401.5 -197zM600 242q124 0 194 119t70 341q0 217 -69.5 340t-194.5 123q-123 0 -193.5 -120.5t-70.5 -342.5q0 -213 70.5 -336.5t193.5 -123.5z" />
    <glyph glyph-name="one.tf" 
d="M807 1407v-1155h254v-252h-825v252h292v821l-274 -178l-133 207l463 305h223z" />
    <glyph glyph-name="two.tf" 
d="M1063 0h-948l-2 182l460 459q98 98 146.5 175.5t48.5 156.5q0 84 -57 138t-142 54q-150 0 -254 -149l-200 141q160 266 477 266q193 0 325 -115t132 -302q0 -126 -52.5 -237.5t-183.5 -240.5l-278 -270l2 -6h526v-252z" />
    <glyph glyph-name="three.tf" 
d="M598 -18q-189 0 -324 86t-190 225l240 100q62 -160 251 -160q95 0 158.5 51.5t63.5 135.5q0 82 -63 136t-183 54h-102v226h122q101 0 149 46t48 119t-59.5 121.5t-135.5 48.5q-145 0 -215 -118l-223 121q51 112 168.5 180.5t276.5 68.5q201 0 330.5 -100.5t129.5 -275.5
q0 -102 -49 -184.5t-139 -131.5v-4q109 -47 170 -135t61 -209q0 -181 -135.5 -291t-349.5 -110z" />
    <glyph glyph-name="four.tf" 
d="M936 0h-274v231h-594v177l645 999h223v-938h188v-238h-188v-231zM680 956l-309 -499h309v499z" />
    <glyph glyph-name="five.tf" 
d="M655 907q121 0 220 -53.5t159 -157.5t60 -241q0 -209 -139.5 -341t-362.5 -132q-147 0 -273.5 57t-214.5 166l201 160q43 -59 110.5 -94t149.5 -35q111 0 178.5 63t67.5 160q0 103 -73.5 162t-166.5 59q-121 0 -213 -72l-149 54l43 745h770v-254h-524l-17 -274
q98 28 174 28z" />
    <glyph glyph-name="six.tf" 
d="M684 901q121 0 217.5 -51.5t155.5 -156t59 -244.5q0 -205 -144.5 -336t-363.5 -131q-220 0 -363 158t-143 413q0 223 93.5 413.5t263 317.5t387.5 168l82 -225q-195 -56 -319.5 -148.5t-184.5 -236.5l4 -4q117 63 256 63zM621 233q99 0 161 64.5t62 157.5t-63.5 153
t-168.5 60q-70 0 -134 -35t-109 -92v-17q0 -129 73 -210t179 -81z" />
    <glyph glyph-name="seven.tf" 
d="M117 1155v252h936v-182l-523 -1256l-274 51l489 1135h-628z" />
    <glyph glyph-name="eight.tf" 
d="M598 -16q-145 0 -260.5 50t-181.5 142t-66 211q0 136 68.5 233.5t175.5 139.5v4q-71 33 -121.5 113.5t-50.5 179.5q0 173 122.5 269.5t313.5 96.5q193 0 315.5 -98t122.5 -268q0 -99 -51.5 -181t-120.5 -112v-4q108 -40 176 -137t68 -236q0 -183 -145.5 -293t-364.5 -110
zM598 872q78 0 129 44.5t51 113.5t-51.5 115.5t-128.5 46.5q-78 0 -128 -47t-50 -115q0 -69 50 -113.5t128 -44.5zM598 221q98 0 162.5 60.5t64.5 142.5q0 91 -63.5 149t-163.5 58q-101 0 -164 -58t-63 -149q0 -85 66 -144t161 -59z" />
    <glyph glyph-name="nine.tf" 
d="M592 1423q222 0 365 -157t143 -408q0 -228 -95.5 -421t-265.5 -319.5t-389 -168.5l-84 225q196 54 323.5 148.5t188.5 242.5l-2 2q-115 -65 -260 -65q-182 0 -306 122.5t-124 331.5q0 205 145 336t361 131zM360 950q0 -95 62.5 -154t167.5 -59q69 0 134 35t110 90v21
q0 129 -67 208.5t-171 79.5q-105 0 -170.5 -64t-65.5 -157z" />
    <glyph glyph-name="zero.tf.zero" 
d="M600 -18q-248 0 -398.5 192t-150.5 528q0 325 148 523t401 198q249 0 399 -191.5t150 -529.5q0 -326 -147.5 -523t-401.5 -197zM600 242q124 0 194 119t70 341q0 217 -69.5 340t-194.5 123q-123 0 -193.5 -120.5t-70.5 -342.5q0 -213 70.5 -336.5t193.5 -123.5zM604 557
q-57 0 -96 38.5t-39 94.5q0 54 39 92.5t96 38.5q54 0 93.5 -38.5t39.5 -92.5q0 -55 -39.5 -94t-93.5 -39z" />
    <glyph glyph-name="zero.tosf" 
d="M598 -16q-243 0 -398 154.5t-155 393.5q0 240 157 392.5t400 152.5q242 0 396.5 -154.5t154.5 -394.5q0 -239 -156.5 -391.5t-398.5 -152.5zM600 236q124 0 201.5 84t77.5 212q0 132 -79.5 213.5t-199.5 81.5q-125 0 -203 -85t-78 -212q0 -131 80 -212.5t201 -81.5z" />
    <glyph glyph-name="one.tosf" 
d="M813 1063v-823h248v-240h-811v240h289v508l-207 -138l-131 185l393 268h219z" />
    <glyph glyph-name="two.tosf" 
d="M1047 0h-897l-5 184l387 295q47 36 62.5 48.5t49 40.5t44.5 41.5t28 35t22 39t5 37.5q0 52 -48 86.5t-122 34.5q-67 0 -135.5 -32.5t-115.5 -86.5l-177 154q75 89 194.5 144.5t256.5 55.5q183 0 300.5 -93t117.5 -257q0 -43 -10 -81.5t-37 -85.5t-82 -101t-137 -113
l-144 -102v-6h443v-238z" />
    <glyph glyph-name="three.tosf" 
d="M612 -313q-181 0 -310 82.5t-181 212.5l231 104q34 -72 93 -113t141 -41q87 0 146 49t59 125q0 79 -57 130t-165 51h-98v225h119q79 0 126.5 46.5t47.5 113.5q0 69 -52.5 114t-127.5 45q-129 0 -201 -120l-211 127q51 109 162 174t264 65q118 0 214.5 -41t156 -124
t59.5 -195q0 -100 -43 -179.5t-121 -129.5v-5q97 -44 151 -128.5t54 -202.5q0 -172 -130 -278.5t-327 -106.5z" />
    <glyph glyph-name="four.tosf" 
d="M932 -297h-266v297h-578v178l612 885h232v-823h172v-240h-172v-297zM694 678l-311 -453h311v453z" />
    <glyph glyph-name="five.tosf" 
d="M657 596q84 0 159 -31t132.5 -87.5t91 -144t33.5 -192.5q0 -200 -139 -327t-348 -127q-144 0 -263 54t-202 159l186 161q103 -124 258 -124q103 0 168.5 59.5t65.5 153.5q0 103 -66 161t-164 58q-124 0 -200 -66l-144 51l43 709h731v-246h-495l-19 -252q105 31 172 31z
" />
    <glyph glyph-name="six.tosf" 
d="M668 885q80 0 153.5 -29t131 -82.5t92 -138.5t34.5 -189q0 -198 -137 -328t-344 -130q-101 0 -190 38t-157.5 109t-106 183t-33.5 249q9 319 203.5 545.5t519.5 292.5l77 -217q-172 -35 -298 -130t-189 -235l2 -2q113 64 242 64zM602 231q95 0 155 65.5t60 156.5
t-58.5 150.5t-146.5 58.5q-75 0 -139.5 -35.5t-107.5 -94.5q1 -146 67 -223.5t170 -77.5z" />
    <glyph glyph-name="seven.tosf" 
d="M143 813v250h895v-178l-508 -1213l-274 52l479 1089h-592z" />
    <glyph glyph-name="eight.tosf" 
d="M598 -16q-215 0 -353.5 105t-138.5 282q0 237 236 350v2q-77 38 -119.5 110.5t-42.5 167.5q0 159 118.5 250.5t299.5 91.5q183 0 301.5 -92t118.5 -250q0 -95 -43.5 -167.5t-118.5 -110.5v-2q115 -49 176.5 -140.5t61.5 -209.5t-66.5 -207t-178.5 -134.5t-251 -45.5z
M598 825q71 0 118.5 40t47.5 100q0 66 -47.5 108.5t-118.5 42.5t-118.5 -43.5t-47.5 -107.5q0 -60 47 -100t119 -40zM598 223q97 0 156 53.5t59 131.5q0 77 -59 126.5t-156 49.5t-155 -49t-58 -127q0 -79 60 -132t153 -53z" />
    <glyph glyph-name="nine.tosf" 
d="M586 1077q103 0 193.5 -38t159.5 -109t106.5 -182t33.5 -248q-9 -331 -201.5 -551.5t-521.5 -286.5l-77 217q367 81 487 361l-4 4q-112 -62 -238 -62q-81 0 -154.5 29t-131.5 82.5t-92.5 138.5t-34.5 189q0 194 138 325t337 131zM373 614q0 -91 59 -151t148 -60
q72 0 134.5 33t104.5 90v2q0 148 -64.5 227t-166.5 79q-88 0 -151.5 -65.5t-63.5 -154.5z" />
    <glyph glyph-name="zero.tosf.zero" 
d="M598 -16q-243 0 -398 154.5t-155 393.5q0 240 157 392.5t400 152.5q242 0 396.5 -154.5t154.5 -394.5q0 -239 -156.5 -391.5t-398.5 -152.5zM600 236q124 0 201.5 84t77.5 212q0 132 -79.5 213.5t-199.5 81.5q-125 0 -203 -85t-78 -212q0 -131 80 -212.5t201 -81.5z
M602 403q-54 0 -91.5 36.5t-37.5 88.5q0 53 37.5 90t91.5 37q52 0 89.5 -37.5t37.5 -89.5t-37 -88.5t-90 -36.5z" />
    <glyph glyph-name="zero.dnom" horiz-adv-x="835" 
d="M418 -18q-171 0 -270 120.5t-99 319.5q0 208 102 324t267 116q170 0 268 -120t98 -320q0 -207 -100.5 -323.5t-265.5 -116.5zM418 178q71 0 112 63t41 181q0 117 -41 180.5t-112 63.5q-72 0 -113 -63t-41 -181q0 -116 41.5 -180t112.5 -64z" />
    <glyph glyph-name="one.dnom" horiz-adv-x="575" 
d="M469 0h-211v582l-129 -88l-102 161l278 189h164v-844z" />
    <glyph glyph-name="two.dnom" horiz-adv-x="692" 
d="M641 0h-594l-4 141l262 262q59 58 85 96t26 76t-25 62.5t-65 24.5q-33 0 -69 -19t-62 -59l-158 114q43 70 122.5 115t182.5 45q121 0 207 -70.5t86 -187.5q0 -77 -31 -139t-121 -144l-135 -122l2 -5h291v-190z" />
    <glyph glyph-name="three.dnom" horiz-adv-x="706" 
d="M354 -14q-119 0 -207 56t-120 144l188 76q30 -92 123 -92q47 0 75.5 25t28.5 65q0 42 -32.5 67t-90.5 25h-57v156h72q44 0 71 22t27 56q0 37 -26 61.5t-68 24.5q-74 0 -102 -74l-177 94q30 72 106.5 119t174.5 47q126 0 209.5 -62t83.5 -169q0 -126 -105 -189v-4
q134 -62 134 -201q0 -114 -85.5 -180.5t-222.5 -66.5z" />
    <glyph glyph-name="four.dnom" horiz-adv-x="724" 
d="M575 0h-210v129h-342v127l387 588h165v-535h113v-180h-113v-129zM383 530l-150 -235h150v235z" />
    <glyph glyph-name="five.dnom" horiz-adv-x="702" 
d="M391 545q109 0 186.5 -75.5t77.5 -190.5q0 -130 -90.5 -211.5t-228.5 -81.5q-193 0 -311 129l155 127q53 -66 135 -66q52 0 88.5 28.5t36.5 76.5q0 56 -33.5 83t-84.5 27q-63 0 -115 -49l-113 43l27 459h487v-191h-311l-8 -125q63 17 102 17z" />
    <glyph glyph-name="six.dnom" horiz-adv-x="733" 
d="M424 541q104 0 181 -72.5t77 -194.5q0 -127 -91.5 -208.5t-223.5 -81.5q-134 0 -228 98.5t-94 253.5q0 125 54.5 235.5t164 191.5t256.5 109l58 -167q-231 -61 -297 -197l4 -2q65 35 139 35zM369 168q50 0 83 31t33 80q0 45 -30.5 73.5t-83.5 28.5q-75 0 -125 -59v-7
q0 -69 35 -108t88 -39z" />
    <glyph glyph-name="seven.dnom" horiz-adv-x="643" 
d="M49 651v193h547v-139l-277 -728l-210 41l256 633h-316z" />
    <glyph glyph-name="eight.dnom" horiz-adv-x="745" 
d="M373 -14q-140 0 -232 67t-92 180q0 80 43 138.5t107 85.5v4q-40 20 -70.5 67.5t-30.5 102.5q0 109 78 167t197 58q118 0 195 -58.5t77 -166.5q0 -56 -30 -103t-72 -67v-4q66 -27 109.5 -85.5t43.5 -138.5q0 -113 -93 -180t-230 -67zM371 532q40 0 65 22.5t25 57.5
q0 34 -25 57t-65 23q-36 1 -62 -22.5t-26 -57.5q0 -35 25 -57.5t63 -22.5zM373 162q49 0 80.5 27.5t31.5 70.5q0 42 -31 72t-81 30q-49 -1 -81 -30.5t-32 -71.5t32.5 -70t80.5 -28z" />
    <glyph glyph-name="nine.dnom" horiz-adv-x="729" 
d="M365 856q134 0 226.5 -97.5t92.5 -252.5q0 -126 -52.5 -237.5t-160.5 -193.5t-254 -106l-55 168q232 55 293 199l-2 2q-67 -37 -146 -37q-106 0 -183 72t-77 194q0 127 92.5 208t225.5 81zM244 563q0 -45 32 -74.5t84 -29.5q73 0 125 61v4q0 71 -35 110.5t-88 39.5
q-50 0 -84 -31t-34 -80z" />
    <glyph glyph-name="zero.numr" horiz-adv-x="835" 
d="M418 592q-171 0 -270 120.5t-99 319.5q0 208 102 324.5t267 116.5q170 0 268 -120.5t98 -320.5q0 -207 -100.5 -323.5t-265.5 -116.5zM418 788q71 0 112 63t41 181q0 117 -41 180.5t-112 63.5q-72 0 -113 -63t-41 -181q0 -116 41.5 -180t112.5 -64z" />
    <glyph glyph-name="one.numr" horiz-adv-x="575" 
d="M469 612h-211v582l-129 -88l-102 162l278 188h164v-844z" />
    <glyph glyph-name="two.numr" horiz-adv-x="692" 
d="M641 612h-594l-4 142l262 262q59 58 85 96t26 76t-25 62t-65 24q-33 0 -69 -19t-62 -59l-158 115q43 69 122.5 114t182.5 45q121 0 207 -70.5t86 -187.5q0 -77 -31 -138.5t-121 -143.5l-135 -123l2 -4h291v-191z" />
    <glyph glyph-name="three.numr" horiz-adv-x="706" 
d="M354 598q-119 0 -207 56.5t-120 144.5l188 75q30 -92 123 -92q47 0 75.5 25t28.5 65q0 42 -32.5 67.5t-90.5 25.5h-57v155h72q44 0 71 22t27 56q0 37 -26 61.5t-68 24.5q-74 0 -102 -74l-177 95q30 72 106.5 118.5t174.5 46.5q126 0 209.5 -62t83.5 -169
q0 -125 -105 -188v-4q134 -62 134 -201q0 -114 -85.5 -181t-222.5 -67z" />
    <glyph glyph-name="four.numr" horiz-adv-x="724" 
d="M575 612h-210v129h-342v127l387 588h165v-534h113v-181h-113v-129zM383 1143l-150 -236h150v236z" />
    <glyph glyph-name="five.numr" horiz-adv-x="702" 
d="M391 1157q109 0 186.5 -75.5t77.5 -190.5q0 -130 -90.5 -211.5t-228.5 -81.5q-193 0 -311 129l155 127q53 -66 135 -66q52 0 88.5 28.5t36.5 76.5q0 56 -34 83.5t-84 27.5q-62 0 -115 -50l-113 43l27 459h487v-190h-311l-8 -125q59 16 102 16z" />
    <glyph glyph-name="six.numr" horiz-adv-x="733" 
d="M424 1155q104 0 181 -72t77 -194q0 -127 -91.5 -209t-223.5 -82q-134 0 -228 98.5t-94 253.5q0 125 54.5 236t164 192t256.5 109l58 -168q-231 -61 -297 -197l4 -2q65 35 139 35zM369 782q50 0 83 31t33 80q0 45 -30.5 73.5t-83.5 28.5q-75 0 -125 -59v-6q0 -70 35 -109
t88 -39z" />
    <glyph glyph-name="seven.numr" horiz-adv-x="643" 
d="M49 1264v192h547v-139l-277 -727l-210 41l256 633h-316z" />
    <glyph glyph-name="eight.numr" horiz-adv-x="745" 
d="M373 598q-140 0 -232 67.5t-92 180.5q0 80 43 138t107 85v4q-40 20 -70.5 67.5t-30.5 102.5q0 109 78 167t197 58q118 0 195 -58.5t77 -166.5q0 -56 -30 -103t-72 -67v-4q66 -27 109.5 -85t43.5 -138q0 -113 -93 -180.5t-230 -67.5zM371 1145q40 0 65 22.5t25 57.5
q0 34 -25 57t-65 23q-36 1 -62 -22.5t-26 -57.5q0 -35 25 -57.5t63 -22.5zM373 774q49 0 80.5 27.5t31.5 70.5t-31 73t-81 30q-49 -1 -81 -31t-32 -72t32.5 -70t80.5 -28z" />
    <glyph glyph-name="nine.numr" horiz-adv-x="729" 
d="M365 1468q134 0 226.5 -97.5t92.5 -252.5q0 -93 -31 -181t-88.5 -161t-147.5 -124.5t-200 -69.5l-55 168q121 29 191.5 77t101.5 121l-2 2q-67 -37 -146 -37q-106 0 -183 72.5t-77 194.5q0 127 92.5 207.5t225.5 80.5zM244 1176q0 -45 32 -75t84 -30q73 0 125 62v4
q0 71 -35 110t-88 39q-50 0 -84 -30.5t-34 -79.5z" />
    <glyph glyph-name="zero.smcp" horiz-adv-x="1144" 
d="M571 -16q-223 0 -358 164.5t-135 449.5q0 277 133 443.5t360 166.5q224 0 360 -163.5t136 -446.5q0 -280 -133.5 -447t-362.5 -167zM571 229q105 0 166.5 95t61.5 274q0 167 -61 267t-167 100q-105 0 -166 -95t-61 -272q0 -168 61 -268.5t166 -100.5z" />
    <glyph glyph-name="one.smcp" horiz-adv-x="776" 
d="M31 932l377 260h208v-1192h-260v877l-198 -142z" />
    <glyph glyph-name="two.smcp" horiz-adv-x="968" 
d="M887 0h-830l-2 168l385 383q87 89 128.5 148.5t41.5 123.5q0 59 -45.5 101.5t-113.5 42.5q-140 0 -220 -121l-182 139q60 101 166 162t254 61q167 0 286 -98.5t119 -259.5q0 -109 -47 -200t-170 -208l-211 -204v-5h441v-233z" />
    <glyph glyph-name="three.smcp" horiz-adv-x="974" 
d="M481 -16q-166 0 -287.5 75t-168.5 195l221 100q23 -60 84.5 -98.5t136.5 -38.5t124.5 39t49.5 106q0 65 -52.5 107.5t-150.5 42.5h-90v205h111q80 0 118.5 36t38.5 93q0 56 -47 93.5t-114 37.5q-119 0 -181 -109l-202 123q44 97 149 157t244 60q174 0 288.5 -85
t114.5 -234q0 -79 -38 -148.5t-107 -113.5v-4q184 -77 184 -295q0 -155 -120 -249.5t-306 -94.5z" />
    <glyph glyph-name="four.smcp" horiz-adv-x="1028" 
d="M825 0h-256v190h-524v160l576 842h204v-778h164v-224h-164v-190zM592 803l-281 -404h281v404z" />
    <glyph glyph-name="five.smcp" horiz-adv-x="993" 
d="M539 778q168 0 280.5 -104.5t112.5 -284.5q0 -182 -129 -293.5t-324 -111.5q-280 0 -440 186l178 162q39 -52 103 -82.5t139 -30.5q90 0 148.5 49.5t58.5 122.5q0 82 -60.5 129t-138.5 47q-112 0 -191 -59l-135 51l37 633h688v-231h-463l-10 -207q79 24 146 24z" />
    <glyph glyph-name="six.smcp" horiz-adv-x="1044" 
d="M606 772q160 0 269.5 -103.5t109.5 -283.5q0 -179 -129.5 -290t-318.5 -111q-196 0 -328.5 135.5t-132.5 351.5q0 184 84 346t238.5 274t351.5 148l65 -215q-338 -89 -438 -309l4 -2q100 59 225 59zM530 219q86 0 142.5 51t56.5 123q0 70 -54 118t-138 48
q-60 0 -115.5 -25t-93.5 -71v-14q0 -104 57 -167t145 -63z" />
    <glyph glyph-name="seven.smcp" horiz-adv-x="870" 
d="M51 958v234h770v-168l-422 -1051l-258 45l398 940h-488z" />
    <glyph glyph-name="eight.smcp" horiz-adv-x="1042" 
d="M522 -16q-202 0 -329 95t-127 253q0 114 61.5 195t153.5 120v4q-60 29 -105 96.5t-45 149.5q0 148 110.5 229.5t280.5 81.5q174 0 283.5 -82t109.5 -229q0 -83 -45 -150t-106 -96v-4q93 -37 155 -119t62 -196q0 -160 -129 -254t-330 -94zM522 754q62 0 105 34.5t43 83.5
t-44 84t-104 35q-63 0 -105 -34.5t-42 -84.5q0 -49 42.5 -83.5t104.5 -34.5zM522 203q84 0 138.5 45.5t54.5 113.5q0 69 -54.5 114.5t-138.5 45.5q-83 0 -136.5 -45.5t-53.5 -114.5t55.5 -114t134.5 -45z" />
    <glyph glyph-name="nine.smcp" horiz-adv-x="1056" 
d="M518 1208q199 0 330 -135t131 -348q0 -282 -188 -499t-486 -271l-67 215q170 43 277 117t159 188l-2 4q-103 -59 -226 -59q-160 0 -269 104.5t-109 284.5q0 175 130 287t320 112zM324 801q0 -69 53.5 -115.5t138.5 -46.5q60 0 115 25.5t94 70.5v10q0 103 -57.5 165.5
t-145.5 62.5t-143 -49.5t-55 -122.5z" />
    <glyph glyph-name="zero.smcp.zero" horiz-adv-x="1144" 
d="M571 -16q-223 0 -358 164.5t-135 449.5q0 277 133 443.5t360 166.5q224 0 360 -163.5t136 -446.5q0 -280 -133.5 -447t-362.5 -167zM571 229q105 0 166.5 95t61.5 274q0 167 -61 267t-167 100q-105 0 -166 -95t-61 -272q0 -168 61 -268.5t166 -100.5zM575 463
q-54 0 -91.5 36.5t-37.5 88.5q0 53 37.5 90t91.5 37q53 0 90 -37.5t37 -89.5t-37 -88.5t-90 -36.5z" />
    <glyph glyph-name="exclamdown.case" horiz-adv-x="569" 
d="M287 1526q68 0 117 -48.5t49 -117.5q0 -67 -49 -115.5t-117 -48.5q-70 0 -120 48t-50 116q0 69 49.5 117.5t120.5 48.5zM141 0l47 1030h201l45 -1030h-293z" />
    <glyph glyph-name="questiondown.case" horiz-adv-x="952" 
d="M547 1526q71 0 120.5 -48.5t49.5 -117.5q0 -68 -50 -116t-120 -48q-68 0 -117 48.5t-49 115.5q0 69 49 117.5t117 48.5zM434 1034h238v-102q1 -43 -11.5 -82t-38 -75.5t-48 -62t-59.5 -62.5l-17 -17q-42 -47 -64 -74t-43.5 -73t-21.5 -89q0 -75 44 -117t117 -42
q58 0 113 29.5t92 80.5l195 -178q-71 -87 -182.5 -137.5t-237.5 -50.5q-87 0 -164.5 25t-138 73.5t-96 126t-35.5 174.5q0 108 48.5 190.5t133.5 163.5q13 12 47 43.5t48 45.5t34.5 37.5t29 43.5t9.5 41z" />
    <glyph glyph-name="bullet.case" horiz-adv-x="864" 
d="M432 459q-100 0 -171 70t-71 169q0 100 71 171t171 71t171 -71t71 -171q0 -99 -71 -169t-171 -70z" />
    <glyph glyph-name="periodcentered.loclCAT.case" horiz-adv-x="436" 
d="M170 530q-71 0 -120.5 48.5t-49.5 117.5q0 68 50 116t120 48q68 0 117 -48.5t49 -115.5q0 -69 -49 -117.5t-117 -48.5z" />
    <glyph glyph-name="periodcentered.loclCAT" horiz-adv-x="395" 
d="M195 354q-71 0 -120.5 48.5t-49.5 117.5q0 68 50 116t120 48q68 0 116.5 -48.5t48.5 -115.5q0 -69 -48.5 -117.5t-116.5 -48.5z" />
    <glyph glyph-name="period.tf" horiz-adv-x="600" 
d="M301 -18q-71 0 -120.5 48t-49.5 117q0 68 50 116t120 48q68 0 117 -48.5t49 -115.5q0 -69 -49 -117t-117 -48z" />
    <glyph glyph-name="comma.tf" horiz-adv-x="600" 
d="M322 -272h-195l63 534h277z" />
    <glyph glyph-name="colon.tf" horiz-adv-x="600" 
d="M297 686q-71 0 -120.5 48.5t-49.5 117.5q0 68 50 116t120 48q68 0 117 -48.5t49 -115.5q0 -69 -49 -117.5t-117 -48.5zM297 -18q-71 0 -120.5 48t-49.5 117q0 68 50 116t120 48q68 0 117 -48.5t49 -115.5q0 -69 -49 -117t-117 -48z" />
    <glyph glyph-name="numbersign.tf" 
d="M362 -45h-184l62 385h-195v197h225l43 284h-219v199h250l55 366h185l-60 -366h254l56 366h182l-58 -366h203l-2 -199h-231l-43 -284h225l-2 -197h-254l-59 -385h-181l58 385h-250zM496 821l-45 -284h254l43 284h-252z" />
    <glyph glyph-name="period.tosf" horiz-adv-x="600" 
d="M301 -18q-71 0 -120.5 48t-49.5 117q0 68 50 116t120 48q68 0 117 -48.5t49 -115.5q0 -69 -49 -117t-117 -48z" />
    <glyph glyph-name="comma.tosf" horiz-adv-x="600" 
d="M330 -272h-195l64 534h276z" />
    <glyph glyph-name="colon.tosf" horiz-adv-x="600" 
d="M297 686q-71 0 -120.5 48.5t-49.5 117.5q0 68 50 116t120 48q68 0 117 -48.5t49 -115.5q0 -69 -49 -117.5t-117 -48.5zM297 -18q-71 0 -120.5 48t-49.5 117q0 68 50 116t120 48q68 0 117 -48.5t49 -115.5q0 -69 -49 -117t-117 -48z" />
    <glyph glyph-name="numbersign.tosf" 
d="M362 -154h-184l62 385h-195v197h225l43 285h-219v198h250l55 367h185l-60 -367h254l56 367h182l-58 -367h203l-2 -198h-231l-43 -285h225l-2 -197h-254l-59 -385h-181l58 385h-250zM496 713l-45 -285h254l43 285h-252z" />
    <glyph glyph-name="parenleft.case" horiz-adv-x="593" 
d="M549 -141l-199 -88q-248 389 -248 925q0 266 65 505.5t187 422.5l197 -90q-99 -180 -152 -395.5t-53 -442.5q0 -447 203 -837z" />
    <glyph glyph-name="parenright.case" horiz-adv-x="587" 
d="M254 -229l-199 88q203 390 203 837q0 227 -53 442.5t-152 395.5l197 90q122 -183 187 -422.5t65 -505.5q0 -536 -248 -925z" />
    <glyph glyph-name="braceleft.case" horiz-adv-x="688" 
d="M649 -207h-149q-102 0 -171 72t-69 188v379q0 27 -1 41.5t-5.5 36t-15.5 33t-29.5 24t-49 18t-71.5 5.5v201q49 2 83 13t51 24t26 37.5t10.5 40.5t1.5 44v385q0 110 66 185t174 75h149v-178h-45q-33 0 -58 -13t-37.5 -34.5t-18 -42t-5.5 -41.5v-375q0 -91 -26 -142.5
t-84 -74.5v-4q44 -17 64.5 -35.5t33 -62.5t12.5 -123v-354q0 -74 25 -109t94 -35h45v-178z" />
    <glyph glyph-name="braceright.case" horiz-adv-x="696" 
d="M197 -207h-150v178h45q69 0 94 35t25 109v354q0 79 12.5 123t33.5 62.5t65 35.5v4q-58 23 -84.5 74.5t-26.5 142.5v375q0 21 -5.5 41.5t-18 42t-37.5 34.5t-58 13h-45v178h150q108 0 173.5 -75t65.5 -185v-385q0 -28 1.5 -44t10.5 -40.5t26 -37.5t51 -24t83 -13v-201
q-41 0 -71.5 -5.5t-49 -18t-29.5 -24t-15.5 -33t-5.5 -36t-1 -41.5v-379q0 -116 -68.5 -188t-170.5 -72z" />
    <glyph glyph-name="bracketleft.case" horiz-adv-x="653" 
d="M608 -213h-487v1804h487v-198h-258v-1403h258v-203z" />
    <glyph glyph-name="bracketright.case" horiz-adv-x="653" 
d="M532 1591v-1804h-487v203h258v1403h-258v198h487z" />
    <glyph glyph-name="hyphen.case" horiz-adv-x="759" 
d="M678 555h-596v242h596v-242z" />
    <glyph glyph-name="endash.case" horiz-adv-x="1120" 
d="M1038 547h-956v231h956v-231z" />
    <glyph glyph-name="emdash.case" horiz-adv-x="2076" 
d="M1995 547h-1913v231h1913v-231z" />
    <glyph glyph-name="uni2015.case" horiz-adv-x="2408" 
d="M2327 547h-2245v231h2245v-231z" />
    <glyph glyph-name="hyphen.tf" 
d="M1085 451h-972v233h972v-233z" />
    <glyph glyph-name="hyphen.tosf" 
d="M1085 451h-972v233h972v-233z" />
    <glyph glyph-name="guillemotleft.case" horiz-adv-x="1048" 
d="M328 596l245 -426h-260l-241 426l245 432h258zM750 596l243 -426h-258l-243 426l245 432h258z" />
    <glyph glyph-name="guillemotright.case" horiz-adv-x="1048" 
d="M313 170h-258l244 426l-246 432h258l246 -432zM735 170h-260l246 426l-248 432h258l246 -432z" />
    <glyph glyph-name="exclam.c2sc" horiz-adv-x="473" 
d="M332 418h-191l-45 776h283zM236 -18q-71 0 -120.5 48t-49.5 117q0 68 50 116t120 48q68 0 116.5 -48.5t48.5 -115.5q0 -69 -48.5 -117t-116.5 -48z" />
    <glyph glyph-name="exclamdown.c2sc" horiz-adv-x="473" 
d="M240 1212q68 0 117 -48t49 -117q0 -67 -49 -115.5t-117 -48.5q-70 0 -120 48t-50 116q0 69 49.5 117t120.5 48zM100 0l45 776h191l47 -776h-283z" />
    <glyph glyph-name="question.c2sc" horiz-adv-x="815" 
d="M449 414h-216l-2 47q0 23 3.5 43.5t13 40.5t17 33.5t25.5 34t25.5 29t30.5 30.5t29 28q49 49 74.5 88.5t25.5 88.5q0 39 -33 64.5t-88 25.5q-40 0 -81.5 -21.5t-69.5 -56.5l-185 166q63 72 155 112.5t204 40.5q71 0 137 -19t122 -56t90 -100t34 -142q0 -88 -43.5 -155.5
t-116.5 -129.5q-9 -8 -32.5 -28t-33.5 -28.5t-27 -25t-25 -27t-16 -24.5t-11 -27zM346 -18q-71 0 -120.5 48t-49.5 117q0 68 50 116t120 48q68 0 117 -48.5t49 -115.5q0 -69 -49 -117t-117 -48z" />
    <glyph glyph-name="questiondown.c2sc" horiz-adv-x="815" 
d="M469 1210q71 0 120.5 -48.5t49.5 -117.5q0 -68 -50 -115.5t-120 -47.5q-68 0 -117 48t-49 115q0 69 49 117.5t117 48.5zM367 778h215l2 -47q0 -23 -3.5 -43.5t-13 -40.5t-17 -33.5t-25.5 -34t-25.5 -29t-30.5 -30.5t-29 -28q-49 -49 -74.5 -88.5t-25.5 -88.5
q0 -39 33 -64.5t88 -25.5q40 0 81.5 21.5t69.5 56.5l185 -166q-63 -72 -155 -112.5t-204 -40.5q-71 0 -137 19t-122 56t-90 100t-34 142q0 88 43.5 155.5t116.5 129.5q8 7 38.5 32.5t40 35t28 28.5t27 33.5t11.5 29.5z" />
    <glyph glyph-name="periodcentered.loclCAT.smcp" horiz-adv-x="489" 
d="M262 461q-71 0 -120.5 48.5t-49.5 117.5q0 68 50 116t120 48q68 0 117 -48.5t49 -115.5q0 -69 -49 -117.5t-117 -48.5z" />
    <glyph glyph-name="uni20B5.tf" 
d="M989 334l154 -209q-157 -125 -363 -139v-232h-196v242q-111 20 -202.5 70.5t-163.5 133.5t-112 210t-40 286q0 294 136 481t382 230v205h196v-195q192 -12 357 -137l-164 -205q-89 74 -205 86v-917q124 8 221 90zM356 696q0 -178 64 -286t176 -148v879
q-110 -40 -175 -152t-65 -293z" />
    <glyph glyph-name="cent.tf" 
d="M897 436l184 -164q-58 -66 -145 -112t-197 -60v-198h-186v196q-194 26 -314 165.5t-120 344.5q0 204 119 342.5t315 167.5v195h186v-193q101 -14 189.5 -61t148.5 -123l-180 -156q-93 107 -235 107q-121 0 -197 -76.5t-76 -198.5t76 -200t197 -78q76 0 137 29t98 73z" />
    </font>
</defs>
</svg>
